<svg width="40" height="40" viewBox="0 0 40 40" fill="none" xmlns="http://www.w3.org/2000/svg">
    <circle cx="20" cy="20" r="20" fill="#095"/>
    <path fill-rule="evenodd" clip-rule="evenodd" d="m24.477 29.9-.577-.993c-.57-.996-1.086-1.907-1.461-2.585h-10.85c-.876 0-1.589-.703-1.589-1.581V12.589c0-.875.713-1.589 1.59-1.589h16.816c.881 0 1.594.714 1.594 1.595v12.146c0 .878-.713 1.581-1.594 1.581h-1.909C25.822 27.527 25 28.967 25 28.967l-.523.934zM11.589 12.23a.368.368 0 0 0-.374.366v12.146c0 .2.165.365.374.365h11.564l.176.312c.34.6.774 1.36 1.136 2.006.338-.587.772-1.36 1.144-2.014l.177-.304h2.62a.377.377 0 0 0 .379-.365V12.59c0-.197-.176-.36-.379-.36H11.59z" fill="#D6FFED"/>
    <path fill-rule="evenodd" clip-rule="evenodd" d="M18.833 21.849c0-.699.478-1.178 1.145-1.178.701 0 1.158.48 1.17 1.178 0 .681-.456 1.187-1.17 1.187-.68-.002-1.145-.502-1.145-1.187zm.34-1.8-.013-.338c-.05-.659.175-1.334.758-2.013.411-.516.751-.937.751-1.368 0-.446-.291-.763-.948-.775-.423 0-.948.156-1.277.39L18 14.525c.481-.27 1.242-.525 2.164-.525 1.71 0 2.507.948 2.507 2.026 0 .98-.634 1.625-1.125 2.175-.466.529-.67 1.027-.654 1.614v.235h-1.72z" fill="#D6FFED"/>
</svg>
