<svg width="23" height="24" viewBox="0 0 23 24" fill="none" xmlns="http://www.w3.org/2000/svg">
    <path d="M5.128 17.943V11.11c.47 0 .854-.384.854-.854V9.4H1.711v.855c0 .47.384.854.854.854v6.834h2.563zM10.253 17.943V11.11c.47 0 .854-.384.854-.854V9.4H6.836v.855c0 .47.384.854.854.854v6.834h2.563zM15.379 17.943V11.11c.47 0 .854-.384.854-.854V9.4h-4.272v.855c0 .47.384.854.855.854v6.834h2.563zM20.505 17.943V11.11c.47 0 .854-.384.854-.854V9.4h-4.271v.855c0 .47.383.854.854.854v6.834h2.563zM21.36 20.506h-.855v-1.709H2.565v1.709h-.854a.856.856 0 0 0-.855.854v.855c0 .47.384.854.855.854h19.648c.47 0 .854-.384.854-.854v-.855a.856.856 0 0 0-.854-.854zM1.678 8.546h19.715c.453 0 .82-.382.82-.854a.855.855 0 0 0-.513-.793L11.94.974a.793.793 0 0 0-.827 0l-9.849 5.98a.87.87 0 0 0-.38.96.827.827 0 0 0 .794.632zm9.857-4.826a1.835 1.835 0 1 1 .002 3.67 1.835 1.835 0 0 1-.002-3.67z" fill="#F60"/>
</svg>
