<svg width="533" height="416" viewBox="0 0 533 416" fill="none" xmlns="http://www.w3.org/2000/svg">
    <path fill-rule="evenodd" clip-rule="evenodd" d="M533.02 4.535V416.45H32.195C6.041 365.919-14.333 315.23 12.947 271.413c25.05-40.235 75.27-40.107 127.258-39.975 41.572.106 84.276.215 116.143-20.31 33.284-21.438 51.98-58.943 70.434-95.961 21.39-42.907 42.455-85.16 85.531-100.985C450.139.287 492.047-2.125 533.02 4.535z" fill="#FFEBF0"/>
    <g opacity=".1" fill="#25282B">
        <circle cx="416.158" cy="299.158" r="3.158"/>
        <circle cx="416.158" cy="313.894" r="3.158"/>
        <circle cx="416.158" cy="328.633" r="3.158"/>
        <circle cx="416.158" cy="343.368" r="3.158"/>
        <circle cx="416.158" cy="358.105" r="3.158"/>
        <circle cx="416.158" cy="372.842" r="3.158"/>
        <circle cx="430.894" cy="299.158" r="3.158"/>
        <circle cx="430.894" cy="313.894" r="3.158"/>
        <circle cx="430.894" cy="328.633" r="3.158"/>
        <circle cx="430.894" cy="343.368" r="3.158"/>
        <circle cx="430.894" cy="358.105" r="3.158"/>
        <circle cx="430.894" cy="372.842" r="3.158"/>
        <circle cx="445.632" cy="299.158" r="3.158"/>
        <circle cx="445.632" cy="313.894" r="3.158"/>
        <circle cx="445.632" cy="328.633" r="3.158"/>
        <circle cx="445.632" cy="343.368" r="3.158"/>
        <circle cx="445.632" cy="358.105" r="3.158"/>
        <circle cx="445.632" cy="372.842" r="3.158"/>
        <circle cx="460.369" cy="299.158" r="3.158"/>
        <circle cx="460.369" cy="313.894" r="3.158"/>
        <circle cx="460.369" cy="328.633" r="3.158"/>
        <circle cx="460.369" cy="343.368" r="3.158"/>
        <circle cx="460.369" cy="358.105" r="3.158"/>
        <circle cx="460.369" cy="372.842" r="3.158"/>
        <circle cx="475.105" cy="299.158" r="3.158"/>
        <circle cx="475.105" cy="313.894" r="3.158"/>
        <circle cx="475.105" cy="328.633" r="3.158"/>
        <circle cx="475.105" cy="343.368" r="3.158"/>
        <circle cx="475.105" cy="358.105" r="3.158"/>
        <circle cx="475.105" cy="372.842" r="3.158"/>
        <circle cx="489.842" cy="299.158" r="3.158"/>
        <circle cx="489.842" cy="313.894" r="3.158"/>
        <circle cx="489.842" cy="328.633" r="3.158"/>
        <circle cx="489.842" cy="343.368" r="3.158"/>
        <circle cx="489.842" cy="358.105" r="3.158"/>
        <circle cx="489.842" cy="372.842" r="3.158"/>
    </g>
</svg>
