<svg width="21" height="27" viewBox="0 0 21 27" fill="none" xmlns="http://www.w3.org/2000/svg">
    <path d="m9.099 21.275-.844 5.296H1.546a.943.943 0 0 1-.944-.987l.666-6.355c0-1.539 2.395-3.1 3.428-3.702a.261.261 0 0 1 .388.198c.023.231.118.45.27.624L9.1 21.275zM19.655 26.571H12.95l-.844-5.296 3.741-4.926c.148-.17.24-.382.266-.607a.261.261 0 0 1 .392-.236c1.033.603 3.428 2.163 3.428 3.702l.667 6.377a.945.945 0 0 1-.945.986zM15.972 6.968h-.05V6.87a4.288 4.288 0 0 0 .223-3.484 4.495 4.495 0 0 0-2.387-2.53c-3.698-1.687-6.583.384-7.388.54-.877.169-.376 1.265-.376 1.265-1.986 1.556-.923 3.985-.767 4.31-.295.063-.422.658-.32 1.34.1.684.421 1.123.687 1.156a8.105 8.105 0 0 0 1.4 3.007 4.508 4.508 0 0 0 3.606 1.81 4.508 4.508 0 0 0 3.6-1.81 8.105 8.105 0 0 0 1.4-3.007c.284-.033.579-.523.688-1.155.11-.633-.012-1.29-.316-1.345zm-.915 1a8.312 8.312 0 0 1-1.505 3.993 3.682 3.682 0 0 1-5.904 0A8.312 8.312 0 0 1 6.15 7.984c-.05-.362-.04-.73.029-1.088h.13a3.066 3.066 0 0 0 2.362-1.527s3.905 2.004 6.187 1.64c.065-.01.13-.023.194-.041.052.33.055.667.008 1h-.004zM9.921 17.417a.295.295 0 0 0 0-.447l-2.745-2.387a.384.384 0 0 0-.523 0l-.717.717a.384.384 0 0 0 0 .523l2.298 2.657a.296.296 0 0 0 .422.03l1.265-1.093z" fill="#FE84A3"/>
    <path d="m11.343 21.143.869 5.428H8.99l.869-5.428-.844-1.577a.599.599 0 0 1 .135-.742l1.02-.882a.68.68 0 0 1 .89 0l1.021.882a.6.6 0 0 1 .135.742l-.873 1.577zM15.264 15.317l-.717-.717a.384.384 0 0 0-.523 0l-2.745 2.387a.294.294 0 0 0 0 .447l1.29 1.113a.295.295 0 0 0 .422-.03l2.299-2.656a.381.381 0 0 0-.026-.544z" fill="#FE84A3"/>
</svg>
