<svg width="44" height="32" viewBox="0 0 44 32" fill="none" xmlns="http://www.w3.org/2000/svg">
    <path d="M2.246 31.64c-.65 0-1.188-.211-1.611-.634C.212 30.616 0 30.11 0 29.492c0-.976.618-1.79 1.855-2.441 2.963-1.563 5.127-3.076 6.495-4.541 1.27-1.4 1.904-2.425 1.904-3.076 0-.619-.488-.993-1.465-1.123l-.586-.05-.781-.097c-2.116-.293-3.825-1.27-5.127-2.93C.993 13.607.342 11.604.342 9.23c0-2.377.814-4.46 2.441-6.25C4.606.993 6.966 0 9.863 0c2.8 0 5.176 1.09 7.13 3.271 2.05 2.214 3.075 4.997 3.075 8.35 0 2.962-1.025 6.022-3.076 9.18-2.05 3.19-4.72 5.86-8.008 8.008-2.864 1.888-5.11 2.832-6.738 2.832zm23.34 0c-.651 0-1.188-.211-1.611-.634-.424-.39-.635-.895-.635-1.514 0-.976.618-1.79 1.855-2.441 2.963-1.563 5.127-3.076 6.494-4.541 1.27-1.4 1.905-2.425 1.905-3.076 0-.619-.489-.993-1.465-1.123l-.586-.05-.781-.097c-2.116-.293-3.825-1.27-5.127-2.93-1.302-1.627-1.953-3.63-1.953-6.005 0-2.377.813-4.46 2.441-6.25C27.946.993 30.306 0 33.203 0c2.8 0 5.176 1.09 7.129 3.271 2.05 2.214 3.076 4.997 3.076 8.35 0 2.962-1.025 6.022-3.076 9.18-2.05 3.19-4.72 5.86-8.008 8.008-2.864 1.888-5.11 2.832-6.738 2.832z" fill="#fff"/>
</svg>
