<svg width="105" height="52" viewBox="0 0 105 52" fill="none" xmlns="http://www.w3.org/2000/svg">
    <path d="M8.695 11.077c-1.254 0-2.288.413-3.102 1.238-.813.825-1.265 1.915-1.356 3.27h8.729c-.045-1.378-.452-2.474-1.22-3.287-.769-.814-1.786-1.22-3.051-1.22zM13 21.552h3.983c-.396 1.695-1.328 3.034-2.797 4.017-1.457.972-3.27 1.457-5.44 1.457-2.723 0-4.865-.847-6.424-2.542C.774 22.778 0 20.434 0 17.45c0-2.983.78-5.344 2.339-7.084 1.56-1.752 3.684-2.628 6.373-2.628 2.644 0 4.712.83 6.203 2.492 1.503 1.65 2.254 3.938 2.254 6.864v1.356H4.22v.22c.057 1.548.497 2.774 1.322 3.678.837.893 1.944 1.34 3.322 1.34 2.125 0 3.503-.712 4.136-2.136zM25.966 21.416c.802 1.029 1.932 1.543 3.39 1.543 1.457 0 2.604-.52 3.44-1.56.837-1.04 1.255-2.446 1.255-4.22 0-1.774-.418-3.18-1.255-4.22-.836-1.051-1.983-1.577-3.44-1.577-1.447 0-2.577.52-3.39 1.56-.802 1.04-1.203 2.452-1.203 4.237 0 1.785.4 3.198 1.203 4.237zm3.39 12.288c-2.362 0-4.283-.48-5.763-1.44-1.469-.96-2.288-2.243-2.457-3.848h4.22c.135.644.56 1.153 1.271 1.526.723.372 1.655.559 2.797.559 1.435 0 2.553-.322 3.355-.966.803-.644 1.204-1.548 1.204-2.712v-3.508h-.288a5.475 5.475 0 0 1-2.271 2.288c-.972.52-2.102.78-3.39.78-2.328 0-4.175-.831-5.543-2.492-1.367-1.672-2.05-3.91-2.05-6.712 0-2.847.689-5.119 2.067-6.813 1.379-1.707 3.243-2.56 5.594-2.56 1.265 0 2.412.294 3.44.882 1.029.587 1.797 1.384 2.305 2.39h.288V8.11h4.051v18.61c0 2.147-.796 3.848-2.39 5.102-1.593 1.254-3.74 1.881-6.44 1.881zM43.356 26.654V8.11h4.05v2.966h.289c.452-1.062 1.14-1.881 2.068-2.457.937-.588 2.084-.882 3.44-.882 2.057 0 3.633.6 4.729 1.797 1.107 1.198 1.66 2.904 1.66 5.119v12H55.39v-11c0-2.836-1.248-4.255-3.745-4.255-1.254 0-2.249.402-2.983 1.204-.735.802-1.102 1.887-1.102 3.254v10.797h-4.203zM64.627 26.654V8.11h4.186v18.543h-4.186zM75.39 26.654V11.586h-3.034V8.23h3.033V6.28c0-1.852.486-3.237 1.458-4.152.983-.915 2.497-1.373 4.542-1.373.848 0 1.627.063 2.34.187v3.085a9.953 9.953 0 0 0-1.441-.085c-.972 0-1.678.214-2.119.644-.43.418-.644 1.073-.644 1.966V8.23h4.034v3.356h-3.983v15.068h-4.187zM89.66 33.382c-.87 0-1.423-.022-1.66-.067v-3.441c.214.045.598.068 1.152.068.893 0 1.599-.187 2.119-.56.53-.373.932-.983 1.203-1.83l.22-.814-6.627-18.627h4.61l4.34 14.475h.288L99.627 8.11h4.44l-6.695 19.136c-.78 2.294-1.74 3.887-2.881 4.78-1.13.903-2.74 1.355-4.83 1.355z" fill="#25282B"/>
    <circle cx="66.832" cy="2.789" r="2.789" fill="#F36"/>
    <path d="m29.961 46.668 1.311-6.168h1.044l-1.31 6.168H29.96zm2.645-7.395a.623.623 0 0 1-.456.19.622.622 0 0 1-.457-.19.623.623 0 0 1-.19-.457c0-.178.064-.33.19-.457a.622.622 0 0 1 .457-.19c.178 0 .33.064.456.19.127.127.19.279.19.457s-.063.33-.19.456zm-.225 7.395 1.31-6.168h.985l-.202.96h.024c.21-.335.485-.596.825-.782.34-.19.73-.285 1.168-.285.553 0 1.018.172 1.394.516.375.344.563.777.563 1.3 0 .232-.028.483-.083.752l-.789 3.707h-1.038l.754-3.529c.051-.24.077-.454.077-.64 0-.368-.119-.659-.356-.872-.237-.214-.556-.32-.955-.32-.45 0-.844.15-1.18.45-.336.3-.56.704-.67 1.21l-.79 3.701h-1.037zm8.92 2.325c-.712 0-1.307-.172-1.785-.516-.479-.34-.718-.773-.718-1.299h1.062a.968.968 0 0 0 .45.682c.261.17.591.255.99.255 1.072 0 1.75-.583 2.035-1.75l.19-.782H43.5c-.19.32-.465.58-.824.782a2.23 2.23 0 0 1-1.115.303c-.7 0-1.262-.237-1.685-.712-.423-.478-.634-1.117-.634-1.915 0-.459.067-.904.201-1.335a4.02 4.02 0 0 1 .587-1.162c.254-.348.58-.627.98-.836.398-.21.84-.315 1.322-.315.486 0 .907.135 1.263.404.36.269.595.609.706 1.02h.03l.26-1.317h1.014l-1.233 5.848c-.182.866-.544 1.522-1.085 1.969-.538.45-1.2.676-1.987.676zm.492-3.232c.43 0 .81-.125 1.139-.374.332-.253.58-.583.747-.99.17-.412.255-.864.255-1.359 0-.502-.152-.915-.457-1.24a1.464 1.464 0 0 0-1.127-.491c-.62 0-1.122.257-1.506.77-.38.515-.57 1.161-.57 1.94 0 .53.131.953.392 1.27.265.315.64.474 1.127.474z" fill="#F36"/>
    <path d="m48.548 46.668 1.31-6.168h.985l-.208.99h.024c.158-.308.4-.567.724-.776.324-.214.676-.32 1.055-.32.42 0 .775.11 1.068.331.297.218.482.475.557.771h.018a2.82 2.82 0 0 1 .842-.788c.344-.21.746-.315 1.204-.315.502 0 .918.158 1.246.475.332.312.498.713.498 1.204 0 .229-.026.464-.077.706l-.825 3.89h-1.037l.788-3.713c.048-.217.072-.415.072-.593 0-.3-.097-.551-.291-.753-.194-.202-.455-.302-.783-.302-.368 0-.706.136-1.014.409-.308.269-.51.628-.605 1.08l-.824 3.872h-1.038l.789-3.713c.051-.237.077-.434.077-.593 0-.3-.097-.551-.29-.753-.195-.202-.458-.302-.79-.302-.36 0-.698.14-1.014.42-.312.282-.512.633-.599 1.056l-.824 3.885h-1.038zm12.051-.771c.443 0 .834-.128 1.174-.386a1.69 1.69 0 0 0 .653-1.008l.154-.688-1.684.09c-.463.023-.823.126-1.08.308a.865.865 0 0 0-.38.741c0 .285.107.514.32.688.214.17.495.255.843.255zm-.273.878c-.541 0-1-.16-1.376-.48a1.565 1.565 0 0 1-.557-1.234c0-.597.22-1.064.658-1.4.439-.34 1.058-.532 1.856-.575l1.845-.095.083-.386c.016-.067.024-.168.024-.302 0-.312-.107-.557-.32-.735-.214-.178-.517-.267-.908-.267-.407 0-.736.09-.984.273-.25.178-.406.419-.47.723H59.1a2.097 2.097 0 0 1 .848-1.376c.47-.352 1.06-.528 1.767-.528.656 0 1.184.164 1.584.493.399.324.598.747.598 1.269 0 .182-.013.356-.041.522l-.848 3.991h-.99l.16-.753h-.018c-.214.269-.48.48-.8.634-.317.15-.661.226-1.033.226zm6.643 0c-.704 0-1.264-.242-1.679-.724-.411-.486-.617-1.13-.617-1.933 0-.7.135-1.335.404-1.904.273-.57.644-1.014 1.115-1.334a2.725 2.725 0 0 1 1.571-.487c.483 0 .908.133 1.275.398.372.265.607.59.706.978h.03l.788-3.659h1.032l-1.82 8.558h-1.038l.207-.984h-.023c-.19.316-.465.577-.825.782a2.218 2.218 0 0 1-1.126.309zm.237-.908c.62 0 1.135-.268 1.542-.806.41-.538.617-1.212.617-2.023 0-.514-.145-.93-.433-1.251-.29-.32-.675-.48-1.157-.48-.593 0-1.087.259-1.483.777-.391.517-.587 1.18-.587 1.986 0 .558.133.997.398 1.317.265.32.632.48 1.103.48zm5.48-2.864h3.303c.004-.036.006-.091.006-.166 0-.431-.12-.795-.362-1.092-.241-.3-.605-.45-1.091-.45-.463 0-.856.158-1.18.474-.32.317-.546.728-.676 1.234zm1.352 3.784c-.815 0-1.441-.25-1.88-.748-.439-.502-.659-1.158-.659-1.969 0-.672.129-1.287.386-1.844a3.241 3.241 0 0 1 1.085-1.334c.47-.333.999-.499 1.584-.499.767 0 1.374.234 1.82.7.447.467.67 1.101.67 1.904 0 .324-.017.6-.053.83h-4.436a2.774 2.774 0 0 0-.006.214c0 .565.135 1.014.403 1.346.273.328.64.492 1.098.492.403 0 .75-.099 1.044-.296.292-.198.51-.469.652-.813h1.014a2.697 2.697 0 0 1-.996 1.447c-.502.38-1.078.57-1.726.57zm7.864-3.784h3.303c.004-.036.006-.091.006-.166 0-.431-.12-.795-.362-1.092-.24-.3-.605-.45-1.09-.45-.463 0-.857.158-1.181.474-.32.317-.546.728-.676 1.234zm1.352 3.784c-.814 0-1.441-.25-1.88-.748-.439-.502-.658-1.158-.658-1.969 0-.672.128-1.287.385-1.844a3.241 3.241 0 0 1 1.085-1.334c.471-.333.999-.499 1.584-.499.767 0 1.374.234 1.82.7.447.467.67 1.101.67 1.904 0 .324-.017.6-.053.83h-4.436a2.785 2.785 0 0 0-.005.214c0 .565.134 1.014.403 1.346.273.328.638.492 1.097.492.403 0 .751-.099 1.044-.296.292-.198.51-.469.652-.813h1.014a2.697 2.697 0 0 1-.996 1.447c-.502.38-1.078.57-1.726.57zm5.73-.89c.442 0 .833-.128 1.173-.386a1.69 1.69 0 0 0 .653-1.008l.154-.688-1.684.09c-.463.023-.823.126-1.08.308a.866.866 0 0 0-.38.741c0 .285.107.514.32.688.214.17.495.255.843.255zm-.274.878c-.541 0-1-.16-1.376-.48a1.566 1.566 0 0 1-.557-1.234c0-.597.22-1.064.658-1.4.439-.34 1.058-.532 1.856-.575l1.845-.095.083-.386c.016-.067.024-.168.024-.302 0-.312-.107-.557-.32-.735-.214-.178-.517-.267-.908-.267-.407 0-.735.09-.984.273-.25.178-.406.419-.469.723h-1.08a2.098 2.098 0 0 1 .849-1.376c.47-.352 1.06-.528 1.767-.528.656 0 1.184.164 1.584.493.399.324.599.747.599 1.269 0 .182-.014.356-.042.522l-.848 3.991h-.99l.16-.753h-.018c-.214.269-.48.48-.8.634-.317.15-.661.226-1.033.226zm4.769-4.543c0-.534.211-.973.634-1.317.427-.344.979-.516 1.655-.516.664 0 1.206.176 1.625.528.423.348.638.799.646 1.352h-.984a1.045 1.045 0 0 0-.404-.747c-.24-.194-.54-.29-.895-.29-.384 0-.69.084-.92.254-.229.166-.343.38-.343.641 0 .217.075.393.225.528.154.134.425.26.813.38l.533.165c.55.17.947.384 1.192.64.245.258.368.59.368.997 0 .554-.227 1.014-.682 1.382-.45.364-1.02.546-1.708.546-.72 0-1.307-.18-1.761-.54-.451-.36-.686-.816-.706-1.37h1.032c.047.32.201.577.462.771.261.194.601.29 1.02.29.372 0 .682-.098.931-.296.25-.198.374-.439.374-.723a.566.566 0 0 0-.201-.463c-.135-.11-.398-.227-.79-.35l-.533-.166c-.561-.174-.967-.393-1.216-.658-.245-.27-.368-.615-.368-1.038zm4.827 6.684c-.265 0-.498-.034-.7-.101l.154-.86c.155.063.34.095.558.095.482 0 .893-.338 1.234-1.014l.201-.404-1.008-6.132h1.02l.741 5.03h.018l2.681-5.03h1.138l-3.854 6.844c-.341.601-.677 1.012-1.009 1.234-.332.225-.723.338-1.174.338z" fill="#25282B"/>
    <path d="M3.632 39.308c-.324 0-.575-.09-.753-.267a.957.957 0 0 1-.255-.668c0-.065.008-.142.024-.231.024-.09.052-.166.085-.231.105.049.259.085.461.11.21.015.454.024.73.024.412 0 .878-.017 1.396-.049a194.708 194.708 0 0 0 2.77-.23c.364-.041.598-.061.704-.061.3 0 .514.113.643.34.138.218.24.514.304.886a16.5 16.5 0 0 0-.632-.036 6.683 6.683 0 0 0-.522-.025 13.046 13.046 0 0 0-1.579.098 19.54 19.54 0 0 0-.376.838c-.138.316-.276.648-.413.996-.13.348-.255.696-.377 1.044a57.79 57.79 0 0 0-.79 2.405c-.129.454-.246.879-.352 1.276a26.574 26.574 0 0 0-.449 2.161c-.542-.08-.996-.42-1.36-1.02.065-.25.141-.522.23-.814l.328-1.008c.13-.38.28-.81.45-1.287a489.476 489.476 0 0 1 .838-2.332c.089-.251.174-.498.255-.741.09-.243.166-.478.23-.704.074-.227.134-.434.183-.62-.34.04-.664.077-.972.11-.3.024-.567.036-.801.036zm7.659 2.332c-.032.502-.122.935-.267 1.3a2.86 2.86 0 0 1-.632.947 4.5 4.5 0 0 1-.984.728c-.388.22-.842.43-1.36.632 0 .049-.004.101-.012.158v.158c0 .105.008.215.024.328.016.113.045.218.085.316.04.097.097.178.17.243a.441.441 0 0 0 .28.085c.218 0 .433-.049.643-.146.21-.097.41-.215.595-.352.195-.146.373-.3.535-.462.17-.17.32-.324.45-.462.08.073.15.142.206.207-.365.486-.765.89-1.203 1.215-.429.315-.838.518-1.226.607-.56-.065-.996-.267-1.312-.607a1.825 1.825 0 0 1-.462-1.251c0-.332.045-.669.134-1.008.097-.349.227-.68.389-.997.17-.323.364-.627.583-.91.226-.284.465-.53.716-.741.26-.21.522-.377.79-.498.275-.122.546-.183.813-.183.373.05.721.28 1.045.693zm-.838.4a1.801 1.801 0 0 0-.68.268c-.235.146-.458.34-.668.583a4.829 4.829 0 0 0-.559.85c-.17.324-.304.672-.4 1.045a5.474 5.474 0 0 0 1.615-1.19c.429-.478.66-.997.692-1.555zm5.59-.279c.082 0 .175.016.28.049.113.024.215.06.304.11.089.04.162.084.218.133.065.048.098.093.098.133-.163.34-.312.685-.45 1.033-.138.34-.255.668-.352.984a9.638 9.638 0 0 0-.23.886 4.201 4.201 0 0 0-.074.717c0 .227.024.417.073.57.049.147.13.252.243.317a1.255 1.255 0 0 1-.376.157c-.154.04-.292.061-.413.061-.438 0-.656-.3-.656-.899 0-.461.153-1.093.461-1.894a7.712 7.712 0 0 1-.559 1.056c-.21.324-.425.612-.643.863a3.915 3.915 0 0 1-.668.62c-.219.153-.421.246-.608.278-.3-.016-.542-.157-.728-.425-.187-.275-.28-.623-.28-1.044 0-.454.097-.931.292-1.434.194-.501.441-.967.74-1.396.308-.43.64-.786.997-1.07.356-.29.7-.444 1.032-.46.081.024.17.072.267.145.106.073.203.158.292.255.097.097.178.199.243.304a.603.603 0 0 1 .109.255c-.324.049-.66.206-1.008.474-.34.267-.652.59-.935.971a5.674 5.674 0 0 0-.68 1.203c-.179.429-.268.83-.268 1.202 0 .154.057.251.17.292.235-.049.506-.247.814-.596.308-.356.68-.902 1.118-1.64l.267-.485a17.138 17.138 0 0 0 .62-1.142c.104-.202.202-.397.29-.583zm1.494 2.77c0-.462.093-.907.279-1.337a4.18 4.18 0 0 1 .753-1.153c.316-.34.672-.612 1.069-.814.405-.21.822-.316 1.25-.316.422 0 .746.105.972.316.227.21.34.51.34.899 0 .186-.028.368-.084.546-.049.17-.118.324-.207.462-.08.137-.178.25-.291.34a.582.582 0 0 1-.34.121.641.641 0 0 1-.304-.085.866.866 0 0 1-.243-.243c.542-.494.814-.943.814-1.348 0-.235-.093-.352-.28-.352-.162 0-.364.077-.607.23a3.435 3.435 0 0 0-.704.608 4.244 4.244 0 0 0-.802 1.3c-.178.47-.267.963-.267 1.481 0 .656.145 1.049.437 1.179a2.2 2.2 0 0 0 .425-.11c.162-.056.336-.13.522-.218a8.48 8.48 0 0 0 .571-.328c.203-.122.397-.251.583-.389.033.024.061.06.085.11a.302.302 0 0 1 .037.133c-.138.17-.296.336-.474.498a5.882 5.882 0 0 1-.559.45 4.65 4.65 0 0 1-.57.327 1.601 1.601 0 0 1-.474.182 1.703 1.703 0 0 1-.753-.255 2.201 2.201 0 0 1-.62-.546 2.962 2.962 0 0 1-.413-.778 2.864 2.864 0 0 1-.145-.91zm5.015 1.93c0-.283.028-.615.085-.995.057-.389.138-.802.243-1.24.113-.436.243-.894.389-1.372.153-.477.323-.955.51-1.433.162-.429.348-.862.558-1.3a19.837 19.837 0 0 1 1.482-2.49c.276-.38.55-.728.826-1.044a2.487 2.487 0 0 1 .85.182c.146.049.276.11.389.182.121.073.219.146.291.22a20.447 20.447 0 0 0-1.64 1.894c-.485.631-.87 1.227-1.153 1.785-.154.308-.296.596-.425.863a16.95 16.95 0 0 0-.34.801c-.105.26-.203.523-.292.79-.08.259-.158.534-.23.826 1.554-1.984 2.708-2.976 3.461-2.976.21 0 .437.069.68.206.243.138.458.324.644.56a9.31 9.31 0 0 0-.777.995c-.268.389-.515.782-.741 1.178-.219.389-.401.753-.547 1.093-.138.332-.206.58-.206.741 0 .081.012.138.036.17.024.025.077.037.158.037a.728.728 0 0 0 .291-.049.541.541 0 0 1 .134-.048c.04.064.065.109.073.133a.2.2 0 0 1 .012.061c0 .032-.048.08-.146.146a4.572 4.572 0 0 1-.74.34.931.931 0 0 1-.292.073.469.469 0 0 1-.243-.073.729.729 0 0 1-.219-.17 1.208 1.208 0 0 1-.145-.243.81.81 0 0 1-.049-.28c0-.121.033-.3.097-.534a18.728 18.728 0 0 1 .729-1.895c.17-.38.352-.769.547-1.166 0-.032-.017-.048-.049-.048-.024 0-.09.032-.194.097-.098.065-.19.13-.28.194-.291.219-.587.49-.886.814-.292.316-.58.664-.863 1.045-.275.38-.538.785-.79 1.214-.242.421-.453.846-.63 1.275a.503.503 0 0 1-.11.158c-.049.049-.09.073-.122.073-.024 0-.06-.028-.109-.085a1.315 1.315 0 0 1-.121-.218 8.61 8.61 0 0 1-.098-.255.693.693 0 0 1-.048-.231z" fill="#F36"/>
</svg>
