<svg width="1240" height="418" viewBox="0 0 1240 418" fill="none" xmlns="http://www.w3.org/2000/svg">
    <path d="M1006.95 89.38c-1.25.508-1.87 1.525-2.5 3.303.84 1.524 1.67 2.54 2.71 2.794 1.25-1.27 2.29-1.524 4.16-1.778-1.66-1.27-2.91-2.286-4.37-4.319z" fill="url(#vyo6kpdz5a)"/>
    <path d="M543.665 370.701c-.416 1.016-.832 1.778-1.665 2.54 2.081 1.016 3.538 1.778 4.787 2.794 1.041-.762 1.457-1.27 1.665-2.286-.624-.762-2.497-2.032-4.787-3.048z" fill="url(#lxn2vthvsb)"/>
    <path d="M366.363 388.031c-2.706-.254-4.163-.762-6.661-2.032-.624 1.524-.832 2.794-.624 4.319 1.665 1.016 3.746 2.032 6.868 2.54-.624-2.032-.624-3.303.417-4.827z" fill="url(#pjnonesvnc)"/>
    <path d="M65.144 214.519c.833 1.016 1.041 1.778.833 3.302 1.457-.508 2.081-1.27 3.538-2.794.208-1.27-.208-2.032-1.04-3.048-1.041 1.524-1.874 2.286-3.33 2.54z" fill="url(#lagfan1bwd)"/>
    <path d="M176.108 96.25c-1.665.761-2.914.761-4.787-.509-.209 2.795.208 4.827 1.248 8.383 1.457 1.016 2.498 1.016 4.163 0-.624-2.794-1.041-5.08-.624-7.875z" fill="url(#voawd6bpwe)"/>
    <path d="M391.353 155.765c-1.457-.508-2.706-.762-3.954-.254-.417 1.27-.417 2.032-.209 3.048 1.457-.254 2.498-.254 3.955.508-.208-1.524-.208-2.286.208-3.302z" fill="url(#3e29pj30wf)"/>
    <path d="M1202.73 20.657c.41 3.049-.21 5.081-1.46 7.622 4.16.253 8.53 0 10.2-.763.21-2.54-.21-4.572-.84-7.367-1.87.762-4.16.762-7.9.508z" fill="url(#lxz5t6ar5g)"/>
    <path d="M1006.27 386.286c.83 0 1.46.254 2.29 1.27 1.45-2.794 1.87-4.827 2.7-7.875-1.25-1.27-2.08-1.524-2.7-1.524-.21 3.302-1.04 5.334-2.29 8.129z" fill="url(#nm5dwz2ozh)"/>
    <path d="M950.739 179.716c-.832-1.524-1.04-2.54-1.04-4.064-.625.254-1.041.254-1.249 0 0 1.778.208 2.794.833 4.826.416-.254.832-.254 1.456-.762z" fill="url(#fth5vnplgi)"/>
    <path d="M19.13 26.332c.625-.254.833-.762 1.25-1.524-1.458-1.016-2.706-2.794-4.163-4.827-.417.508-.625 1.017-1.457 1.27 1.457 2.54 2.29 3.557 4.37 5.081z" fill="url(#s4rpf2rqvj)"/>
    <path d="M27.47 321.463c.738-1.613 1.033-2.688.59-4.481-2.51-.896-3.838-1.613-6.053-2.868-.148 1.076-.443 1.793-.738 2.33 2.657 1.434 4.134 2.689 6.2 5.019z" fill="url(#z94okq057k)"/>
    <path d="M132.568 22.062c-.416 1.524-.208 3.048.833 5.335 2.914-1.525 4.787-1.779 7.701-1.779-.625-1.524-.625-2.794-.209-5.588-3.122-.254-5.411.508-8.325 2.032z" fill="url(#y6d7tauacl)"/>
    <path d="M637.088 134.383c0-1.778-.417-2.794-1.457-3.81-1.457.254-2.498.762-3.122 1.778.416 1.778.208 3.302-.208 5.589 1.665-1.779 2.705-2.795 4.787-3.557z" fill="url(#cpbsr5uskm)"/>
    <path d="M947.616 134.383c0-1.778-.416-2.794-1.457-3.81-1.457.254-2.497.762-3.122 1.778.416 1.778.208 3.302-.208 5.589 1.665-1.779 2.706-2.795 4.787-3.557z" fill="url(#xt2ahi3osn)"/>
    <path d="M235.269 391.655c-.517-.6-.775-1.2-1.033-1.949-1.161 1.499-1.935 2.399-2.967 3.149.129 1.05.387 1.5.903 2.1.774-.6 1.935-1.8 3.097-3.3z" fill="url(#h0zb6cq15o)"/>
    <path d="M1083.11 269.783c-.42 1.778-.83 2.795-1.87 4.319.62.508 1.25 1.016 1.87 1.016.62-1.016 1.46-2.286 2.08-4.065-1.04 0-1.66-.254-2.08-1.27z" fill="url(#f0znyja07p)"/>
    <path d="M826.278 368.971c.417.254.833.508 1.041 1.271 1.041-1.271 1.665-2.287 2.498-4.065-.625-1.016-1.041-1.27-1.457-1.524-.417 1.778-1.041 2.794-2.082 4.318z" fill="url(#hbnvwpmx1q)"/>
    <path d="M1173.27 354.129c.41.254.83.508 1.04 1.27 1.04-1.27 1.66-2.286 2.5-4.065-.63-1.016-1.04-1.27-1.46-1.524-.42 1.778-1.04 2.794-2.08 4.319z" fill="url(#1ocyneujir)"/>
    <path d="M1198 109.996c.41-.508 1.04-1.016 1.87-1.016-.83-2.54-1.46-4.064-2.7-6.097-1.25.254-1.88.762-2.29 1.27 1.66 2.033 2.29 3.557 3.12 5.843z" fill="url(#rydm6zapfs)"/>
    <path d="M491.396 322.737c.625-1.27.833-2.032.417-3.556-1.873-.508-3.122-1.016-4.787-2.033 0 .763-.208 1.525-.625 2.033 2.082.762 3.33 1.778 4.995 3.556z" fill="url(#iyjud3ii9t)"/>
    <path d="M932.216 313.985c1.041.508 1.873.508 3.33-.254-.624-2.795-.832-4.573-.416-7.621-1.041.508-1.873.254-3.538-.255-.208 3.049 0 5.335.624 8.13z" fill="url(#vaas9n41uu)"/>
    <path d="M1235.97 145.864c1.04.508 1.87.508 3.33-.254-.62-2.794-.83-4.573-.42-7.621-1.04.508-1.87.254-3.53-.254-.21 3.048 0 5.335.62 8.129z" fill="url(#rfsesubm2v)"/>
    <path d="M5.411 267.358c-.832-.508-1.457-1.27-2.08-2.541-1.25 2.541-2.082 4.319-3.331 5.843.416 1.524 1.04 2.032 1.665 2.795 1.04-1.271 2.29-3.303 3.746-6.097z" fill="url(#mu6lyi2hew)"/>
    <path d="M163.382 272.184c-1.249-.254-2.914-.508-4.162.508-.417 1.27-.833 2.033-1.457 3.303 1.04 0 1.665.508 2.497 1.778.625-2.032 1.665-3.556 3.122-5.589z" fill="url(#9vfos4igjx)"/>
    <path d="M1086.27 48.326c-1.67-1.59-3.5-2.98-6-2.98-1.33 1.39-2.33 2.185-4 2.98 1.33.794 1.83 1.787 2.17 4.37 2.16-1.788 4.66-2.98 7.83-4.37z" fill="url(#eosdurlvky)"/>
    <path d="M275.784 337.321c.833-1.27 1.249-2.032 2.498-3.048-.417-.762-.833-1.27-1.457-1.524-.833.508-1.665 1.524-2.706 3.048 1.041.254 1.457.508 1.665 1.524z" fill="url(#6yul3k3inz)"/>
    <path d="M885.803 334.169c-1.04.508-1.873.763-2.913 1.017 0 .762.208 1.27.624 1.778.833 0 1.873-.254 3.122-.762-.624-.762-.833-1.27-.833-2.033z" fill="url(#2do0ogbcuA)"/>
    <path d="M327.905 355.904c-.272-1.024-.272-1.74.364-2.867-1.272-.204-2.089 0-3.633.512-.454.819-.454 1.434-.182 2.56 1.363-.41 2.362-.615 3.451-.205z" fill="url(#ouesas3k9B)"/>
    <path d="M769.843 310.575c-.833-1.016-1.249-2.032-1.249-3.81-3.33 1.27-5.412 2.54-8.325 4.572.208 2.541.832 3.811 1.456 4.573 2.498-2.795 4.788-4.065 8.118-5.335z" fill="url(#dvmnvhys8C)"/>
    <path d="M720.576 384.555c-.955.341-2.122.227-4.349-.909-.318 1.136-.318 2.16.106 3.524 1.803.682 2.864.796 4.667.569-.53-1.024-.53-1.82-.424-3.184z" fill="url(#zfi7vjkh9D)"/>
    <path d="M10.252 230.283c2.082.762 3.33.762 5.828 0-1.04-3.048-1.04-5.081-.625-7.367-1.873-1.016-3.33-1.016-5.62-1.27.833 3.048.833 5.335.417 8.637z" fill="url(#915kuw6u9E)"/>
    <path d="M503.309 151.384c-.832.762-.832 1.778-1.04 3.556 2.913.508 5.827 2.033 9.157 4.065.208-1.27.625-2.032 1.457-3.049-3.33-2.54-5.411-3.556-9.574-4.572z" fill="url(#zbly75kj5F)"/>
    <path d="M863.309 147.185c-.832.762-.832 1.778-1.04 3.556 2.913.508 5.827 2.032 9.157 4.065.208-1.271.625-2.033 1.457-3.049-3.33-2.54-5.411-3.556-9.574-4.572z" fill="url(#2bctz80obG)"/>
    <path d="M631.888 367.253c1.041-.254 1.665-.762 2.706-2.032-2.29-2.541-3.955-6.097-5.62-10.162-.832 1.016-1.457 1.27-2.705 1.524 1.456 4.573 2.705 6.859 5.619 10.67z" fill="url(#489ek0u17H)"/>
    <path d="M1193.88 247.972c1.04-.254 1.67-.763 2.71-2.033-2.29-2.54-3.95-6.097-5.62-10.161-.83 1.016-1.46 1.27-2.71 1.524 1.46 4.573 2.71 6.859 5.62 10.67z" fill="url(#net132nfqI)"/>
    <path d="M438.35 26.449c-1.457 1.778-2.081 3.048-2.081 5.842 2.913 2.033 4.578 3.557 7.284 6.351.416-1.524 1.041-2.286 1.665-2.794-3.122-3.048-4.579-5.589-6.868-9.4z" fill="url(#jrkm60t9kJ)"/>
    <path d="M273.691 3.302c2.082.509 3.331.763 5.204.509-.208-1.779-.625-2.795-1.041-3.557-1.041.508-1.873.254-3.122-.254 0 1.27-.208 2.286-1.041 3.302z" fill="url(#s6dpiy3qhK)"/>
    <path d="M825.029 286.411c1.041 0 2.082.508 3.33 1.27 0-3.302.208-5.589.833-8.129-1.041-1.27-1.873-1.524-2.914-1.524-.624 1.778-1.041 4.826-1.249 8.383z" fill="url(#hz46jy7udL)"/>
    <path d="M1157.27 321.447c1.04 0 2.08.508 3.33 1.271 0-3.303.21-5.589.83-8.129-1.04-1.271-1.87-1.525-2.91-1.525-.63 1.779-1.04 4.827-1.25 8.383z" fill="url(#4ytzpze53M)"/>
    <path d="M1086.18 343.511c-1.45 2.032-2.7 4.572-2.91 7.875 1.25 1.778 1.87 3.048 2.7 5.335.63-1.779 1.67-2.541 4.17-2.795-1.88-2.794-2.92-6.097-3.96-10.415z" fill="url(#69elda659N)"/>
    <path d="M233.182 328.812c-1.457 2.033-2.705 4.573-2.913 7.876 1.248 1.778 1.873 3.048 2.705 5.334.625-1.778 1.665-2.54 4.163-2.794-1.873-2.794-2.914-6.097-3.955-10.416z" fill="url(#3ab8yz5l7O)"/>
    <path d="M12.182 117.788c-1.457 2.032-2.705 4.572-2.913 7.875 1.248 1.778 1.873 3.048 2.705 5.334.625-1.778 1.665-2.54 4.163-2.794-1.873-2.794-2.914-6.097-3.955-10.415z" fill="url(#af801v4udP)"/>
    <path d="M1214.18 373.957c-1.45 2.032-2.7 4.573-2.91 7.875 1.25 1.778 1.87 3.048 2.7 5.335.63-1.778 1.67-2.541 4.17-2.795-1.88-2.794-2.92-6.096-3.96-10.415z" fill="url(#b0od1qycsQ)"/>
    <path d="M49.269 384.35c-1.29-1.837-1.936-2.939-2.742-5.144-.968.368-1.775.919-2.258 1.837.322 1.47 1.129 3.307 2.419 5.512.806-1.653 1.29-2.205 2.58-2.205z" fill="url(#ijqtkfxj9R)"/>
    <path d="M676.79 325.891c.833 0 1.457.509 2.081 1.525.625-1.271.625-2.287.833-4.065-.416-.762-1.041-1.016-1.873-1.016-.208 1.524-.417 2.54-1.041 3.556z" fill="url(#c7imz65hmS)"/>
    <path d="M561.834 12.457c2.081-2.794 3.33-4.318 5.828-5.334-.625-1.27-.833-2.287-.833-3.303-2.705 1.016-4.579 2.287-6.868 5.081.416 1.778 1.041 2.794 1.873 3.556z" fill="url(#ppq58l04jT)"/>
    <path d="M933.974 378.157c-.208 1.016-.832 2.286-2.705 3.81.624 1.016 1.456 1.524 2.705 1.778 1.249-1.524 1.873-2.286 2.706-4.318-1.041-.254-1.665-.508-2.706-1.27z" fill="url(#k37pfg5daU)"/>
    <path d="M1235.05 350.173c-.21 1.016-.84 2.287-2.71 3.811.62 1.016 1.46 1.524 2.71 1.778 1.24-1.524 1.87-2.286 2.7-4.318-1.04-.255-1.66-.509-2.7-1.271z" fill="url(#hn1ewqcodV)"/>
    <path d="M62.148 282.906c1.249-.762 2.914-.762 6.244.762.208-1.778.208-3.556-.624-5.589-2.498-.762-4.163-.762-6.66 0 .624 1.271.832 2.541 1.04 4.827z" fill="url(#ygoqybjggW)"/>
    <path d="M283.269 94.827c-1.6-1.055-2.72-1.407-4.64-1.055-.96 3.34-1.76 5.274-3.36 8.262 1.12.176 1.92.528 2.4 1.055 1.76-3.34 3.2-5.274 5.6-8.262z" fill="url(#9p09bacdoX)"/>
    <path d="M1184.47 298.488c.21 2.033 1.25 3.303 3.33 5.081 2.29-3.557 4.16-5.335 7.28-7.367-1.45-1.27-2.08-2.54-2.91-5.589-3.12 1.779-5.2 4.319-7.7 7.875z" fill="url(#8fwucj5riY)"/>
    <path d="M521.542 55.016c-.416 1.27-.416 2.54.416 3.81 1.249.254 2.29.254 3.122-.508 0-1.778.625-2.794 1.457-4.572-1.873.762-3.122 1.27-4.995 1.27z" fill="url(#ujr6o3xudZ)"/>
    <path d="M1229.01 290.475c.83-2.287 1.25-4.065 1.46-6.097-1.46 0-2.29.254-3.13.508.21 1.27-.2 2.286-.83 3.811 1.25.254 1.87.762 2.5 1.778z" fill="url(#0zw1frry2aa)"/>
    <path d="M163.452 374.605c.208-1.271.416-2.287 1.041-3.557-2.498-.254-4.163-.508-6.036-1.524-1.041 1.016-1.249 2.032-1.457 3.302 1.457.762 3.746 1.525 6.452 1.779z" fill="url(#5lf3eyje0ab)"/>
    <path d="M676.741 367.135c-1.456-1.27-3.33-2.54-5.411-2.286-1.041 1.27-1.873 2.032-3.33 3.048 1.249.508 1.665 1.524 2.081 3.811 1.665-1.779 3.747-3.049 6.66-4.573z" fill="url(#1o1u0f8o4ac)"/>
    <path d="M572.151 228.745c-1.457-1.524-3.122-3.049-5.411-3.303-1.249 1.271-2.29 1.779-3.955 2.541 1.249.762 1.665 2.032 1.873 4.572 1.874-1.778 4.371-2.54 7.493-3.81z" fill="url(#2uosjoxgzad)"/>
    <path d="M68.096 99.94c-2.081 1.017-3.538 1.271-5.827 1.271 0 1.27.208 2.54.832 3.556 1.457.254 3.538-.254 6.036-.762-1.04-1.524-1.457-2.54-1.04-4.065z" fill="url(#73bgubm76ae)"/>
    <path d="M407.728 375.97c.416-1.525.624-2.287 1.457-3.557-.417-.508-1.041-.762-1.457-.762-.625.762-1.041 1.778-1.666 3.556.833-.254 1.249 0 1.666.763z" fill="url(#u8x0w1akpaf)"/>
    <path d="M740.173 25.795c-.208-1.016 0-1.778.625-2.794-1.249-.254-1.873-.254-3.538.254-.417.762-.625 1.27-.417 2.54 1.457-.254 2.29-.508 3.33 0z" fill="url(#35yhystlvag)"/>
    <path d="M357.208 295.673c-2.289 1.016-3.954 2.286-5.203 4.318.416 1.779 1.041 2.795 2.081 3.811 1.665-2.286 2.914-3.048 5.203-4.065-1.457-1.524-2.081-2.286-2.081-4.064z" fill="url(#2xivm4jddah)"/>
    <path d="M119.259 310.544c-.208-1.524-.625-2.794-1.457-3.811-.833.254-1.457.508-1.873 1.017.832 1.27 1.04 2.032 1.457 3.556.624-.508 1.04-.762 1.873-.762z" fill="url(#kmzicv0p0ai)"/>
    <path d="M736.056 320.058c-1.249-.508-1.665-1.524-2.498-2.794-1.249 2.286-2.081 4.572-2.289 5.842.832.762 1.665 1.017 2.913 1.525.209-1.525.833-2.795 1.874-4.573z" fill="url(#ndgo0k18aaj)"/>
    <path d="M1201.12 413.427c-1.25-.508-1.67-1.524-2.5-2.794-1.25 2.286-2.08 4.572-2.29 5.843.84.762 1.67 1.016 2.92 1.524.2-1.524.83-2.795 1.87-4.573z" fill="url(#e20p4pmedak)"/>
    <path d="M94.033 364.508c-.44.497-.882.994-1.764 1.16.882 2.155 1.617 3.481 2.94 5.139 1.177-.331 1.765-.829 2.06-1.326-1.618-1.492-2.353-2.984-3.236-4.973z" fill="url(#hg797dywkal)"/>
    <path d="M931.269 31.09c2.081.253 3.122.507 4.579 1.777.208-1.016.624-1.524 1.04-1.778-1.457-1.524-2.706-2.032-4.995-2.54a37.455 37.455 0 0 0-.624 2.54z" fill="url(#b99efznd7am)"/>
    <path d="M656.847 29.819c-1.665-.254-2.497-.254-3.746-1.27-.208.762-.416 1.27-.832 1.524 1.248 1.016 2.289 1.524 3.954 2.032.416-1.016.416-1.524.624-2.286z" fill="url(#sjedyjpvpan)"/>
    <path d="M1038.85 344.781c-1.67-.254-2.5-.254-3.75-1.27-.21.762-.42 1.27-.83 1.524 1.25 1.016 2.29 1.524 3.95 2.032.42-1.016.42-1.524.63-2.286z" fill="url(#2yit7wh1zao)"/>
    <path d="M787.841 173.713c1.873-1.778 2.706-3.048 2.914-6.097-3.122-2.794-4.787-4.826-7.493-8.383-.624 1.525-1.457 2.541-2.081 3.049 3.122 3.81 4.579 6.605 6.66 11.431z" fill="url(#fu14kg2shap)"/>
    <defs>
        <linearGradient id="vyo6kpdz5a" x1="1009.22" y1="91.035" x2="1005.04" y2="94.903" gradientUnits="userSpaceOnUse">
            <stop stop-color="#FF5C5C"/>
            <stop offset=".301" stop-color="#F44444"/>
            <stop offset=".935" stop-color="#D60707"/>
            <stop offset="1" stop-color="#D30000"/>
        </linearGradient>
        <linearGradient id="lxn2vthvsb" x1="544.341" y1="376.149" x2="547.077" y2="371.953" gradientUnits="userSpaceOnUse">
            <stop stop-color="#FF5C5C"/>
            <stop offset=".301" stop-color="#F44444"/>
            <stop offset=".935" stop-color="#D60707"/>
            <stop offset="1" stop-color="#D30000"/>
        </linearGradient>
        <linearGradient id="pjnonesvnc" x1="363.17" y1="386.941" x2="361.472" y2="392.882" gradientUnits="userSpaceOnUse">
            <stop stop-color="#FF5C5C"/>
            <stop offset=".301" stop-color="#F44444"/>
            <stop offset=".935" stop-color="#D60707"/>
            <stop offset="1" stop-color="#D30000"/>
        </linearGradient>
        <linearGradient id="lagfan1bwd" x1="66.703" y1="213.278" x2="69.075" y2="216.935" gradientUnits="userSpaceOnUse">
            <stop stop-color="#FF5C5C"/>
            <stop offset=".301" stop-color="#F44444"/>
            <stop offset=".935" stop-color="#D60707"/>
            <stop offset="1" stop-color="#D30000"/>
        </linearGradient>
        <linearGradient id="voawd6bpwe" x1="176.73" y1="99.927" x2="170.635" y2="100.379" gradientUnits="userSpaceOnUse">
            <stop stop-color="#FF5C5C"/>
            <stop offset=".301" stop-color="#F44444"/>
            <stop offset=".935" stop-color="#D60707"/>
            <stop offset="1" stop-color="#D30000"/>
        </linearGradient>
        <linearGradient id="3e29pj30wf" x1="389.259" y1="155.343" x2="389.089" y2="158.768" gradientUnits="userSpaceOnUse">
            <stop stop-color="#FF5C5C"/>
            <stop offset=".301" stop-color="#F44444"/>
            <stop offset=".935" stop-color="#D60707"/>
            <stop offset="1" stop-color="#D30000"/>
        </linearGradient>
        <linearGradient id="lxz5t6ar5g" x1="1206.44" y1="19.449" x2="1206.73" y2="30.189" gradientUnits="userSpaceOnUse">
            <stop stop-color="#FF5C5C"/>
            <stop offset=".301" stop-color="#F44444"/>
            <stop offset=".935" stop-color="#D60707"/>
            <stop offset="1" stop-color="#D30000"/>
        </linearGradient>
        <linearGradient id="nm5dwz2ozh" x1="1007.11" y1="382.324" x2="1011.11" y2="383.518" gradientUnits="userSpaceOnUse">
            <stop stop-color="#FF5C5C"/>
            <stop offset=".301" stop-color="#F44444"/>
            <stop offset=".935" stop-color="#D60707"/>
            <stop offset="1" stop-color="#D30000"/>
        </linearGradient>
        <linearGradient id="fth5vnplgi" x1="948.11" y1="178.222" x2="950.719" y2="177.62" gradientUnits="userSpaceOnUse">
            <stop stop-color="#FF5C5C"/>
            <stop offset=".301" stop-color="#F44444"/>
            <stop offset=".935" stop-color="#D60707"/>
            <stop offset="1" stop-color="#D30000"/>
        </linearGradient>
        <linearGradient id="s4rpf2rqvj" x1="16.369" y1="24.627" x2="19.011" y2="22.842" gradientUnits="userSpaceOnUse">
            <stop stop-color="#FF5C5C"/>
            <stop offset=".301" stop-color="#F44444"/>
            <stop offset=".935" stop-color="#D60707"/>
            <stop offset="1" stop-color="#D30000"/>
        </linearGradient>
        <linearGradient id="z94okq057k" x1="25.559" y1="315.23" x2="23.609" y2="319.805" gradientUnits="userSpaceOnUse">
            <stop stop-color="#FF5C5C"/>
            <stop offset=".301" stop-color="#F44444"/>
            <stop offset=".935" stop-color="#D60707"/>
            <stop offset="1" stop-color="#D30000"/>
        </linearGradient>
        <linearGradient id="y6d7tauacl" x1="137.568" y1="27.326" x2="135.509" y2="19.506" gradientUnits="userSpaceOnUse">
            <stop stop-color="#4D8EFF"/>
            <stop offset=".428" stop-color="#3F76FF"/>
            <stop offset="1" stop-color="#2850FF"/>
        </linearGradient>
        <linearGradient id="cpbsr5uskm" x1="635.09" y1="136.216" x2="631.979" y2="131.133" gradientUnits="userSpaceOnUse">
            <stop stop-color="#4D8EFF"/>
            <stop offset=".428" stop-color="#3F76FF"/>
            <stop offset="1" stop-color="#2850FF"/>
        </linearGradient>
        <linearGradient id="xt2ahi3osn" x1="945.619" y1="136.216" x2="942.507" y2="131.133" gradientUnits="userSpaceOnUse">
            <stop stop-color="#4D8EFF"/>
            <stop offset=".428" stop-color="#3F76FF"/>
            <stop offset="1" stop-color="#2850FF"/>
        </linearGradient>
        <linearGradient id="h0zb6cq15o" x1="232.005" y1="390.623" x2="234.503" y2="393.162" gradientUnits="userSpaceOnUse">
            <stop stop-color="#4D8EFF"/>
            <stop offset=".428" stop-color="#3F76FF"/>
            <stop offset="1" stop-color="#2850FF"/>
        </linearGradient>
        <linearGradient id="f0znyja07p" x1="1082.15" y1="271.878" x2="1084.91" y2="273.042" gradientUnits="userSpaceOnUse">
            <stop stop-color="#4D8EFF"/>
            <stop offset=".428" stop-color="#3F76FF"/>
            <stop offset="1" stop-color="#2850FF"/>
        </linearGradient>
        <linearGradient id="hbnvwpmx1q" x1="827.209" y1="366.658" x2="829.453" y2="367.948" gradientUnits="userSpaceOnUse">
            <stop stop-color="#4D8EFF"/>
            <stop offset=".428" stop-color="#3F76FF"/>
            <stop offset="1" stop-color="#2850FF"/>
        </linearGradient>
        <linearGradient id="1ocyneujir" x1="1174.2" y1="351.815" x2="1176.44" y2="353.106" gradientUnits="userSpaceOnUse">
            <stop stop-color="#4D8EFF"/>
            <stop offset=".428" stop-color="#3F76FF"/>
            <stop offset="1" stop-color="#2850FF"/>
        </linearGradient>
        <linearGradient id="rydm6zapfs" x1="1196.37" y1="107.35" x2="1199.53" y2="105.775" gradientUnits="userSpaceOnUse">
            <stop stop-color="#4D8EFF"/>
            <stop offset=".428" stop-color="#3F76FF"/>
            <stop offset="1" stop-color="#2850FF"/>
        </linearGradient>
        <linearGradient id="iyjud3ii9t" x1="489.786" y1="317.801" x2="488.361" y2="321.46" gradientUnits="userSpaceOnUse">
            <stop stop-color="#4D8EFF"/>
            <stop offset=".428" stop-color="#3F76FF"/>
            <stop offset="1" stop-color="#2850FF"/>
        </linearGradient>
        <linearGradient id="vaas9n41uu" x1="936.142" y1="309.805" x2="930.908" y2="310.236" gradientUnits="userSpaceOnUse">
            <stop stop-color="#FC9512"/>
            <stop offset=".007" stop-color="#FC9612"/>
            <stop offset=".68" stop-color="#FED319"/>
            <stop offset="1" stop-color="#FFEB1C"/>
        </linearGradient>
        <linearGradient id="rfsesubm2v" x1="1239.9" y1="141.684" x2="1234.66" y2="142.115" gradientUnits="userSpaceOnUse">
            <stop stop-color="#FC9512"/>
            <stop offset=".007" stop-color="#FC9612"/>
            <stop offset=".68" stop-color="#FED319"/>
            <stop offset="1" stop-color="#FFEB1C"/>
        </linearGradient>
        <linearGradient id="mu6lyi2hew" x1=".431" y1="267.221" x2="4.684" y2="269.859" gradientUnits="userSpaceOnUse">
            <stop stop-color="#FC9512"/>
            <stop offset=".007" stop-color="#FC9612"/>
            <stop offset=".68" stop-color="#FED319"/>
            <stop offset="1" stop-color="#FFEB1C"/>
        </linearGradient>
        <linearGradient id="9vfos4igjx" x1="162.041" y1="275.05" x2="158.138" y2="273.314" gradientUnits="userSpaceOnUse">
            <stop stop-color="#FC9512"/>
            <stop offset=".007" stop-color="#FC9612"/>
            <stop offset=".68" stop-color="#FED319"/>
            <stop offset="1" stop-color="#FFEB1C"/>
        </linearGradient>
        <linearGradient id="eosdurlvky" x1="1082.71" y1="51.041" x2="1078.39" y2="45.586" gradientUnits="userSpaceOnUse">
            <stop stop-color="#FC9512"/>
            <stop offset=".007" stop-color="#FC9612"/>
            <stop offset=".68" stop-color="#FED319"/>
            <stop offset="1" stop-color="#FFEB1C"/>
        </linearGradient>
        <linearGradient id="6yul3k3inz" x1="276.983" y1="335.825" x2="274.737" y2="334.117" gradientUnits="userSpaceOnUse">
            <stop stop-color="#FC9512"/>
            <stop offset=".007" stop-color="#FC9612"/>
            <stop offset=".68" stop-color="#FED319"/>
            <stop offset="1" stop-color="#FFEB1C"/>
        </linearGradient>
        <linearGradient id="2do0ogbcuA" x1="884.425" y1="334.511" x2="885.358" y2="337.109" gradientUnits="userSpaceOnUse">
            <stop stop-color="#FC9512"/>
            <stop offset=".007" stop-color="#FC9612"/>
            <stop offset=".68" stop-color="#FED319"/>
            <stop offset="1" stop-color="#FFEB1C"/>
        </linearGradient>
        <linearGradient id="ouesas3k9B" x1="326.357" y1="356.135" x2="326.215" y2="352.466" gradientUnits="userSpaceOnUse">
            <stop stop-color="#FC9512"/>
            <stop offset=".007" stop-color="#FC9612"/>
            <stop offset=".68" stop-color="#FED319"/>
            <stop offset="1" stop-color="#FFEB1C"/>
        </linearGradient>
        <linearGradient id="dvmnvhys8C" x1="765.941" y1="313.609" x2="762.657" y2="308.188" gradientUnits="userSpaceOnUse">
            <stop stop-color="#FC9512"/>
            <stop offset=".007" stop-color="#FC9612"/>
            <stop offset=".68" stop-color="#FED319"/>
            <stop offset="1" stop-color="#FFEB1C"/>
        </linearGradient>
        <linearGradient id="zfi7vjkh9D" x1="718.829" y1="383.305" x2="718.153" y2="388.638" gradientUnits="userSpaceOnUse">
            <stop stop-color="#FC9512"/>
            <stop offset=".007" stop-color="#FC9612"/>
            <stop offset=".68" stop-color="#FED319"/>
            <stop offset="1" stop-color="#FFEB1C"/>
        </linearGradient>
        <linearGradient id="915kuw6u9E" x1="10.079" y1="226.406" x2="16.859" y2="226.239" gradientUnits="userSpaceOnUse">
            <stop stop-color="#FC9512"/>
            <stop offset=".007" stop-color="#FC9612"/>
            <stop offset=".68" stop-color="#FED319"/>
            <stop offset="1" stop-color="#FFEB1C"/>
        </linearGradient>
        <linearGradient id="zbly75kj5F" x1="508.717" y1="151.964" x2="505.551" y2="156.921" gradientUnits="userSpaceOnUse">
            <stop stop-color="#FC9512"/>
            <stop offset=".007" stop-color="#FC9612"/>
            <stop offset=".68" stop-color="#FED319"/>
            <stop offset="1" stop-color="#FFEB1C"/>
        </linearGradient>
        <linearGradient id="2bctz80obG" x1="868.717" y1="147.765" x2="865.551" y2="152.722" gradientUnits="userSpaceOnUse">
            <stop stop-color="#FC9512"/>
            <stop offset=".007" stop-color="#FC9612"/>
            <stop offset=".68" stop-color="#FED319"/>
            <stop offset="1" stop-color="#FFEB1C"/>
        </linearGradient>
        <linearGradient id="489ek0u17H" x1="627.726" y1="362.802" x2="632.771" y2="360.718" gradientUnits="userSpaceOnUse">
            <stop stop-color="#FC9512"/>
            <stop offset=".007" stop-color="#FC9612"/>
            <stop offset=".68" stop-color="#FED319"/>
            <stop offset="1" stop-color="#FFEB1C"/>
        </linearGradient>
        <linearGradient id="net132nfqI" x1="1189.72" y1="243.52" x2="1194.77" y2="241.437" gradientUnits="userSpaceOnUse">
            <stop stop-color="#FC9512"/>
            <stop offset=".007" stop-color="#FC9612"/>
            <stop offset=".68" stop-color="#FED319"/>
            <stop offset="1" stop-color="#FFEB1C"/>
        </linearGradient>
        <linearGradient id="jrkm60t9kJ" x1="439.192" y1="35.511" x2="443.272" y2="30.458" gradientUnits="userSpaceOnUse">
            <stop stop-color="#FC9512"/>
            <stop offset=".007" stop-color="#FC9612"/>
            <stop offset=".68" stop-color="#FED319"/>
            <stop offset="1" stop-color="#FFEB1C"/>
        </linearGradient>
        <linearGradient id="s6dpiy3qhK" x1="276.31" y1="4.409" x2="276.377" y2="-.235" gradientUnits="userSpaceOnUse">
            <stop stop-color="#FF3EB9"/>
            <stop offset=".043" stop-color="#FF44BC"/>
            <stop offset=".701" stop-color="#FF98E3"/>
            <stop offset="1" stop-color="#FFB9F2"/>
        </linearGradient>
        <linearGradient id="hz46jy7udL" x1="830.221" y1="283.506" x2="824.808" y2="282.731" gradientUnits="userSpaceOnUse">
            <stop stop-color="#FF3EB9"/>
            <stop offset=".043" stop-color="#FF44BC"/>
            <stop offset=".701" stop-color="#FF98E3"/>
            <stop offset="1" stop-color="#FFB9F2"/>
        </linearGradient>
        <linearGradient id="4ytzpze53M" x1="1162.46" y1="318.543" x2="1157.05" y2="317.767" gradientUnits="userSpaceOnUse">
            <stop stop-color="#FF3EB9"/>
            <stop offset=".043" stop-color="#FF44BC"/>
            <stop offset=".701" stop-color="#FF98E3"/>
            <stop offset="1" stop-color="#FFB9F2"/>
        </linearGradient>
        <linearGradient id="69elda659N" x1="1088.45" y1="348.395" x2="1082.16" y2="351.724" gradientUnits="userSpaceOnUse">
            <stop stop-color="#FF3EB9"/>
            <stop offset=".043" stop-color="#FF44BC"/>
            <stop offset=".701" stop-color="#FF98E3"/>
            <stop offset="1" stop-color="#FFB9F2"/>
        </linearGradient>
        <linearGradient id="3ab8yz5l7O" x1="235.449" y1="333.697" x2="229.161" y2="337.025" gradientUnits="userSpaceOnUse">
            <stop stop-color="#FF3EB9"/>
            <stop offset=".043" stop-color="#FF44BC"/>
            <stop offset=".701" stop-color="#FF98E3"/>
            <stop offset="1" stop-color="#FFB9F2"/>
        </linearGradient>
        <linearGradient id="af801v4udP" x1="14.449" y1="122.672" x2="8.161" y2="126.001" gradientUnits="userSpaceOnUse">
            <stop stop-color="#FF3EB9"/>
            <stop offset=".043" stop-color="#FF44BC"/>
            <stop offset=".701" stop-color="#FF98E3"/>
            <stop offset="1" stop-color="#FFB9F2"/>
        </linearGradient>
        <linearGradient id="b0od1qycsQ" x1="1216.45" y1="378.842" x2="1210.16" y2="382.17" gradientUnits="userSpaceOnUse">
            <stop stop-color="#FF3EB9"/>
            <stop offset=".043" stop-color="#FF44BC"/>
            <stop offset=".701" stop-color="#FF98E3"/>
            <stop offset="1" stop-color="#FFB9F2"/>
        </linearGradient>
        <linearGradient id="ijqtkfxj9R" x1="48.037" y1="381.742" x2="44.483" y2="383.632" gradientUnits="userSpaceOnUse">
            <stop stop-color="#FF3EB9"/>
            <stop offset=".043" stop-color="#FF44BC"/>
            <stop offset=".701" stop-color="#FF98E3"/>
            <stop offset="1" stop-color="#FFB9F2"/>
        </linearGradient>
        <linearGradient id="c7imz65hmS" x1="677.199" y1="324.207" x2="680.157" y2="325.083" gradientUnits="userSpaceOnUse">
            <stop stop-color="#FF3EB9"/>
            <stop offset=".043" stop-color="#FF44BC"/>
            <stop offset=".701" stop-color="#FF98E3"/>
            <stop offset="1" stop-color="#FFB9F2"/>
        </linearGradient>
        <linearGradient id="ppq58l04jT" x1="562.55" y1="5.48" x2="566.578" y2="10.155" gradientUnits="userSpaceOnUse">
            <stop stop-color="#FF3EB9"/>
            <stop offset=".043" stop-color="#FF44BC"/>
            <stop offset=".701" stop-color="#FF98E3"/>
            <stop offset="1" stop-color="#FFB9F2"/>
        </linearGradient>
        <linearGradient id="k37pfg5daU" x1="932.252" y1="379.06" x2="936.511" y2="381.648" gradientUnits="userSpaceOnUse">
            <stop stop-color="#FF3EB9"/>
            <stop offset=".043" stop-color="#FF44BC"/>
            <stop offset=".701" stop-color="#FF98E3"/>
            <stop offset="1" stop-color="#FFB9F2"/>
        </linearGradient>
        <linearGradient id="hn1ewqcodV" x1="1233.32" y1="351.077" x2="1237.58" y2="353.665" gradientUnits="userSpaceOnUse">
            <stop stop-color="#FF3EB9"/>
            <stop offset=".043" stop-color="#FF44BC"/>
            <stop offset=".701" stop-color="#FF98E3"/>
            <stop offset="1" stop-color="#FFB9F2"/>
        </linearGradient>
        <linearGradient id="ygoqybjggW" x1="64.639" y1="284.611" x2="64.751" y2="275.938" gradientUnits="userSpaceOnUse">
            <stop stop-color="#FF3EB9"/>
            <stop offset=".043" stop-color="#FF44BC"/>
            <stop offset=".701" stop-color="#FF98E3"/>
            <stop offset="1" stop-color="#FFB9F2"/>
        </linearGradient>
        <linearGradient id="9p09bacdoX" x1="276.831" y1="97.337" x2="281.863" y2="99.134" gradientUnits="userSpaceOnUse">
            <stop stop-color="#FF3EB9"/>
            <stop offset=".043" stop-color="#FF44BC"/>
            <stop offset=".701" stop-color="#FF98E3"/>
            <stop offset="1" stop-color="#FFB9F2"/>
        </linearGradient>
        <linearGradient id="8fwucj5riY" x1="1192.25" y1="300.563" x2="1185.72" y2="294.426" gradientUnits="userSpaceOnUse">
            <stop stop-color="#00EE98"/>
            <stop offset=".28" stop-color="#00D685"/>
            <stop offset=".868" stop-color="#095"/>
            <stop offset="1" stop-color="#008A49"/>
        </linearGradient>
        <linearGradient id="ujr6o3xudZ" x1="523.706" y1="54.088" x2="524.485" y2="59.54" gradientUnits="userSpaceOnUse">
            <stop stop-color="#00EE98"/>
            <stop offset=".28" stop-color="#00D685"/>
            <stop offset=".868" stop-color="#095"/>
            <stop offset="1" stop-color="#008A49"/>
        </linearGradient>
        <linearGradient id="0zw1frry2aa" x1="1230.52" y1="287.609" x2="1226.71" y2="286.943" gradientUnits="userSpaceOnUse">
            <stop stop-color="#00EE98"/>
            <stop offset=".28" stop-color="#00D685"/>
            <stop offset=".868" stop-color="#095"/>
            <stop offset="1" stop-color="#008A49"/>
        </linearGradient>
        <linearGradient id="5lf3eyje0ab" x1="161.536" y1="368.775" x2="159.885" y2="374.545" gradientUnits="userSpaceOnUse">
            <stop stop-color="#00EE98"/>
            <stop offset=".28" stop-color="#00D685"/>
            <stop offset=".868" stop-color="#095"/>
            <stop offset="1" stop-color="#008A49"/>
        </linearGradient>
        <linearGradient id="1o1u0f8o4ac" x1="673.664" y1="369.852" x2="669.377" y2="365.299" gradientUnits="userSpaceOnUse">
            <stop stop-color="#00EE98"/>
            <stop offset=".28" stop-color="#00D685"/>
            <stop offset=".868" stop-color="#095"/>
            <stop offset="1" stop-color="#008A49"/>
        </linearGradient>
        <linearGradient id="2uosjoxgzad" x1="568.551" y1="231.097" x2="564.66" y2="225.53" gradientUnits="userSpaceOnUse">
            <stop stop-color="#00EE98"/>
            <stop offset=".28" stop-color="#00D685"/>
            <stop offset=".868" stop-color="#095"/>
            <stop offset="1" stop-color="#008A49"/>
        </linearGradient>
        <linearGradient id="73bgubm76ae" x1="65.28" y1="100.41" x2="66.498" y2="105.471" gradientUnits="userSpaceOnUse">
            <stop stop-color="#00EE98"/>
            <stop offset=".28" stop-color="#00D685"/>
            <stop offset=".868" stop-color="#095"/>
            <stop offset="1" stop-color="#008A49"/>
        </linearGradient>
        <linearGradient id="u8x0w1akpaf" x1="408.46" y1="374.258" x2="406.186" y2="373.384" gradientUnits="userSpaceOnUse">
            <stop stop-color="#00EE98"/>
            <stop offset=".28" stop-color="#00D685"/>
            <stop offset=".868" stop-color="#095"/>
            <stop offset="1" stop-color="#008A49"/>
        </linearGradient>
        <linearGradient id="35yhystlvag" x1="738.714" y1="25.94" x2="738.997" y2="22.245" gradientUnits="userSpaceOnUse">
            <stop stop-color="#00EE98"/>
            <stop offset=".28" stop-color="#00D685"/>
            <stop offset=".868" stop-color="#095"/>
            <stop offset="1" stop-color="#008A49"/>
        </linearGradient>
        <linearGradient id="2xivm4jddah" x1="354.15" y1="297.405" x2="357.384" y2="301.137" gradientUnits="userSpaceOnUse">
            <stop stop-color="#00EE98"/>
            <stop offset=".28" stop-color="#00D685"/>
            <stop offset=".868" stop-color="#095"/>
            <stop offset="1" stop-color="#008A49"/>
        </linearGradient>
        <linearGradient id="kmzicv0p0ai" x1="118.716" y1="308.541" x2="116.468" y2="309.461" gradientUnits="userSpaceOnUse">
            <stop stop-color="#00EE98"/>
            <stop offset=".28" stop-color="#00D685"/>
            <stop offset=".868" stop-color="#095"/>
            <stop offset="1" stop-color="#008A49"/>
        </linearGradient>
        <linearGradient id="ndgo0k18aaj" x1="735.55" y1="322.192" x2="731.288" y2="320.277" gradientUnits="userSpaceOnUse">
            <stop stop-color="#00EE98"/>
            <stop offset=".28" stop-color="#00D685"/>
            <stop offset=".868" stop-color="#095"/>
            <stop offset="1" stop-color="#008A49"/>
        </linearGradient>
        <linearGradient id="e20p4pmedak" x1="1200.61" y1="415.561" x2="1196.35" y2="413.646" gradientUnits="userSpaceOnUse">
            <stop stop-color="#00EE98"/>
            <stop offset=".28" stop-color="#00D685"/>
            <stop offset=".868" stop-color="#095"/>
            <stop offset="1" stop-color="#008A49"/>
        </linearGradient>
        <linearGradient id="hg797dywkal" x1="95.781" y1="366.769" x2="92.912" y2="368.533" gradientUnits="userSpaceOnUse">
            <stop stop-color="#00EE98"/>
            <stop offset=".28" stop-color="#00D685"/>
            <stop offset=".868" stop-color="#095"/>
            <stop offset="1" stop-color="#008A49"/>
        </linearGradient>
        <linearGradient id="b99efznd7am" x1="934.784" y1="28.694" x2="933.163" y2="32.693" gradientUnits="userSpaceOnUse">
            <stop stop-color="#00EE98"/>
            <stop offset=".28" stop-color="#00D685"/>
            <stop offset=".868" stop-color="#095"/>
            <stop offset="1" stop-color="#008A49"/>
        </linearGradient>
        <linearGradient id="sjedyjpvpan" x1="654.068" y1="31.634" x2="655.311" y2="28.425" gradientUnits="userSpaceOnUse">
            <stop stop-color="#00EE98"/>
            <stop offset=".28" stop-color="#00D685"/>
            <stop offset=".868" stop-color="#095"/>
            <stop offset="1" stop-color="#008A49"/>
        </linearGradient>
        <linearGradient id="2yit7wh1zao" x1="1036.07" y1="346.596" x2="1037.31" y2="343.387" gradientUnits="userSpaceOnUse">
            <stop stop-color="#00EE98"/>
            <stop offset=".28" stop-color="#00D685"/>
            <stop offset=".868" stop-color="#095"/>
            <stop offset="1" stop-color="#008A49"/>
        </linearGradient>
        <linearGradient id="fu14kg2shap" x1="787.779" y1="163.422" x2="782.586" y2="168.45" gradientUnits="userSpaceOnUse">
            <stop stop-color="#00EE98"/>
            <stop offset=".28" stop-color="#00D685"/>
            <stop offset=".868" stop-color="#095"/>
            <stop offset="1" stop-color="#008A49"/>
        </linearGradient>
    </defs>
</svg>
