<svg width="20" height="20" viewBox="0 0 20 20" fill="none" xmlns="http://www.w3.org/2000/svg">
    <path fill-rule="evenodd" clip-rule="evenodd" d="m13.357 17.462-.432-.745c-.428-.747-.814-1.43-1.096-1.938H3.692A1.187 1.187 0 0 1 2.5 13.592V4.479c0-.657.534-1.192 1.192-1.192h12.613c.66 0 1.195.535 1.195 1.197v9.109c0 .659-.534 1.186-1.195 1.186h-1.432c-.506.903-1.123 1.984-1.123 1.984l-.393.7zM3.692 4.21a.276.276 0 0 0-.28.275v9.109c0 .15.123.273.28.273h8.673l.132.235c.255.45.58 1.02.852 1.504.253-.44.579-1.02.858-1.51l.132-.229h1.966a.283.283 0 0 0 .284-.273V4.479c0-.148-.132-.27-.284-.27H3.692z" fill="#25282B" stroke="#25282B" stroke-width=".318"/>
    <path fill-rule="evenodd" clip-rule="evenodd" d="M9.124 11.424c0-.524.36-.884.86-.884.525 0 .868.36.878.884 0 .51-.343.89-.879.89-.51-.001-.859-.376-.859-.89zm.255-1.35-.01-.254c-.036-.494.132-1 .57-1.51.308-.386.563-.702.563-1.025 0-.335-.219-.573-.711-.582-.318 0-.711.117-.958.293L8.5 5.931c.36-.203.932-.394 1.623-.394 1.283 0 1.88.711 1.88 1.52 0 .734-.475 1.218-.844 1.631-.349.396-.502.77-.49 1.21v.177h-1.29z" fill="#F36"/>
</svg>
