<svg width="126" height="60" viewBox="0 0 126 60" fill="none" xmlns="http://www.w3.org/2000/svg">
    <path d="M9.843 12.54c-1.42 0-2.59.468-3.511 1.401-.921.934-1.433 2.169-1.535 3.704h9.881c-.05-1.561-.511-2.802-1.381-3.723-.87-.92-2.021-1.381-3.454-1.381zM14.717 24.4h4.509c-.448 1.918-1.503 3.434-3.166 4.547-1.65 1.1-3.703 1.65-6.16 1.65-3.082 0-5.506-.96-7.271-2.878C.876 25.787 0 23.132 0 19.755s.883-6.05 2.648-8.02C4.413 9.752 6.818 8.76 9.862 8.76c2.994 0 5.335.94 7.023 2.82 1.701 1.868 2.552 4.458 2.552 7.771v1.535H4.777v.25c.065 1.752.564 3.14 1.497 4.163.947 1.011 2.2 1.516 3.761 1.516 2.405 0 3.966-.806 4.682-2.417zM29.395 24.245c.909 1.164 2.188 1.746 3.838 1.746s2.948-.588 3.895-1.765c.947-1.177 1.42-2.77 1.42-4.778 0-2.008-.473-3.6-1.42-4.777-.947-1.19-2.245-1.785-3.895-1.785-1.637 0-2.917.589-3.838 1.765-.908 1.177-1.362 2.776-1.362 4.797s.454 3.62 1.362 4.797zm3.838 13.911c-2.673 0-4.848-.544-6.524-1.63-1.663-1.088-2.59-2.54-2.782-4.356h4.778c.153.729.633 1.304 1.439 1.727.818.422 1.874.633 3.166.633 1.624 0 2.89-.365 3.799-1.094.908-.73 1.362-1.752 1.362-3.07v-3.972h-.326a6.198 6.198 0 0 1-2.571 2.59c-1.1.589-2.38.883-3.838.883-2.635 0-4.726-.94-6.274-2.82-1.548-1.894-2.322-4.426-2.322-7.599 0-3.223.78-5.794 2.341-7.713 1.56-1.932 3.671-2.897 6.332-2.897 1.433 0 2.731.332 3.895.997 1.164.665 2.034 1.567 2.61 2.706h.326V9.183h4.586V30.25c0 2.43-.902 4.355-2.706 5.775-1.803 1.42-4.234 2.13-7.291 2.13zM49.082 30.174V9.183h4.586v3.358h.326c.512-1.203 1.292-2.13 2.34-2.782 1.063-.666 2.36-.998 3.896-.998 2.328 0 4.112.678 5.353 2.034 1.254 1.356 1.88 3.287 1.88 5.794v13.585h-4.758V17.721c0-3.21-1.413-4.816-4.24-4.816-1.42 0-2.546.454-3.377 1.363-.832.908-1.248 2.136-1.248 3.684v12.222h-4.758zM73.162 30.174V9.183h4.74v20.991h-4.74zM85.347 30.174V13.116h-3.435V9.317h3.434V7.111c0-2.098.55-3.665 1.65-4.701C88.11 1.374 89.825.855 92.14.855c.96 0 1.842.07 2.648.212v3.492c-.422-.064-.966-.096-1.631-.096-1.1 0-1.9.243-2.399.729-.486.473-.729 1.215-.729 2.226v1.9h4.567v3.798h-4.51v17.058h-4.738zM101.502 37.792c-.985 0-1.611-.026-1.88-.077V33.82c.243.05.678.077 1.305.077 1.01 0 1.81-.212 2.398-.634.601-.422 1.056-1.112 1.363-2.072l.249-.92-7.502-21.088h5.219l4.912 16.386h.326l4.893-16.386h5.027l-7.579 21.663c-.883 2.596-1.97 4.4-3.262 5.41-1.279 1.024-3.102 1.536-5.469 1.536z" fill="#25282B"/>
    <circle cx="75.659" cy="3.158" r="3.158" fill="#F36"/>
    <path d="m35.992 54.114 1.574-7.409h1.254l-1.574 7.41h-1.254zm3.177-8.884a.748.748 0 0 1-.548.228.748.748 0 0 1-.549-.228.748.748 0 0 1-.228-.548c0-.214.076-.397.228-.549a.748.748 0 0 1 .549-.228c.213 0 .396.076.548.228a.748.748 0 0 1 .228.549.748.748 0 0 1-.228.548zm-.27 8.884 1.574-7.409h1.183l-.243 1.154h.029c.252-.404.582-.717.99-.94.409-.228.877-.342 1.404-.342.665 0 1.223.206 1.674.62.451.413.677.933.677 1.56a4.5 4.5 0 0 1-.1.905l-.948 4.452h-1.246l.904-4.239c.062-.29.093-.546.093-.77 0-.44-.142-.79-.427-1.046-.285-.257-.668-.385-1.147-.385a2.06 2.06 0 0 0-1.418.541c-.404.361-.672.846-.805 1.454l-.948 4.445H38.9zm10.714 2.793c-.855 0-1.57-.207-2.144-.62-.575-.408-.862-.928-.862-1.56h1.275c.053.342.233.615.542.82.313.204.71.306 1.19.306 1.287 0 2.101-.701 2.443-2.102l.228-.94h-.028a2.592 2.592 0 0 1-.99.94 2.68 2.68 0 0 1-1.34.363c-.84 0-1.515-.285-2.023-.855-.509-.574-.763-1.341-.763-2.3 0-.552.081-1.086.242-1.604.167-.517.402-.983.706-1.396a3.358 3.358 0 0 1 1.175-1.005 3.367 3.367 0 0 1 1.589-.377c.584 0 1.09.161 1.517.484.433.323.715.732.848 1.226h.036l.313-1.582h1.219l-1.482 7.025c-.219 1.04-.653 1.828-1.304 2.365-.646.541-1.441.812-2.387.812zm.592-3.883a2.2 2.2 0 0 0 1.368-.449c.398-.303.698-.7.897-1.19a4.229 4.229 0 0 0 .307-1.63c0-.604-.183-1.1-.549-1.49a1.759 1.759 0 0 0-1.354-.591c-.745 0-1.348.309-1.81.926-.455.617-.683 1.394-.683 2.33 0 .636.157 1.144.47 1.524.318.38.77.57 1.354.57z" fill="#F36"/>
    <path d="m58.32 54.114 1.574-7.409h1.182l-.249 1.19h.029c.19-.37.48-.682.869-.934.39-.256.812-.384 1.268-.384.503 0 .93.133 1.282.399.356.261.58.57.67.926h.021c.266-.38.603-.696 1.012-.948.413-.251.895-.377 1.446-.377.603 0 1.102.19 1.496.57.399.375.599.857.599 1.446 0 .275-.031.558-.093.848l-.99 4.673h-1.247l.947-4.46c.057-.26.086-.498.086-.712 0-.36-.116-.663-.35-.905-.232-.242-.545-.363-.94-.363-.441 0-.847.164-1.218.492-.37.323-.612.755-.727 1.296l-.99 4.652h-1.246l.947-4.46c.062-.285.093-.522.093-.712 0-.36-.117-.663-.35-.905-.232-.242-.548-.363-.947-.363-.432 0-.838.169-1.218.506-.375.337-.615.76-.72 1.268l-.99 4.666h-1.247zm14.476-.926c.532 0 1.002-.154 1.41-.463a2.03 2.03 0 0 0 .784-1.211l.185-.827-2.023.107c-.556.029-.988.152-1.297.37a1.04 1.04 0 0 0-.456.891c0 .342.129.618.385.827.256.204.594.306 1.012.306zm-.328 1.054c-.65 0-1.202-.192-1.653-.577a1.88 1.88 0 0 1-.67-1.481c0-.718.264-1.278.791-1.682.527-.408 1.27-.639 2.23-.69l2.216-.115.1-.463c.019-.08.028-.202.028-.363 0-.375-.128-.67-.385-.884-.256-.213-.62-.32-1.09-.32-.489 0-.883.11-1.182.328-.3.213-.487.503-.563.869h-1.297a2.52 2.52 0 0 1 1.019-1.653c.565-.423 1.273-.634 2.123-.634.788 0 1.422.197 1.902.591.48.39.72.898.72 1.525 0 .218-.017.427-.05.627l-1.019 4.794h-1.19l.193-.904h-.022a2.712 2.712 0 0 1-.961.762c-.38.18-.794.27-1.24.27zm7.98 0c-.846 0-1.518-.29-2.017-.869-.494-.584-.741-1.358-.741-2.322 0-.84.162-1.603.484-2.287.328-.684.775-1.218 1.34-1.603.57-.39 1.2-.584 1.888-.584.58 0 1.09.159 1.531.477.447.318.73.71.848 1.176h.036l.947-4.396h1.24l-2.187 10.28H82.57l.25-1.182h-.029c-.228.38-.558.693-.99.94-.428.247-.879.37-1.354.37zm.284-1.09c.746 0 1.363-.322 1.852-.968.494-.646.741-1.456.741-2.43 0-.617-.173-1.118-.52-1.503-.347-.385-.81-.577-1.389-.577-.712 0-1.306.311-1.781.933-.47.622-.705 1.418-.705 2.387 0 .67.159 1.197.477 1.581.318.385.76.578 1.325.578zm6.583-3.44h3.968c.005-.043.007-.11.007-.2 0-.518-.145-.955-.434-1.31-.29-.362-.727-.542-1.311-.542-.556 0-1.029.19-1.418.57-.385.38-.655.874-.812 1.482zm1.624 4.545c-.978 0-1.731-.3-2.258-.898-.527-.603-.791-1.392-.791-2.365 0-.808.154-1.546.463-2.216.309-.674.743-1.209 1.304-1.603a3.22 3.22 0 0 1 1.902-.598c.921 0 1.65.28 2.187.84.537.56.805 1.323.805 2.287 0 .39-.021.722-.064.998h-5.329a3.397 3.397 0 0 0-.007.256c0 .68.162 1.218.484 1.617.328.395.767.592 1.318.592.485 0 .903-.119 1.254-.357a2.13 2.13 0 0 0 .784-.976h1.218c-.195.699-.594 1.278-1.197 1.739a3.346 3.346 0 0 1-2.073.684zm9.447-4.545h3.968c.005-.043.007-.11.007-.2 0-.518-.145-.955-.434-1.31-.29-.362-.727-.542-1.311-.542-.556 0-1.028.19-1.418.57-.385.38-.655.874-.812 1.482zm1.624 4.545c-.978 0-1.731-.3-2.258-.898-.527-.603-.791-1.392-.791-2.365 0-.808.154-1.546.463-2.216.309-.674.743-1.209 1.304-1.603a3.22 3.22 0 0 1 1.902-.598c.921 0 1.65.28 2.187.84.537.56.805 1.323.805 2.287 0 .39-.021.722-.064.998h-5.329a3.333 3.333 0 0 0-.007.256c0 .68.162 1.218.485 1.617.327.395.767.592 1.317.592.485 0 .903-.119 1.254-.357.352-.237.613-.562.784-.976h1.218c-.194.699-.593 1.278-1.197 1.739a3.345 3.345 0 0 1-2.073.684zm6.882-1.069c.532 0 1.002-.154 1.411-.463.413-.313.674-.717.783-1.211l.186-.827-2.024.107c-.555.029-.987.152-1.296.37a1.04 1.04 0 0 0-.456.891c0 .342.128.618.385.827.256.204.593.306 1.011.306zm-.327 1.054c-.651 0-1.202-.192-1.653-.577a1.88 1.88 0 0 1-.67-1.481c0-.718.264-1.278.791-1.682.527-.408 1.27-.639 2.23-.69l2.215-.115.1-.463c.019-.08.029-.202.029-.363 0-.375-.129-.67-.385-.884-.257-.213-.62-.32-1.09-.32-.489 0-.884.11-1.183.328a1.376 1.376 0 0 0-.563.869h-1.296c.114-.68.453-1.23 1.019-1.653.565-.423 1.272-.634 2.123-.634.788 0 1.422.197 1.902.591.479.39.719.898.719 1.525 0 .218-.016.427-.05.627l-1.018 4.794h-1.19l.192-.904h-.021a2.715 2.715 0 0 1-.962.762c-.38.18-.793.27-1.239.27zm5.727-5.457c0-.64.254-1.168.763-1.581.513-.413 1.175-.62 1.987-.62.798 0 1.449.211 1.952.634.509.418.767.96.777 1.624h-1.183a1.252 1.252 0 0 0-.484-.897c-.29-.233-.648-.35-1.076-.35-.461 0-.829.103-1.104.307-.276.2-.413.456-.413.77 0 .26.09.472.27.633.186.162.511.314.976.456l.642.2c.66.204 1.137.46 1.432.77.294.308.441.707.441 1.196 0 .665-.273 1.218-.819 1.66-.542.437-1.225.655-2.052.655-.864 0-1.57-.216-2.116-.648-.541-.432-.824-.98-.848-1.645h1.24c.057.384.242.693.556.926.313.232.722.349 1.225.349.447 0 .819-.119 1.119-.356.299-.238.448-.528.448-.87 0-.237-.08-.422-.242-.555-.161-.133-.477-.273-.947-.42l-.641-.2c-.675-.21-1.162-.473-1.461-.79-.294-.324-.442-.74-.442-1.248zm5.8 8.03c-.319 0-.599-.041-.841-.122l.185-1.033c.185.076.409.114.67.114.579 0 1.073-.406 1.482-1.218l.242-.484-1.211-7.367h1.225l.891 6.041h.021l3.22-6.04h1.368l-4.631 8.22c-.408.722-.812 1.216-1.211 1.482-.399.271-.869.406-1.41.406z" fill="#25282B"/>
    <path d="M4.363 45.273c-.39 0-.691-.108-.905-.322a1.15 1.15 0 0 1-.306-.802c0-.078.01-.17.029-.277.029-.107.063-.2.102-.277.126.058.311.102.554.13.253.02.545.03.876.03.496 0 1.055-.02 1.678-.058a233.968 233.968 0 0 0 3.326-.278c.438-.048.72-.072.846-.072.36 0 .618.136.774.408.165.263.287.618.364 1.065-.252-.02-.505-.034-.758-.044a8.01 8.01 0 0 0-.628-.029 15.64 15.64 0 0 0-1.896.117 23.44 23.44 0 0 0-.453 1.007c-.165.379-.33.778-.496 1.196-.155.418-.306.837-.452 1.255a69.607 69.607 0 0 0-.948 2.889 83.902 83.902 0 0 0-.424 1.532 31.928 31.928 0 0 0-.54 2.597c-.651-.097-1.196-.506-1.633-1.226.077-.301.17-.627.277-.977.116-.36.248-.764.394-1.211.155-.458.335-.973.54-1.547a582.484 582.484 0 0 1 1.006-2.801c.107-.302.21-.599.307-.89.107-.292.2-.574.277-.846.087-.273.16-.52.219-.745-.409.049-.798.093-1.168.132-.36.029-.68.044-.962.044zm9.2 2.8c-.039.604-.146 1.124-.32 1.562a3.435 3.435 0 0 1-.76 1.138c-.32.321-.714.613-1.181.875a12.99 12.99 0 0 1-1.634.76c0 .057-.005.12-.015.189v.19c0 .126.01.257.03.394.019.136.053.262.101.379a.79.79 0 0 0 .205.292.53.53 0 0 0 .335.102c.263 0 .52-.059.774-.175.252-.117.49-.258.714-.423.234-.175.448-.36.643-.555.204-.204.384-.389.54-.554.097.087.18.17.247.248a7.09 7.09 0 0 1-1.444 1.459c-.516.38-1.007.622-1.474.73-.67-.078-1.196-.322-1.575-.73a2.192 2.192 0 0 1-.555-1.503c0-.399.054-.803.16-1.211.117-.418.273-.817.468-1.197.204-.389.437-.753.7-1.094.272-.34.56-.637.86-.89.312-.253.628-.452.95-.598.33-.146.656-.219.977-.219.447.059.865.336 1.254.832zm-1.006.482a2.162 2.162 0 0 0-.817.321c-.283.175-.55.409-.803.7a5.796 5.796 0 0 0-.671 1.022 5.881 5.881 0 0 0-.482 1.255c.779-.39 1.425-.866 1.941-1.43.516-.574.793-1.197.832-1.868zm6.716-.335c.097 0 .209.02.335.058.136.03.258.073.365.131a1.1 1.1 0 0 1 .262.16c.078.06.117.113.117.161a19.88 19.88 0 0 0-.54 1.24c-.165.41-.306.803-.423 1.182a11.6 11.6 0 0 0-.277 1.066c-.058.33-.087.617-.087.86 0 .273.029.501.087.686a.652.652 0 0 0 .292.38 1.504 1.504 0 0 1-.452.19c-.185.048-.35.072-.497.072-.525 0-.787-.36-.787-1.08 0-.554.184-1.313.554-2.276-.195.448-.418.87-.671 1.27-.253.389-.51.734-.773 1.036a4.7 4.7 0 0 1-.803.744c-.262.184-.506.296-.73.335-.36-.02-.651-.19-.875-.51-.223-.331-.335-.75-.335-1.255 0-.545.116-1.119.35-1.722.233-.603.53-1.162.89-1.678.37-.515.768-.943 1.196-1.284.428-.35.842-.535 1.24-.554.098.029.205.087.321.175.127.087.244.19.35.306.117.117.215.239.292.365a.724.724 0 0 1 .132.306c-.39.059-.793.248-1.211.57-.409.32-.783.71-1.124 1.167-.33.447-.603.929-.817 1.444-.214.516-.32.997-.32 1.445 0 .184.067.301.203.35.282-.059.608-.297.978-.715.37-.428.817-1.085 1.342-1.97.098-.175.205-.37.321-.583a23.914 23.914 0 0 0 .744-1.372c.127-.243.244-.477.35-.7zm1.793 3.326c0-.554.112-1.09.335-1.605a5.02 5.02 0 0 1 .905-1.386c.38-.408.807-.734 1.284-.977.486-.253.987-.38 1.503-.38.506 0 .895.127 1.167.38s.409.612.409 1.08c0 .223-.034.442-.102.656-.059.204-.142.39-.248.554a1.44 1.44 0 0 1-.35.409.7.7 0 0 1-.41.146.77.77 0 0 1-.364-.102 1.04 1.04 0 0 1-.292-.292c.652-.593.978-1.133.978-1.62 0-.282-.112-.423-.336-.423-.194 0-.438.093-.73.278a4.13 4.13 0 0 0-.846.729 5.1 5.1 0 0 0-.963 1.561 4.977 4.977 0 0 0-.32 1.78c0 .788.175 1.26.525 1.415.146-.019.316-.063.51-.13.195-.069.404-.156.628-.263.224-.117.452-.248.686-.394a8.74 8.74 0 0 0 .7-.467c.039.029.073.073.102.131.03.058.044.112.044.16a5.428 5.428 0 0 1-.57.599 7.091 7.091 0 0 1-.67.54 5.59 5.59 0 0 1-.686.394c-.214.116-.404.19-.57.218a2.046 2.046 0 0 1-.904-.306 2.643 2.643 0 0 1-.744-.657 3.559 3.559 0 0 1-.496-.933 3.438 3.438 0 0 1-.175-1.095zm6.025 2.32c0-.34.034-.739.102-1.196.068-.467.165-.963.292-1.488.136-.526.291-1.075.466-1.65.185-.573.39-1.147.613-1.72a19.34 19.34 0 0 1 .671-1.562 23.86 23.86 0 0 1 1.78-2.991c.331-.457.662-.875.993-1.255a2.996 2.996 0 0 1 1.021.219c.175.058.33.131.467.219.146.087.262.175.35.263a24.537 24.537 0 0 0-1.97 2.276c-.583.758-1.045 1.473-1.386 2.144-.185.37-.355.715-.51 1.036-.146.321-.282.642-.409.963-.126.312-.243.628-.35.949-.097.311-.19.642-.277.992 1.867-2.383 3.253-3.575 4.158-3.575.253 0 .525.083.817.248.292.166.55.39.773.671-.301.331-.612.73-.934 1.197-.32.467-.617.938-.89 1.415-.262.467-.481.905-.656 1.313-.166.399-.248.696-.248.89 0 .098.014.166.044.205.029.029.092.043.19.043.145 0 .262-.02.35-.058a.648.648 0 0 1 .16-.058.96.96 0 0 1 .087.16.24.24 0 0 1 .015.073c0 .039-.058.097-.175.175a5.489 5.489 0 0 1-.423.219 9.326 9.326 0 0 1-.467.19 1.118 1.118 0 0 1-.35.087.563.563 0 0 1-.292-.087.872.872 0 0 1-.263-.205 1.451 1.451 0 0 1-.175-.292.974.974 0 0 1-.058-.335c0-.146.039-.36.117-.642.087-.292.204-.627.35-1.007.146-.389.32-.812.525-1.27.204-.456.423-.923.657-1.4 0-.039-.02-.058-.059-.058-.029 0-.107.039-.233.117a10.05 10.05 0 0 0-.336.233 8.04 8.04 0 0 0-1.065.978c-.35.379-.695.797-1.036 1.254-.33.458-.647.944-.948 1.46a13.173 13.173 0 0 0-.759 1.531.608.608 0 0 1-.131.19c-.058.058-.107.088-.146.088-.03 0-.073-.034-.131-.102a1.593 1.593 0 0 1-.146-.263 10.27 10.27 0 0 1-.117-.307.833.833 0 0 1-.058-.277z" fill="#F36"/>
</svg>
