<svg width="24" height="24" viewBox="0 0 24 24" fill="none" xmlns="http://www.w3.org/2000/svg">
    <path d="M15.973 12.297a3.765 3.765 0 0 0-3.761-3.76 3.765 3.765 0 0 0-3.76 3.76 3.765 3.765 0 0 0 3.76 3.76 3.765 3.765 0 0 0 3.76-3.76zm-6.41 0a2.652 2.652 0 0 1 2.649-2.649 2.652 2.652 0 0 1 2.649 2.649 2.652 2.652 0 0 1-2.65 2.648 2.652 2.652 0 0 1-2.648-2.648z" fill="#F36"/>
    <path d="M14.079 18.4c-.02 0-.038.002-.057.003l-.359-1.459a.555.555 0 1 0-1.08.266l.368 1.495a2.254 2.254 0 0 0-1.127 1.95 2.257 2.257 0 0 0 2.255 2.254 2.257 2.257 0 0 0 2.254-2.255A2.257 2.257 0 0 0 14.08 18.4zm0 3.397a1.143 1.143 0 0 1-.388-2.216.476.476 0 0 0 .136-.04 1.144 1.144 0 0 1 1.394 1.113c0 .63-.512 1.143-1.142 1.143zM20.746 10.957c-.974 0-1.804.622-2.118 1.489l-1.518-.152a.557.557 0 0 0-.111 1.106l1.521.153a2.256 2.256 0 0 0 2.226 1.913 2.257 2.257 0 0 0 2.255-2.255 2.257 2.257 0 0 0-2.255-2.254zm0 3.397a1.144 1.144 0 1 1 1.143-1.142c0 .63-.513 1.142-1.143 1.142zM14.604 8.72a.554.554 0 0 0 .763-.19l1.246-2.08c.162.038.33.06.502.06a2.257 2.257 0 0 0 2.255-2.255A2.257 2.257 0 0 0 17.115 2a2.257 2.257 0 0 0-2.254 2.255c0 .67.295 1.271.762 1.685l-1.21 2.018a.556.556 0 0 0 .191.763zm2.511-5.608a1.144 1.144 0 0 1 0 2.285 1.144 1.144 0 0 1 0-2.285zM9.18 9.246a.556.556 0 0 0-.046-.785l-.6-.533c.227-.351.36-.768.36-1.216a2.257 2.257 0 0 0-2.255-2.255 2.257 2.257 0 0 0-2.254 2.255A2.257 2.257 0 0 0 7.718 8.69l.676.602a.554.554 0 0 0 .785-.046zM5.496 6.712a1.144 1.144 0 0 1 2.285 0 1.144 1.144 0 0 1-2.285 0zM7.631 13.549l-2.361.566a2.255 2.255 0 0 0-2.015-1.25A2.257 2.257 0 0 0 1 15.12a2.257 2.257 0 0 0 2.255 2.254 2.255 2.255 0 0 0 2.25-2.172l2.386-.572a.556.556 0 0 0-.26-1.081zm-4.377 2.713c-.63 0-1.142-.512-1.142-1.142a1.144 1.144 0 0 1 2.285 0c0 .63-.513 1.142-1.143 1.142z" fill="#25282B"/>
</svg>
