<svg width="32" height="32" viewBox="0 0 32 32" fill="none" xmlns="http://www.w3.org/2000/svg">
    <path d="M32 16c0-8.847-7.153-16-16-16C7.153 0 0 7.153 0 16c0 8.847 7.153 16 16 16 8.847 0 16-7.153 16-16z" fill="#3D83D9"/>
    <path d="M12.078 12.1h-3.7v10.586h3.7V12.1zM10.229 6.797A1.855 1.855 0 0 0 8.424 9.07c.156.69.713 1.248 1.426 1.404a1.84 1.84 0 0 0 2.228-1.805c0-1.025-.824-1.872-1.85-1.872zM24.268 15.354c-.245-2.005-1.248-3.253-3.945-3.253-1.916 0-2.674.29-3.12 1.136v-1.136h-3.008v10.585h3.075v-5.55c0-1.38.268-2.428 1.984-2.428 1.693 0 1.827 1.292 1.827 2.518v5.46h3.187s.044-6.864 0-7.332z" fill="#fff"/>
</svg>
