<svg width="20" height="20" viewBox="0 0 20 20" fill="none" xmlns="http://www.w3.org/2000/svg">
    <path d="M15.9 4.39a.752.752 0 0 0-1.07 0 .752.752 0 0 0 0 1.07 6.845 6.845 0 0 1 0 9.674.752.752 0 0 0 0 1.07c.14.141.333.229.526.229s.386-.07.527-.228c3.265-3.266 3.265-8.567.017-11.815z" fill="#25282B"/>
    <path d="M13.389 6.882a.752.752 0 0 0-1.071 0 .752.752 0 0 0 0 1.07c1.281 1.282 1.299 3.39 0 4.67a.752.752 0 0 0 0 1.072.76.76 0 0 0 .526.228c.193 0 .386-.07.527-.229 1.913-1.878 1.896-4.933.018-6.811z" fill="#F36"/>
    <path d="M5.175 5.46a.752.752 0 0 0 0-1.07.752.752 0 0 0-1.071 0c-3.248 3.248-3.248 8.55 0 11.797.14.14.333.228.526.228.194 0 .387-.07.527-.228a.752.752 0 0 0 0-1.07c-2.65-2.652-2.65-6.988.018-9.656z" fill="#25282B"/>
    <path d="M7.667 7.953a.752.752 0 0 0 0-1.071.752.752 0 0 0-1.07 0 4.821 4.821 0 0 0 0 6.812.76.76 0 0 0 .526.228c.193 0 .386-.07.527-.229a.752.752 0 0 0 0-1.07 3.333 3.333 0 0 1 .017-4.67zM10.004 11.57a1.282 1.282 0 1 0 0-2.562 1.282 1.282 0 0 0 0 2.563z" fill="#F36"/>
</svg>
