<svg width="44" height="32" viewBox="0 0 44 32" fill="none" xmlns="http://www.w3.org/2000/svg">
    <path d="M41.162 0c.651 0 1.188.212 1.611.635.424.39.635.895.635 1.513 0 .977-.618 1.79-1.855 2.442-2.962 1.562-5.127 3.076-6.494 4.54-1.27 1.4-1.905 2.426-1.905 3.077 0 .618.489.993 1.465 1.123l.586.049.781.098c2.116.293 3.825 1.27 5.127 2.93 1.302 1.627 1.953 3.629 1.953 6.005s-.813 4.46-2.441 6.25c-1.823 1.986-4.183 2.979-7.08 2.979-2.8 0-5.176-1.09-7.129-3.272-2.05-2.213-3.076-4.997-3.076-8.35 0-2.962 1.025-6.022 3.076-9.18 2.05-3.19 4.72-5.859 8.008-8.007C37.288.944 39.534 0 41.162 0zm-23.34 0c.651 0 1.188.212 1.612.635.423.39.634.895.634 1.513 0 .977-.618 1.79-1.855 2.442-2.962 1.562-5.127 3.076-6.494 4.54-1.27 1.4-1.905 2.426-1.905 3.077 0 .618.489.993 1.465 1.123l.586.049.781.098c2.116.293 3.825 1.27 5.127 2.93 1.303 1.627 1.954 3.629 1.954 6.005s-.814 4.46-2.442 6.25c-1.823 1.986-4.183 2.979-7.08 2.979-2.8 0-5.176-1.09-7.129-3.272C1.026 26.156 0 23.372 0 20.02c0-2.962 1.025-6.022 3.076-9.18 2.051-3.19 4.72-5.859 8.008-8.007C13.949.944 16.194 0 17.822 0z" fill="#fff"/>
</svg>
