<svg width="20" height="24" viewBox="0 0 20 24" fill="none" xmlns="http://www.w3.org/2000/svg">
    <path d="M14.46 9.755H4.546V6.259c0-2.205 1.837-3.868 4.273-3.868 2.435 0 4.273 1.663 4.273 3.868v1.828h1.54V6.259c0-3.08-2.499-5.402-5.813-5.402-3.314 0-5.814 2.322-5.814 5.402v3.504c-1.278.085-2.291 1.11-2.291 2.36v8.652c0 1.305 1.105 2.368 2.463 2.368H14.46c1.358 0 2.463-1.062 2.463-2.368v-8.652c0-1.306-1.104-2.368-2.463-2.368zm.923 11.02c0 .46-.414.833-.923.833H3.177c-.509 0-.922-.374-.922-.833v-8.652c0-.46.413-.834.922-.834H14.46c.509 0 .923.374.923.834v8.652zm1.305-12.44 2.597 1.493-.642 1.107-2.597-1.493.642-1.107zm0-.553-.642-1.108 2.597-1.493.642 1.108-2.597 1.493zM7.95 19.218h1.795v1.67H7.95v-1.67zm4.229-4.629c0 .368-.112.717-.336 1.046-.223.329-.701.777-1.434 1.343-.379.293-.614.53-.706.707-.091.179-.133.498-.124.957H7.95c-.005-.218-.007-.35-.007-.398 0-.491.087-.895.262-1.212.175-.317.524-.674 1.048-1.07s.837-.655.939-.779a.995.995 0 0 0 .236-.641c0-.325-.14-.603-.418-.835-.28-.232-.655-.348-1.128-.348-.456 0-.836.121-1.143.362-.307.242-.518.61-.633 1.106l-1.648-.19c.047-.71.372-1.312.974-1.807.603-.495 1.394-.743 2.373-.743 1.031 0 1.851.251 2.46.752.61.501.914 1.085.914 1.75z" fill="#00AC26"/>
</svg>
