<svg width="20" height="20" viewBox="0 0 20 20" fill="none" xmlns="http://www.w3.org/2000/svg">
    <path d="M13.17 12.235a4.857 4.857 0 0 1-3.203 1.194 4.78 4.78 0 0 1-3.202-1.212 4.038 4.038 0 0 0-3.31 3.962v2.008c0 .361.29.65.651.65h11.722c.362 0 .651-.289.651-.65v-2.008a4.004 4.004 0 0 0-3.31-3.944z" fill="#25282B"/>
    <path d="M9.97 12.47a3.883 3.883 0 0 0 3.888-3.888c0-.272-.036-.543-.09-.814-.67.289-1.917.669-3.799.669-1.88 0-3.13-.38-3.798-.67A3.884 3.884 0 0 0 9.97 12.47zM16.426 3.335l-6.15-1.628a1.182 1.182 0 0 0-.615 0L3.51 3.335c-.236.055-.236.398 0 .453l2.604.687v1.936c0 .18.09.325.254.416.47.235 1.646.687 3.6.687 1.953 0 3.129-.452 3.6-.687a.441.441 0 0 0 .252-.416V4.475l1.411-.38v1.773a.671.671 0 0 0-.434.633c0 .38.307.67.67.67.379 0 .668-.308.668-.67a.69.69 0 0 0-.434-.633v-1.9l.706-.18c.253-.073.253-.398.018-.453z" fill="#25282B"/>
</svg>
