<svg width="25" height="24" viewBox="0 0 25 24" fill="none" xmlns="http://www.w3.org/2000/svg">
    <path d="M9.876 14.275a1.27 1.27 0 1 0 0-2.54 1.27 1.27 0 0 0 0 2.54zM15.178 14.275a1.27 1.27 0 1 0 0-2.54 1.27 1.27 0 0 0 0 2.54zM12.563 18.844c1.27 0 2.418-.587 3.029-1.54a.717.717 0 0 0-.22-1.001.717.717 0 0 0-1.002.22c-.342.537-1.05.88-1.832.88-.781 0-1.49-.343-1.832-.88-.22-.342-.66-.415-1.002-.22-.342.22-.415.66-.22 1.002.636.952 1.808 1.539 3.079 1.539z" fill="#8C00FE"/>
    <path d="M20.284 10.781c0-.317.024-.66 0-1.05-.196.147-.391.244-.636.293-.464.122-.952.22-1.441.293.318 1.466.195 2.736.244 2.98.074.44 1.344.44 1.466-.024.049-.244.098-.635.147-1.075.268 0 .366.098.415.122.146.123.342.465.342 1.393 0 1.197-.39 1.221-.904 1.27a.936.936 0 0 0-.83.83c-.196 1.833-1.344 3.494-3.42 4.96-1.833 1.295-4.398 1.295-6.23 0-2.077-1.466-3.225-3.127-3.42-4.96a.936.936 0 0 0-.83-.83c-.538-.049-.93-.097-.93-1.27 0-.928.22-1.27.343-1.393.024-.024.146-.122.415-.122.049.44.098.855.147 1.075.122.489 1.368.464 1.465.025.05-.27-.073-1.515.22-2.98-.464-.098-.952-.196-1.417-.294a1.387 1.387 0 0 1-.635-.293c-.024.366 0 .733 0 1.05a1.798 1.798 0 0 0-1.148.465c-.562.513-.83 1.294-.83 2.442 0 1.515.586 2.37 1.807 2.639.342 2.076 1.71 4.006 3.958 5.594 1.148.83 2.516 1.246 3.933 1.246 1.417 0 2.785-.44 3.933-1.246 2.248-1.588 3.616-3.518 3.982-5.594 1.197-.269 1.808-1.148 1.808-2.639 0-1.148-.269-1.954-.83-2.442a1.784 1.784 0 0 0-1.125-.465z" fill="#8C00FE"/>
    <path d="M20.038 8.192V5.236l-5.839 1.05c-.537.099-1.1.123-1.661.123a9.337 9.337 0 0 1-1.661-.147L5.062 5.236v2.932c0 .366.245.708.611.782 2.272.537 4.569.806 6.865.806 2.32 0 4.617-.269 6.865-.806a.782.782 0 0 0 .635-.758z" fill="#8C00FE"/>
    <path d="m23.654 2.695-9.65-1.71a8.58 8.58 0 0 0-2.955 0l-9.626 1.71c-.66.122-.66.684 0 .806l9.626 1.71a8.58 8.58 0 0 0 2.956 0L21.87 3.82v2.81c-.22.122-.391.341-.391.61v.44c0 .39.318.684.684.684h.269c.39 0 .684-.318.684-.684v-.44c0-.269-.171-.488-.391-.61V3.671l.88-.146c.708-.147.708-.709.048-.83z" fill="#8C00FE"/>
</svg>
