<svg width="298" height="100" viewBox="0 0 298 100" fill="none" xmlns="http://www.w3.org/2000/svg">
    <path d="M26.366 67.969h-2.188v-7.54h-.125l-2.867 6.891h-1.57l-2.875-6.89h-.125v7.539h-2.188V56.695h2.782l3.117 7.578h.14l3.125-7.578h2.774V67.97zm9.437-1.008c-.75.797-1.786 1.195-3.109 1.195s-2.362-.398-3.117-1.195c-.75-.797-1.125-1.898-1.125-3.305 0-1.396.377-2.492 1.133-3.289.76-.802 1.796-1.203 3.109-1.203s2.346.401 3.101 1.203c.761.797 1.141 1.893 1.141 3.29 0 1.406-.377 2.507-1.133 3.304zm-3.109-.664c.604 0 1.073-.23 1.406-.688.334-.463.5-1.114.5-1.953 0-.828-.169-1.474-.508-1.937-.333-.464-.8-.696-1.398-.696-.604 0-1.073.232-1.406.696-.334.463-.5 1.11-.5 1.937 0 .839.164 1.49.492 1.953.333.459.805.688 1.414.688zm11.18 1.805c-.61 0-1.149-.13-1.617-.391a2.48 2.48 0 0 1-1.04-1.094h-.14v1.352h-2.203V56.063h2.273v4.664h.14a2.435 2.435 0 0 1 1.016-1.11c.459-.27.982-.406 1.57-.406 1.09 0 1.943.393 2.563 1.18.62.786.93 1.875.93 3.265 0 1.38-.313 2.466-.938 3.258-.62.792-1.471 1.188-2.554 1.188zm.633-6.305c-.35-.453-.823-.68-1.422-.68-.6 0-1.076.23-1.43.688-.349.453-.526 1.073-.531 1.86.005.78.182 1.4.53 1.858.355.454.832.68 1.43.68.605 0 1.079-.226 1.422-.68.35-.453.524-1.075.524-1.867 0-.786-.175-1.406-.523-1.86zm4.726 6.172v-8.617h2.274v8.617h-2.274zm1.14-9.82c-.406 0-.731-.107-.976-.32A1.048 1.048 0 0 1 49.03 57c0-.344.122-.62.367-.828.245-.214.57-.32.977-.32.406 0 .731.106.976.32.245.208.367.484.367.828 0 .339-.125.615-.375.828-.244.214-.567.32-.968.32zm3.516 9.82V56.063h2.274v11.906h-2.274zm8.367-7.063c-.526 0-.96.17-1.304.508-.339.339-.529.786-.57 1.344h3.671c-.026-.573-.2-1.024-.523-1.352-.318-.333-.742-.5-1.273-.5zm1.844 4.61h2.117a3.004 3.004 0 0 1-1.312 1.937c-.698.469-1.573.703-2.625.703-1.313 0-2.336-.39-3.07-1.172-.735-.786-1.102-1.88-1.102-3.28 0-1.402.37-2.509 1.11-3.321.739-.813 1.75-1.219 3.03-1.219 1.272 0 2.261.383 2.97 1.148.713.766 1.07 1.834 1.07 3.204v.695h-5.914v.117c.015.64.198 1.149.546 1.524.355.37.829.554 1.422.554.448 0 .823-.075 1.125-.226.303-.157.513-.378.633-.664z" fill="#25282B"/>
    <path opacity=".6" d="m7.225 89.554-.85-2.42H3.012l-.85 2.42H1.055l3.117-8.455h1.043l3.117 8.455H7.225zm-2.579-7.09-1.324 3.773h2.742L4.74 82.464h-.094zm5.04 7.09v-6.317h.96v.996h.094c.336-.738.969-1.107 1.899-1.107.707 0 1.252.203 1.634.61.383.402.575.978.575 1.728v4.09H13.84V85.71c0-.566-.123-.986-.37-1.26-.242-.277-.615-.416-1.118-.416-.508 0-.912.16-1.213.48-.297.317-.446.75-.446 1.301v3.739H9.686zm9.345.111c-.808 0-1.453-.297-1.933-.89-.48-.594-.721-1.387-.721-2.38 0-.988.24-1.779.72-2.373.485-.597 1.13-.896 1.934-.896.442 0 .836.1 1.184.299.351.195.617.465.797.808h.088V80.73h1.007v8.825h-.96v-1.008h-.094a2.14 2.14 0 0 1-.832.826 2.429 2.429 0 0 1-1.19.293zm.235-5.63c-.575 0-1.026.21-1.354.632-.328.418-.492.994-.492 1.728 0 .739.162 1.317.486 1.735.328.418.782.627 1.36.627.574 0 1.027-.211 1.359-.633.332-.422.498-.998.498-1.728 0-.723-.168-1.297-.504-1.723-.332-.426-.783-.639-1.353-.639zm4.799 5.519v-6.317h.96v.938h.094c.094-.309.305-.56.633-.756a2.146 2.146 0 0 1 1.12-.293c.19 0 .358.01.503.03v1.007c-.137-.039-.352-.058-.645-.058-.48 0-.877.144-1.189.433a1.435 1.435 0 0 0-.469 1.102v3.914h-1.008zm9.117-.762c-.52.582-1.229.873-2.127.873-.899 0-1.61-.291-2.133-.873-.52-.586-.78-1.385-.78-2.397 0-1.015.26-1.814.78-2.396.52-.582 1.23-.873 2.133-.873.902 0 1.613.291 2.133.873.519.582.779 1.38.779 2.397 0 1.011-.262 1.81-.785 2.396zm-3.51-.65c.324.41.785.615 1.383.615.597 0 1.058-.205 1.383-.615.324-.414.486-.996.486-1.746s-.162-1.33-.486-1.74c-.325-.415-.786-.622-1.383-.622-.598 0-1.059.207-1.383.621-.324.41-.486.99-.486 1.74s.162 1.333.486 1.747zm5.9 1.412v-6.317h1.008v6.317h-1.008zm1.002-7.805a.678.678 0 0 1-.498.205.678.678 0 0 1-.498-.205.69.69 0 0 1-.205-.498c0-.191.068-.356.205-.492a.669.669 0 0 1 .498-.211c.196 0 .361.07.498.21.137.138.205.302.205.493a.69.69 0 0 1-.205.498zm4.266 7.916c-.809 0-1.453-.297-1.934-.89-.48-.594-.72-1.387-.72-2.38 0-.988.24-1.779.72-2.373.485-.597 1.13-.896 1.934-.896.441 0 .836.1 1.183.299.352.195.618.465.797.808h.088V80.73h1.008v8.825h-.96v-1.008h-.095a2.14 2.14 0 0 1-.832.826 2.429 2.429 0 0 1-1.19.293zm.234-5.63c-.574 0-1.025.21-1.353.632-.328.418-.492.994-.492 1.728 0 .739.162 1.317.486 1.735.328.418.781.627 1.36.627.573 0 1.027-.211 1.359-.633.332-.422.498-.998.498-1.728 0-.723-.168-1.297-.504-1.723-.332-.426-.783-.639-1.354-.639zm14.285 5.519-.779-.844a4.01 4.01 0 0 1-1.26.738 4.201 4.201 0 0 1-1.476.264c-.84 0-1.528-.225-2.063-.674-.531-.45-.797-1.03-.797-1.74 0-.984.559-1.772 1.676-2.362l.094-.046.129-.065c.05-.023.086-.04.105-.053-.386-.406-.66-.76-.82-1.06a1.96 1.96 0 0 1-.24-.92c0-.543.205-.994.615-1.353.41-.36.924-.54 1.541-.54.625 0 1.14.18 1.547.54.406.355.61.81.61 1.365 0 .433-.143.82-.428 1.16-.282.34-.748.681-1.4 1.025l2.114 2.274c.266-.532.399-1.29.399-2.274v-.146h.984v.152c0 1.27-.232 2.264-.697 2.983l1.47 1.576H55.36zm-4.09-3.996c-.82.425-1.23.982-1.23 1.67 0 .476.174.86.521 1.154.352.293.811.44 1.377.44.387 0 .762-.071 1.126-.212.367-.144.665-.338.896-.58l-2.39-2.613a3.993 3.993 0 0 0-.3.14zm.575-1.166c.515-.262.879-.51 1.09-.745.21-.234.316-.503.316-.808 0-.328-.107-.594-.322-.797-.215-.203-.494-.305-.838-.305-.336 0-.613.104-.832.31-.215.208-.323.475-.323.804 0 .234.069.466.206.697.136.23.37.512.703.844zm9.369 5.162v-6.317h1.008v6.317h-1.008zm1.002-7.805a.678.678 0 0 1-.498.205.678.678 0 0 1-.498-.205.69.69 0 0 1-.205-.498c0-.191.068-.356.205-.492a.669.669 0 0 1 .498-.211c.195 0 .361.07.498.21.137.138.205.302.205.493a.69.69 0 0 1-.205.498zm5.613-.85c1.2 0 2.143.399 2.83 1.196.692.793 1.037 1.869 1.037 3.228 0 1.36-.345 2.438-1.037 3.235-.687.796-1.63 1.195-2.83 1.195-1.207 0-2.156-.398-2.847-1.195-.692-.797-1.038-1.875-1.038-3.235 0-1.36.348-2.435 1.043-3.228.7-.797 1.647-1.196 2.842-1.196zm0 .973c-.86 0-1.54.31-2.045.932-.504.62-.756 1.46-.756 2.52 0 1.058.248 1.9.745 2.525.5.62 1.185.931 2.056.931.863 0 1.543-.312 2.04-.937.495-.625.743-1.465.743-2.52 0-1.062-.248-1.902-.744-2.52-.496-.62-1.176-.93-2.039-.93zm5.297 5.473h1.066c.067.441.295.793.686 1.054.39.262.887.393 1.488.393.57 0 1.041-.137 1.412-.41.375-.278.563-.625.563-1.043 0-.36-.137-.656-.41-.89-.274-.239-.702-.432-1.284-.58l-1.084-.282c-.765-.192-1.322-.469-1.67-.832-.347-.363-.52-.846-.52-1.447 0-.72.272-1.3.82-1.74.55-.446 1.273-.669 2.167-.669.817 0 1.5.22 2.051.657.55.437.848.998.89 1.681h-1.06a1.504 1.504 0 0 0-.62-1.013c-.337-.246-.768-.37-1.296-.37-.562 0-1.015.131-1.36.393-.339.258-.509.6-.509 1.025a1 1 0 0 0 .375.81c.254.206.672.384 1.254.532l.885.235c.875.218 1.502.511 1.88.879.383.367.575.86.575 1.482 0 .777-.285 1.396-.856 1.857-.57.457-1.337.686-2.302.686-.895 0-1.63-.219-2.204-.656-.57-.438-.882-1.022-.937-1.752z" fill="#25282B"/>
    <path d="M47.588 1.572H32.486c-1.785 0-3.204 1.466-3.204 3.206v33.381a3.214 3.214 0 0 0 3.204 3.206h15.102c1.785 0 3.204-1.466 3.204-3.206V4.823c0-1.785-1.419-3.25-3.204-3.25zM36.513 4.137h7.094c.32 0 .549.229.549.55 0 .32-.23.549-.55.549h-7.093a.529.529 0 0 1-.55-.55c0-.32.23-.55.55-.55zm3.524 35.9a1.934 1.934 0 0 1-1.922-1.923c0-1.054.87-1.924 1.922-1.924 1.053 0 1.922.87 1.922 1.924 0 1.053-.87 1.923-1.922 1.923zm9.199-5.22H30.793V7.479h18.443v27.338zM116.878 56.688h4.437c1.677 0 2.977.486 3.899 1.46.927.97 1.39 2.336 1.39 4.102 0 1.828-.46 3.24-1.382 4.234-.917.99-2.219 1.485-3.907 1.485h-4.437V56.688zm2.359 2.015v7.25h1.703c1.047 0 1.852-.312 2.414-.937.563-.63.844-1.54.844-2.727 0-1.135-.286-2.016-.859-2.64-.573-.63-1.373-.946-2.399-.946h-1.703zm13.094 2.203c-.526 0-.961.17-1.305.508-.338.339-.528.786-.57 1.344h3.672c-.026-.573-.201-1.024-.524-1.352-.317-.333-.742-.5-1.273-.5zm1.844 4.61h2.117a3.002 3.002 0 0 1-1.313 1.937c-.697.469-1.572.703-2.625.703-1.312 0-2.335-.39-3.07-1.172-.734-.786-1.101-1.88-1.101-3.28 0-1.402.369-2.509 1.109-3.321.74-.813 1.75-1.219 3.031-1.219 1.271 0 2.261.383 2.969 1.148.714.766 1.07 1.834 1.07 3.204v.695h-5.914v.117c.016.64.198 1.149.547 1.524.354.37.828.554 1.422.554.448 0 .823-.075 1.125-.226.302-.157.513-.378.633-.664zm3.859-3.633c0-.818.328-1.474.985-1.969.661-.5 1.528-.75 2.601-.75 1.094 0 1.951.221 2.57.664.625.443.969 1.076 1.032 1.899h-2.102a.966.966 0 0 0-.476-.657c-.256-.161-.592-.242-1.008-.242-.412 0-.75.086-1.016.258-.266.167-.398.385-.398.656 0 .209.093.383.281.524.187.135.482.247.883.336l1.617.351c.838.182 1.45.461 1.836.836.39.375.586.883.586 1.523 0 .855-.349 1.542-1.047 2.063-.698.52-1.615.781-2.75.781-1.136 0-2.034-.224-2.695-.672-.662-.447-1.032-1.086-1.11-1.914h2.219c.182.615.727.922 1.633.922.442 0 .802-.083 1.078-.25.276-.172.414-.396.414-.672a.616.616 0 0 0-.258-.515c-.172-.136-.448-.245-.828-.328l-1.562-.352c-.839-.182-1.464-.477-1.875-.883-.407-.411-.61-.948-.61-1.61zm11.75.836 2.883-3.367h2.586l-3.281 3.695 3.507 4.922h-2.695l-2.515-3.5-.625.64v2.86h-2.274V56.063h2.274v6.656h.14zm7.625-5.414h2.274v2.133h1.789v1.789h-1.789v3.875c0 .375.088.65.265.828.183.177.466.265.852.265.255 0 .479-.01.672-.03v1.733c-.349.068-.73.102-1.141.102-1.047 0-1.797-.182-2.25-.547-.448-.365-.672-.969-.672-1.812v-4.414h-1.344v-1.79h1.344v-2.132zm12.828 9.656c-.75.797-1.786 1.195-3.109 1.195s-2.362-.398-3.117-1.195c-.75-.797-1.125-1.898-1.125-3.305 0-1.396.377-2.492 1.133-3.289.76-.802 1.796-1.203 3.109-1.203 1.312 0 2.346.401 3.101 1.203.761.797 1.141 1.893 1.141 3.29 0 1.406-.378 2.507-1.133 3.304zm-3.109-.664c.604 0 1.073-.23 1.406-.688.333-.463.5-1.114.5-1.953 0-.828-.169-1.474-.508-1.937-.333-.464-.799-.696-1.398-.696-.604 0-1.073.232-1.406.696-.334.463-.5 1.11-.5 1.937 0 .839.164 1.49.492 1.953.333.459.805.688 1.414.688zm11.078-7.086c1.094 0 1.953.393 2.578 1.18.625.786.938 1.875.938 3.265 0 1.386-.31 2.474-.93 3.266-.62.786-1.469 1.18-2.547 1.18-.614 0-1.148-.128-1.601-.383a2.331 2.331 0 0 1-1-1.07h-.141v4.18h-2.274V59.351h2.204v1.414h.14a2.645 2.645 0 0 1 1.047-1.141c.464-.276.992-.414 1.586-.414zm-.773 6.992c.614 0 1.093-.224 1.437-.672.344-.453.516-1.078.516-1.875 0-.791-.175-1.411-.524-1.86-.343-.452-.817-.679-1.422-.679-.604 0-1.083.23-1.437.688-.349.453-.524 1.073-.524 1.86 0 .786.175 1.405.524 1.858.349.454.825.68 1.43.68z" fill="#25282B"/>
    <path opacity=".6" d="M131.206 89.753c-1.149 0-2.059-.397-2.731-1.19-.668-.793-1.001-1.87-1.001-3.234 0-1.363.333-2.441 1.001-3.234.668-.797 1.577-1.196 2.725-1.196.891 0 1.652.254 2.285.762a3.05 3.05 0 0 1 1.137 1.986h-1.072c-.141-.546-.422-.978-.844-1.294-.422-.32-.924-.48-1.506-.48-.812 0-1.457.31-1.934.93-.472.622-.709 1.464-.709 2.526 0 1.063.239 1.904.715 2.526.477.617 1.121.925 1.934.925.59 0 1.094-.14 1.512-.422a1.99 1.99 0 0 0 .832-1.16h1.072a2.889 2.889 0 0 1-1.143 1.864c-.617.46-1.375.69-2.273.69zm5.115-.2V80.73h1.008v3.503h.094c.16-.355.404-.629.732-.82.332-.191.736-.287 1.213-.287.672 0 1.203.207 1.594.621.39.41.586.983.586 1.717v4.09h-1.008V85.71c0-1.117-.486-1.676-1.459-1.676-.555 0-.986.162-1.295.486-.305.32-.457.752-.457 1.295v3.739h-1.008zm7.067 0v-6.316h.961v.938h.093c.094-.309.305-.56.633-.756a2.145 2.145 0 0 1 1.119-.293c.192 0 .36.01.504.03v1.007c-.137-.039-.351-.058-.644-.058-.481 0-.877.144-1.19.433a1.437 1.437 0 0 0-.469 1.102v3.914h-1.007zm9.117-.761c-.52.582-1.229.873-2.127.873-.899 0-1.61-.291-2.133-.873-.52-.586-.779-1.385-.779-2.397 0-1.015.259-1.814.779-2.396.52-.582 1.23-.873 2.133-.873.902 0 1.613.291 2.133.873.519.582.779 1.38.779 2.397 0 1.011-.262 1.81-.785 2.396zm-3.51-.65c.324.41.785.615 1.383.615.597 0 1.058-.205 1.383-.615.324-.414.486-.996.486-1.746s-.162-1.33-.486-1.74c-.325-.415-.786-.622-1.383-.622-.598 0-1.059.207-1.383.621-.324.41-.486.99-.486 1.74s.162 1.333.486 1.747zm5.877 1.412v-6.317h.961v.996h.094c.144-.351.369-.623.673-.814.305-.195.668-.293 1.09-.293.414 0 .77.1 1.067.299.3.199.527.469.679.808h.094c.172-.34.43-.609.774-.808.343-.2.73-.299 1.16-.299.644 0 1.14.18 1.488.539.348.355.522.863.522 1.523v4.366h-1.008v-4.131c0-.926-.444-1.389-1.33-1.389-.43 0-.782.14-1.055.422-.274.281-.41.627-.41 1.037v4.06h-1.008v-4.288c0-.375-.121-.674-.363-.897-.239-.222-.557-.334-.955-.334-.411 0-.758.156-1.043.469a1.636 1.636 0 0 0-.422 1.137v3.914h-1.008zm12.961-5.537c-.504 0-.918.17-1.242.51-.325.34-.506.788-.545 1.347h3.48c-.011-.559-.172-1.008-.48-1.348-.309-.34-.713-.51-1.213-.51zm1.664 3.902h1.008a2.193 2.193 0 0 1-.932 1.283c-.465.309-1.041.463-1.728.463-.875 0-1.569-.293-2.08-.879-.512-.59-.768-1.385-.768-2.385 0-.996.258-1.79.773-2.384.516-.594 1.207-.891 2.075-.891.851 0 1.521.283 2.009.85.489.566.733 1.341.733 2.326v.386h-4.541v.047c.027.625.203 1.121.527 1.489.328.367.76.55 1.295.55.816 0 1.359-.285 1.629-.855z" fill="#25282B"/>
    <path d="M166.717 1.572h-34.415c-1.779 0-3.227 1.439-3.227 3.206V29.57c0 1.767 1.448 3.206 3.227 3.206h12.389v1.685c0 1.514-1.849 3.747-2.561 4.48-.714.732-.609 1.337-.484 1.632.126.295.491.792 1.518.792h12.69c1.028 0 1.392-.497 1.518-.792.125-.295.231-.9-.483-1.633-.712-.732-2.562-2.965-2.562-4.48v-1.684h12.39c1.779 0 3.226-1.439 3.226-3.206V4.778c.001-1.767-1.447-3.206-3.226-3.206zm-35.491 22.59V3.735h36.566v20.427h-36.566zM239.544 67.969h-2.359V58.71h-3.383v-2.016h9.125v2.016h-3.383v9.258zm6.867-1.578c.526 0 .966-.149 1.32-.446.355-.297.532-.664.532-1.101v-.633l-1.743.11c-.968.067-1.453.413-1.453 1.038 0 .318.123.57.368.758.25.182.575.274.976.274zm-.75 1.71c-.833 0-1.513-.236-2.039-.71-.521-.474-.781-1.102-.781-1.883 0-.776.286-1.386.859-1.828.578-.448 1.404-.703 2.477-.766l2.086-.125v-.703c0-.36-.125-.636-.375-.828-.25-.198-.61-.297-1.078-.297-.844 0-1.362.266-1.555.797h-2.094c.073-.797.448-1.427 1.125-1.89.682-.47 1.565-.704 2.649-.704 1.135 0 2.013.255 2.632.766.625.51.938 1.229.938 2.156v5.883h-2.203v-1.125h-.141a2.31 2.31 0 0 1-1 .93 3.342 3.342 0 0 1-1.5.328zm12.156 0c-.609 0-1.148-.13-1.617-.39a2.481 2.481 0 0 1-1.039-1.094h-.141v1.352h-2.203V56.063h2.274v4.664h.14a2.439 2.439 0 0 1 1.016-1.11c.458-.27.982-.406 1.57-.406 1.089 0 1.943.393 2.563 1.18.62.786.93 1.875.93 3.265 0 1.38-.313 2.466-.938 3.258-.62.792-1.471 1.188-2.555 1.188zm.633-6.304c-.349-.453-.823-.68-1.422-.68s-1.075.23-1.429.688c-.349.453-.526 1.073-.532 1.86.006.78.183 1.4.532 1.858.354.454.83.68 1.429.68.604 0 1.078-.226 1.422-.68.349-.453.524-1.075.524-1.867 0-.786-.175-1.406-.524-1.86zm4.789 6.172V56.063h2.274v11.906h-2.274zm8.367-7.063c-.526 0-.961.17-1.304.508-.339.339-.529.786-.571 1.344h3.672c-.026-.573-.2-1.024-.523-1.352-.318-.333-.742-.5-1.274-.5zm1.844 4.61h2.117a3.004 3.004 0 0 1-1.312 1.937c-.698.469-1.573.703-2.625.703-1.313 0-2.336-.39-3.07-1.172-.735-.786-1.102-1.88-1.102-3.28 0-1.402.37-2.509 1.109-3.321.74-.813 1.75-1.219 3.032-1.219 1.27 0 2.26.383 2.968 1.148.714.766 1.071 1.834 1.071 3.204v.695h-5.914v.117c.015.64.198 1.149.546 1.524.355.37.829.554 1.422.554.448 0 .823-.075 1.125-.226.302-.157.513-.378.633-.664zm4.703-8.211h2.274v2.133h1.789v1.789h-1.789v3.875c0 .375.088.65.265.828.183.177.467.265.852.265.255 0 .479-.01.672-.03v1.733a5.996 5.996 0 0 1-1.141.102c-1.047 0-1.797-.182-2.25-.547-.448-.365-.672-.969-.672-1.812v-4.414h-1.343v-1.79h1.343v-2.132z" fill="#25282B"/>
    <path opacity=".6" d="m224.678 89.554-.85-2.42h-3.363l-.85 2.42h-1.107l3.117-8.455h1.043l3.117 8.455h-1.107zm-2.578-7.09-1.325 3.773h2.743l-1.325-3.773h-.093zm5.039 7.09v-6.317h.961v.996h.093c.336-.738.969-1.107 1.899-1.107.707 0 1.252.203 1.635.61.382.402.574.978.574 1.728v4.09h-1.008V85.71c0-.566-.123-.986-.369-1.26-.242-.277-.615-.416-1.119-.416-.508 0-.912.16-1.213.48-.297.317-.446.75-.446 1.301v3.739h-1.007zm9.345.111c-.808 0-1.453-.297-1.933-.89-.481-.594-.721-1.387-.721-2.38 0-.988.24-1.779.721-2.373.484-.597 1.129-.896 1.933-.896.442 0 .836.1 1.184.299.352.195.617.465.797.808h.088V80.73h1.008v8.825h-.961v-1.008h-.094a2.142 2.142 0 0 1-.832.826 2.43 2.43 0 0 1-1.19.293zm.235-5.63c-.574 0-1.026.21-1.354.632-.328.418-.492.994-.492 1.728 0 .739.162 1.317.486 1.735.329.418.782.627 1.36.627.574 0 1.027-.211 1.359-.633.332-.422.498-.998.498-1.728 0-.723-.168-1.297-.504-1.723-.332-.426-.783-.639-1.353-.639zm4.799 5.519v-6.317h.961v.938h.093c.094-.309.305-.56.633-.756a2.145 2.145 0 0 1 1.119-.293c.192 0 .36.01.504.03v1.007c-.137-.039-.351-.058-.644-.058-.481 0-.877.144-1.19.433a1.437 1.437 0 0 0-.469 1.102v3.914h-1.007zm9.117-.762c-.52.582-1.229.873-2.127.873-.899 0-1.61-.291-2.133-.873-.52-.586-.779-1.385-.779-2.397 0-1.015.259-1.814.779-2.396.52-.582 1.23-.873 2.133-.873.902 0 1.613.291 2.133.873.519.582.779 1.38.779 2.397 0 1.011-.262 1.81-.785 2.396zm-3.51-.65c.324.41.785.615 1.383.615.597 0 1.058-.205 1.383-.615.324-.414.486-.996.486-1.746s-.162-1.33-.486-1.74c-.325-.415-.786-.622-1.383-.622-.598 0-1.059.207-1.383.621-.324.41-.486.99-.486 1.74s.162 1.333.486 1.747zm5.9 1.412v-6.317h1.008v6.317h-1.008zm1.002-7.805a.676.676 0 0 1-.498.205.679.679 0 0 1-.498-.205.693.693 0 0 1-.205-.498c0-.191.069-.356.205-.492a.67.67 0 0 1 .498-.211c.196 0 .362.07.498.21a.67.67 0 0 1 .205.493.69.69 0 0 1-.205.498zm4.266 7.916c-.809 0-1.453-.297-1.934-.89-.48-.594-.72-1.387-.72-2.38 0-.988.24-1.779.72-2.373.485-.597 1.129-.896 1.934-.896.441 0 .836.1 1.184.299.351.195.617.465.796.808h.088V80.73h1.008v8.825h-.961v-1.008h-.094a2.136 2.136 0 0 1-.832.826 2.427 2.427 0 0 1-1.189.293zm.234-5.63c-.574 0-1.025.21-1.353.632-.328.418-.492.994-.492 1.728 0 .739.162 1.317.486 1.735.328.418.781.627 1.359.627.575 0 1.028-.211 1.36-.633.332-.422.498-.998.498-1.728 0-.723-.168-1.297-.504-1.723-.332-.426-.783-.639-1.354-.639zm14.285 5.519-.779-.844a4.003 4.003 0 0 1-1.26.738 4.195 4.195 0 0 1-1.476.264c-.84 0-1.527-.225-2.063-.674-.531-.45-.796-1.03-.796-1.74 0-.984.558-1.772 1.675-2.362l.094-.046a82.393 82.393 0 0 1 .234-.118c-.386-.406-.66-.76-.82-1.06a1.961 1.961 0 0 1-.24-.92c0-.543.205-.994.615-1.353.41-.36.924-.54 1.541-.54.625 0 1.141.18 1.547.54.406.355.609.81.609 1.365 0 .433-.142.82-.427 1.16-.282.34-.748.681-1.401 1.025l2.115 2.274c.266-.532.399-1.29.399-2.274v-.146h.984v.152c0 1.27-.232 2.264-.697 2.983l1.471 1.576h-1.325zm-4.089-3.996c-.821.425-1.231.982-1.231 1.67 0 .476.174.86.522 1.154.351.293.81.44 1.377.44.386 0 .761-.071 1.125-.212.367-.144.666-.338.896-.58l-2.391-2.613a4.194 4.194 0 0 0-.298.14zm.574-1.166c.515-.262.879-.51 1.09-.745.211-.234.316-.503.316-.808 0-.328-.107-.594-.322-.797-.215-.203-.494-.305-.838-.305-.336 0-.613.104-.832.31-.215.208-.322.475-.322.804 0 .234.068.466.205.697.136.23.371.512.703.844zm9.369 5.162v-6.317h1.008v6.317h-1.008zm1.002-7.805a.679.679 0 0 1-.498.205.679.679 0 0 1-.498-.205.69.69 0 0 1-.205-.498.67.67 0 0 1 .205-.492.67.67 0 0 1 .498-.211.67.67 0 0 1 .498.21.67.67 0 0 1 .205.493.69.69 0 0 1-.205.498zm5.613-.85c1.199 0 2.143.399 2.83 1.196.692.793 1.037 1.869 1.037 3.228 0 1.36-.345 2.438-1.037 3.235-.687.796-1.631 1.195-2.83 1.195-1.207 0-2.156-.398-2.847-1.195-.692-.797-1.038-1.875-1.038-3.235 0-1.36.348-2.435 1.043-3.228.7-.797 1.647-1.196 2.842-1.196zm0 .973c-.859 0-1.541.31-2.045.932-.504.62-.756 1.46-.756 2.52 0 1.058.249 1.9.745 2.525.5.62 1.185.931 2.056.931.864 0 1.543-.312 2.039-.937.496-.625.744-1.465.744-2.52 0-1.062-.248-1.902-.744-2.52-.496-.62-1.175-.93-2.039-.93zm5.297 5.473h1.067c.066.441.294.793.685 1.054.391.262.887.393 1.488.393.571 0 1.041-.137 1.412-.41.375-.278.563-.625.563-1.043 0-.36-.137-.656-.41-.89-.274-.239-.701-.432-1.283-.58l-1.084-.282c-.766-.192-1.323-.469-1.67-.832-.348-.363-.522-.846-.522-1.447 0-.72.274-1.3.821-1.74.55-.446 1.273-.669 2.167-.669.817 0 1.5.22 2.051.657.551.437.848.998.891 1.681h-1.061a1.502 1.502 0 0 0-.621-1.013c-.336-.246-.767-.37-1.295-.37-.562 0-1.015.131-1.359.393-.34.258-.51.6-.51 1.025a1 1 0 0 0 .375.81c.254.206.672.384 1.254.532l.885.235c.875.218 1.502.511 1.881.879.383.367.574.86.574 1.482 0 .777-.285 1.396-.856 1.857-.57.457-1.337.686-2.302.686-.895 0-1.629-.219-2.203-.656-.571-.438-.883-1.022-.938-1.752z" fill="#25282B"/>
    <path d="M270.758 0H245.24C243.45 0 242 1.423 242 3.175v34.65c0 1.753 1.45 3.175 3.24 3.175h25.518c1.79 0 3.242-1.422 3.242-3.175V3.175C274 1.423 272.548 0 270.758 0zm-15.543 2.45h5.571c.157 0 .283.127.283.28a.28.28 0 0 1-.283.28h-5.571a.283.283 0 0 1-.285-.28c0-.154.129-.28.285-.28zM258 38.66c-1.037 0-1.875-.823-1.875-1.837 0-1.016.838-1.84 1.875-1.84 1.035 0 1.875.823 1.875 1.84 0 1.014-.84 1.838-1.875 1.838zm14.578-5.681H243.42V6.24h29.158V32.98z" fill="#25282B"/>
</svg>
