<svg width="20" height="20" viewBox="0 0 20 20" fill="none" xmlns="http://www.w3.org/2000/svg">
    <g clip-path="url(#fb6ulentya)" fill-rule="evenodd" clip-rule="evenodd" fill="#25282B">
        <path d="M17.949 15.344a9.732 9.732 0 0 0-4.4-4.547c-.088-.029-.205-.029-.264.03-.616.498-1.32.85-2.083 1.085l-.88 1.261.587 4.576-1.408 1.76-1.408-1.76.587-4.576-.88-1.29s-1.38-.617-1.995-1.145c-.088-.058-.176-.088-.264-.029a9.651 9.651 0 0 0-4.488 4.488.619.619 0 0 0 .03.557c1.847 2.699 4.898 4.488 8.36 4.518 3.46.029 6.54-1.672 8.447-4.341.117-.176.147-.411.059-.587zM9.53 1C6.86.97 4.66 3.142 4.66 5.81c-.029 2.67 2.142 4.87 4.811 4.9 2.67.029 4.87-2.142 4.899-4.811 0-2.67-2.142-4.87-4.84-4.899z"/>
    </g>
    <defs>
        <clipPath id="fb6ulentya">
            <path fill="#fff" d="M0 0h20v20H0z"/>
        </clipPath>
    </defs>
</svg>
