<svg width="18" height="23" viewBox="0 0 18 23" fill="none" xmlns="http://www.w3.org/2000/svg">
    <path d="M18 1.68h-6.667a2.592 2.592 0 0 0-4.677 0H-.001v20.51H18V1.68zM7.783 3.157l.126-.584a1.118 1.118 0 0 1 2.184 0l.125.584h1.43v1.366H6.354V3.157h1.43zm8.74 17.558H1.476V3.157h3.4V6h8.247V3.157h3.4v17.558z" fill="#F36"/>
    <path d="M15.058 9.706H9.235v1.477h5.823V9.706zM5.077 10.36l-1.012-.82-.93 1.15 2.127 1.721 2.95-3.43L7.09 8.02 5.077 10.36zM14.934 15.508H9.11v1.477h5.823v-1.477zM6.577 13.963l-1.244 1.24-1.24-1.24-1.044 1.044 1.24 1.243-1.24 1.24 1.044 1.045 1.24-1.241 1.244 1.24 1.043-1.043-1.24-1.241 1.24-1.243-1.043-1.044z" fill="#F36"/>
</svg>
