<svg width="542" height="423" viewBox="0 0 542 423" fill="none" xmlns="http://www.w3.org/2000/svg">
    <path fill-rule="evenodd" clip-rule="evenodd" d="M0 418.416V0h509.498c26.481 51.232 46.995 102.603 19.337 147.028-25.473 40.915-76.541 40.785-129.407 40.65-42.275-.108-85.699-.219-118.104 20.654-33.846 21.8-52.859 59.937-71.624 97.581-21.752 43.631-43.171 86.598-86.975 102.69C84.266 422.73 41.658 425.184 0 418.416z" fill="#EBF4FF"/>
    <g opacity=".1" fill="#25282B">
        <circle cx="43.158" cy="43.158" r="3.158"/>
        <circle cx="43.158" cy="57.894" r="3.158"/>
        <circle cx="43.158" cy="72.632" r="3.158"/>
        <circle cx="43.158" cy="87.368" r="3.158"/>
        <circle cx="43.158" cy="102.105" r="3.158"/>
        <circle cx="43.158" cy="116.842" r="3.158"/>
        <circle cx="57.894" cy="43.158" r="3.158"/>
        <circle cx="57.894" cy="57.894" r="3.158"/>
        <circle cx="57.894" cy="72.632" r="3.158"/>
        <circle cx="57.894" cy="87.368" r="3.158"/>
        <circle cx="57.894" cy="102.105" r="3.158"/>
        <circle cx="57.894" cy="116.842" r="3.158"/>
        <circle cx="72.632" cy="43.158" r="3.158"/>
        <circle cx="72.632" cy="57.894" r="3.158"/>
        <circle cx="72.632" cy="72.632" r="3.158"/>
        <circle cx="72.632" cy="87.368" r="3.158"/>
        <circle cx="72.632" cy="102.105" r="3.158"/>
        <circle cx="72.632" cy="116.842" r="3.158"/>
        <circle cx="87.369" cy="43.158" r="3.158"/>
        <circle cx="87.369" cy="57.894" r="3.158"/>
        <circle cx="87.369" cy="72.632" r="3.158"/>
        <circle cx="87.369" cy="87.368" r="3.158"/>
        <circle cx="87.369" cy="102.105" r="3.158"/>
        <circle cx="87.369" cy="116.842" r="3.158"/>
        <circle cx="102.105" cy="43.158" r="3.158"/>
        <circle cx="102.105" cy="57.894" r="3.158"/>
        <circle cx="102.105" cy="72.632" r="3.158"/>
        <circle cx="102.105" cy="87.368" r="3.158"/>
        <circle cx="102.105" cy="102.105" r="3.158"/>
        <circle cx="102.105" cy="116.842" r="3.158"/>
        <circle cx="116.842" cy="43.158" r="3.158"/>
        <circle cx="116.842" cy="57.894" r="3.158"/>
        <circle cx="116.842" cy="72.632" r="3.158"/>
        <circle cx="116.842" cy="87.368" r="3.158"/>
        <circle cx="116.842" cy="102.105" r="3.158"/>
        <circle cx="116.842" cy="116.842" r="3.158"/>
    </g>
</svg>
