<svg width="32" height="32" viewBox="0 0 32 32" fill="none" xmlns="http://www.w3.org/2000/svg">
    <path d="M32 16c0-8.847-7.153-16-16-16C7.153 0 0 7.153 0 16c0 8.847 7.153 16 16 16 8.847 0 16-7.153 16-16z" fill="#03A9F4"/>
    <path d="M25.333 9.734a6.942 6.942 0 0 1-2.044.588 3.704 3.704 0 0 0 1.565-2.052 6.932 6.932 0 0 1-2.26.898A3.473 3.473 0 0 0 20.002 8c-1.964 0-3.557 1.658-3.557 3.702 0 .29.033.571.093.845-2.955-.156-5.576-1.632-7.33-3.871a3.799 3.799 0 0 0-.48 1.864c0 1.285.626 2.416 1.581 3.083a3.488 3.488 0 0 1-1.612-.462v.043c0 1.796 1.226 3.291 2.851 3.632-.297.085-.61.133-.934.133a3.6 3.6 0 0 1-.67-.068c.452 1.467 1.765 2.54 3.32 2.572A6.968 6.968 0 0 1 8 21.005a9.809 9.809 0 0 0 5.452 1.662c6.54 0 10.118-5.642 10.118-10.537 0-.16-.005-.32-.012-.478a7.198 7.198 0 0 0 1.775-1.918z" fill="#fff"/>
</svg>
