<svg width="32" height="32" viewBox="0 0 32 32" fill="none" xmlns="http://www.w3.org/2000/svg">
    <path d="M16 32c-2.815 0-5.537-.734-7.985-2.142L1.775 32l1.284-6.608C1.04 22.639 0 19.396 0 16 0 7.19 7.19 0 16 0c8.81 0 16 7.19 16 16 0 8.81-7.19 16-16 16zm-7.71-4.773.49.306a13.478 13.478 0 0 0 7.22 2.08c7.495 0 13.614-6.118 13.614-13.613 0-7.495-6.119-13.614-13.614-13.614C8.505 2.386 2.386 8.505 2.386 16c0 3.06 1.01 5.935 2.907 8.382l.336.429-.734 3.58 3.396-1.163z" fill="#32BA46"/>
    <path d="M7.924 9.85S8.872 8.2 9.637 8.108c.765-.092 1.744-.092 2.02.398.274.49 1.467 3.395 1.467 3.395s.215.49-.122.98c-.306.489-1.01 1.192-1.01 1.192s-.397.49 0 1.04c.398.52 1.01 1.5 2.264 2.754 1.255 1.254 3.672 2.142 3.672 2.142s.336.06.55-.184c.214-.214 1.407-1.713 1.407-1.713s.368-.49 1.01-.214c.643.275 3.365 1.652 3.365 1.652s.306.122.306.611c0 .49-.183 1.683-.612 2.08-.397.398-1.56 1.622-3.334 1.622-1.775 0-5.966-1.438-8.2-3.671-2.232-2.233-4.22-4.497-4.68-6.577-.459-1.989-.397-2.907.184-3.763z" fill="#32BA46"/>
</svg>
