<svg width="32" height="32" viewBox="0 0 32 32" fill="none" xmlns="http://www.w3.org/2000/svg">
    <path d="M16 32c8.837 0 16-7.163 16-16S24.837 0 16 0 0 7.163 0 16s7.163 16 16 16z" fill="#D40C18"/>
    <path d="M20.1 21.905h-8.178a3.975 3.975 0 0 1-3.967-3.966V14.06a3.975 3.975 0 0 1 3.967-3.966H20.1a3.975 3.975 0 0 1 3.966 3.966v3.878c-.022 2.206-1.782 3.966-3.966 3.966z" fill="#fff"/>
    <path d="m19.276 16.045-5.371 2.897c-.178.089-.401-.023-.401-.245v-5.839c0-.2.223-.334.401-.245l5.37 2.92c.179.133.179.4 0 .512z" fill="#DB0C0B"/>
</svg>
