<svg width="42" height="42" viewBox="0 0 42 42" fill="none" xmlns="http://www.w3.org/2000/svg">
    <path d="M20.219 13.912h-8.185v1.937h8.185v-1.937zM15.908 28.658h-3.936v1.937h3.936v-1.937zM15.845 23.753h-3.873v1.906h3.873v-1.906zM17.845 19.098h-5.842v1.812h5.842v-1.812z" fill="#000"/>
    <path d="M31.247 20.098v-9.31l-5.218-5.217H7.287v30.24h17.463c.375.063.78.094 1.156.094 4.842 0 8.81-3.936 8.81-8.81 0-2.842-1.375-5.373-3.468-6.997zm-5.78-12.996 4.218 4.217h-4.218V7.102zm-16.4 26.96V7.321H24.06v5.467h5.467v6.248a8.625 8.625 0 0 0-3.592-.781c-4.842 0-8.81 3.936-8.81 8.81 0 2.842 1.375 5.372 3.468 6.997H9.066zm16.838.188a7.186 7.186 0 0 1 0-14.37 7.186 7.186 0 0 1 7.185 7.184c-.032 3.968-3.25 7.185-7.185 7.185z" fill="#000"/>
    <path d="M25.904 22.753a2.8 2.8 0 0 0-2.811 2.812h1.593a1.22 1.22 0 0 1 1.218-1.218 1.22 1.22 0 0 1 1.219 1.218 1.2 1.2 0 0 1-1.219 1.218h-.812v2.28h1.594v-.811a2.821 2.821 0 0 0 1.999-2.687c.031-1.562-1.25-2.812-2.78-2.812zM26.686 30.064h-1.594v1.374h1.594v-1.374z" fill="#F36"/>
</svg>
