<svg width="42" height="42" viewBox="0 0 42 42" fill="none" xmlns="http://www.w3.org/2000/svg">
    <path d="M32.337 8.1h-3.955V6.78a1.32 1.32 0 0 0-1.319-1.318h-4.31a2.637 2.637 0 0 0-4.566 0h-4.31a1.32 1.32 0 0 0-1.318 1.319V8.1H8.604a1.32 1.32 0 0 0-1.319 1.318v27.693c0 .728.59 1.318 1.319 1.318h23.733a1.32 1.32 0 0 0 1.319-1.318V9.418A1.32 1.32 0 0 0 32.337 8.1zm-17.14 0h3.955a1.32 1.32 0 0 0 1.319-1.32c0 .729.59 1.32 1.318 1.32h3.956v2.637H15.196V8.1zm15.822 27.692H9.922V10.737h2.637v1.319c0 .728.591 1.318 1.319 1.318h13.185c.728 0 1.319-.59 1.319-1.318v-1.319h2.637v25.055z" fill="#25282B"/>
    <path d="M25.743 17.33H15.195a1.319 1.319 0 0 0 0 2.637h10.548a1.319 1.319 0 0 0 0-2.637zM25.743 22.605H15.195a1.319 1.319 0 0 0 0 2.638h10.548a1.319 1.319 0 0 0 0-2.637zM25.743 27.88H15.195a1.32 1.32 0 0 0 0 2.637h10.548a1.319 1.319 0 0 0 0-2.637z" fill="#F36"/>
</svg>
