<svg width="40" height="40" viewBox="0 0 40 40" fill="none" xmlns="http://www.w3.org/2000/svg">
    <circle cx="20" cy="20" r="20" fill="#8800FE"/>
    <path d="M26.879 11H13.12c-.757 0-1.371.657-1.371 1.467v15.066c0 .807.614 1.467 1.37 1.467H26.88c.757 0 1.371-.66 1.371-1.467V12.467c0-.81-.614-1.467-1.371-1.467zm-.274 16.24h-13.21V12.76h13.21v14.478z" fill="#F5EAFE"/>
    <path d="M25.37 16.133c0 .488-.367.88-.822.88h-9.096c-.453 0-.823-.392-.823-.88 0-.484.37-.88.823-.88h9.096c.455 0 .822.396.822.88zM18.561 19.998c0 .488-.37.88-.822.88h-2.287c-.453 0-.823-.392-.823-.88 0-.487.37-.88.823-.88h2.287c.452 0 .822.393.822.88zM18.561 23.91c0 .488-.37.881-.822.881h-2.287c-.453 0-.823-.393-.823-.88 0-.485.37-.88.823-.88h2.287c.452 0 .822.396.822.88zM25.146 20.835l-2.855 3.058a.806.806 0 0 1-.582.259.806.806 0 0 1-.584-.259l-1.097-1.174a.929.929 0 0 1 0-1.247.788.788 0 0 1 1.166 0l.515.552 2.274-2.433a.784.784 0 0 1 1.162 0c.321.343.321.9 0 1.244z" fill="#F5EAFE"/>
</svg>
