<svg width="96" height="96" viewBox="0 0 96 96" fill="none" xmlns="http://www.w3.org/2000/svg">
    <g filter="url(#d3z99p4nha)">
        <circle cx="48" cy="48" r="36" fill="#fff"/>
    </g>
    <path d="M59.337 33.1h-3.955v-1.32a1.32 1.32 0 0 0-1.319-1.318h-4.31a2.637 2.637 0 0 0-4.566 0h-4.31a1.32 1.32 0 0 0-1.318 1.319V33.1h-3.955a1.32 1.32 0 0 0-1.319 1.318v27.693c0 .728.59 1.318 1.319 1.318h23.733a1.32 1.32 0 0 0 1.319-1.318V34.418a1.32 1.32 0 0 0-1.319-1.318zm-17.14 0h3.955a1.32 1.32 0 0 0 1.319-1.32c0 .729.59 1.32 1.318 1.32h3.956v2.637H42.196V33.1zm15.822 27.692H36.922V35.737h2.637v1.319c0 .728.591 1.318 1.319 1.318h13.185c.728 0 1.319-.59 1.319-1.318v-1.319h2.637v25.055z" fill="#25282B"/>
    <path d="M52.743 42.33H42.194a1.319 1.319 0 0 0 0 2.637h10.549a1.319 1.319 0 0 0 0-2.637zM52.743 47.605H42.194a1.319 1.319 0 0 0 0 2.638h10.549a1.319 1.319 0 0 0 0-2.638zM52.743 52.88H42.194a1.32 1.32 0 0 0 0 2.637h10.549a1.319 1.319 0 0 0 0-2.637z" fill="#F36"/>
    <defs>
        <filter id="d3z99p4nha" x=".111" y=".111" width="95.778" height="95.778" filterUnits="userSpaceOnUse" color-interpolation-filters="sRGB">
            <feFlood flood-opacity="0" result="BackgroundImageFix"/>
            <feColorMatrix in="SourceAlpha" values="0 0 0 0 0 0 0 0 0 0 0 0 0 0 0 0 0 0 127 0" result="hardAlpha"/>
            <feOffset/>
            <feGaussianBlur stdDeviation="5.945"/>
            <feColorMatrix values="0 0 0 0 0 0 0 0 0 0 0 0 0 0 0 0 0 0 0.12 0"/>
            <feBlend in2="BackgroundImageFix" result="effect1_dropShadow_2847_7584"/>
            <feBlend in="SourceGraphic" in2="effect1_dropShadow_2847_7584" result="shape"/>
        </filter>
    </defs>
</svg>
