<svg width="46" height="46" viewBox="0 0 46 46" fill="none" xmlns="http://www.w3.org/2000/svg">
    <path fill-rule="evenodd" clip-rule="evenodd" d="M8.588 10.35H37.41a2.82 2.82 0 0 1 1.46.406c-4.939 3.851-9.874 7.707-14.824 11.545-.377.292-.82.438-1.262.438-.443 0-.886-.146-1.263-.438-4.88-3.785-9.74-7.596-14.606-11.402a2.822 2.822 0 0 1 1.674-.548zm31.437 1.732L28.98 20.694 40.25 32.073V13.19c0-.393-.08-.767-.225-1.108zm-12.44 9.698-2.465 1.91c-.697.54-1.517.811-2.336.811-.82 0-1.64-.27-2.336-.81l-2.465-1.91-11.81 11.926c.5.81 1.396 1.352 2.416 1.352H37.41c.907 0 1.718-.43 2.238-1.096L27.584 21.78zm-10.996-1.088-10.703-8.37a2.82 2.82 0 0 0-.136.867v18.449l10.839-10.946z" fill="#52575C"/>
</svg>
