<svg width="52" height="52" viewBox="0 0 52 52" fill="none" xmlns="http://www.w3.org/2000/svg">
    <path fill-rule="evenodd" clip-rule="evenodd" d="M26.208 8.36c-6.377 0-11.548 5.326-11.548 11.848 0 1.346.571 3.032 1.415 5.047.845 2.016 1.988 4.31 3.194 6.6 2.413 4.584 5.111 9.19 6.225 11.348a.802.802 0 0 0 1.428 0c1.114-2.157 3.812-6.764 6.225-11.347 1.206-2.292 2.337-4.585 3.18-6.6.845-2.017 1.428-3.703 1.428-5.048 0-6.521-5.167-11.848-11.547-11.848zm0 6.513c2.277 0 4.133 1.865 4.133 4.145 0 2.277-1.857 4.146-4.133 4.146a4.162 4.162 0 0 1-4.146-4.146 4.16 4.16 0 0 1 4.146-4.145z" fill="#52575C"/>
</svg>
