<svg width="52" height="52" viewBox="0 0 52 52" fill="none" xmlns="http://www.w3.org/2000/svg">
    <path d="M19.058 8.36a3.145 3.145 0 0 0-3.136 3.136v29.008a3.145 3.145 0 0 0 3.136 3.136H33.64a3.145 3.145 0 0 0 3.136-3.136V11.496A3.145 3.145 0 0 0 33.64 8.36H19.058zm5.543 3.02h3.497c.23 0 .416.264.416.588 0 .325-.186.588-.416.588H24.6c-.23 0-.416-.263-.416-.588 0-.324.186-.588.416-.588zm-6.957 4.193h17.41v20.854h-17.41V15.573zm8.705 22.52a1.941 1.941 0 1 1 0 3.882 1.941 1.941 0 0 1 0-3.883z" fill="#52575C"/>
</svg>
