<svg width="40" height="40" viewBox="0 0 40 40" fill="none" xmlns="http://www.w3.org/2000/svg">
    <circle cx="20" cy="20" r="20" fill="#1F8EA3"/>
    <path d="M19.492 20.45a2.18 2.18 0 1 0 0-4.36 2.18 2.18 0 0 0 0 4.36zM24.014 24.669v-1.736a.497.497 0 0 0-.182-.384.514.514 0 0 0-.424-.08l-.383.12c-.222-.888-.969-1.554-1.877-1.735a3.062 3.062 0 0 1-3.31 0c-.91.181-1.656.847-1.878 1.736l-.384-.122a.462.462 0 0 0-.424.081c-.12.08-.181.222-.181.384v1.736a.829.829 0 0 0-.707.827v.384c0 .424.303.767.707.828v1.574a.48.48 0 0 0 .323.444l4.057 1.232c.04.02.08.02.141.02.04 0 .101 0 .142-.02l4.057-1.232a.454.454 0 0 0 .323-.444v-1.575a.829.829 0 0 0 .707-.827v-.384a.829.829 0 0 0-.707-.827zm-4.986 4.219-3.129-.95v-4.38l3.13.95v4.38zm4.058-.95-3.13.95v-4.38l3.13-.95v4.38z" fill="#EBFCFF"/>
    <path d="M28.9 16.917 26.153 15.1v-3.169a.426.426 0 0 0-.424-.424h-1.413a.426.426 0 0 0-.424.424v1.696l-3.835-2.544a1.008 1.008 0 0 0-1.11 0l-8.842 5.854c-.202.121-.242.384-.121.586l.605.908c.121.202.384.242.586.121l8.316-5.51 8.337 5.51c.202.121.465.08.586-.121l.605-.928c.121-.182.06-.445-.12-.586z" fill="#EBFCFF"/>
</svg>
