<svg xmlns="http://www.w3.org/2000/svg" width="40" height="40" fill="none" viewBox="0 0 40 40">
    <circle cx="20" cy="20" r="20" fill="#0C0"/>
    <path fill="#EBFFEB" d="M11.635 10c.368 0 .71.192.88.511h-.002l.51.952.341.048.766-.765c.284-.284.752-.375 1.155-.168l.015.008H15.3l.621.363.015.01c.35.233.504.665.378 1.062l-.328 1.024.204.27 1.104-.01h.003c.417 0 .789.257.926.642 0 0 .056.154.115.38.058.229.084.39.084.39.065.407-.142.807-.514.997l-.973.5-.05.331.783.752c.305.291.373.75.172 1.128l-.008.015v-.001l-.371.606-.01.014c-.24.345-.68.494-1.087.37l.002.002-1.06-.317-.264.192.01 1.078c.004.409-.258.777-.656.912-.002 0-.159.056-.39.114-.235.057-.402.082-.402.082h-.006c-.04.005-.044.01-.133.01-.369 0-.71-.193-.88-.512h.002l-.51-.952-.34-.048-.767.764c-.285.285-.754.375-1.156.167l-.014-.008.001.001-.62-.363-.014-.01c-.35-.233-.505-.665-.379-1.062l.327-1.026-.202-.268-1.107.011h-.001-.002c-.416 0-.787-.257-.924-.641 0-.003-.058-.154-.116-.382-.059-.228-.084-.39-.084-.39-.065-.407.142-.807.513-.997l.974-.5.049-.329-.783-.751c-.304-.292-.373-.752-.171-1.129l.008-.015v.001l.37-.607.011-.014c.239-.343.678-.495 1.085-.372h.001l1.056.319.267-.194-.011-1.078c-.004-.41.26-.777.657-.912.003 0 .159-.055.39-.112.234-.058.402-.084.402-.084h.005c.056-.007.06-.009.133-.009h.001zm-.106 1.194l-.145.033c-.058.014-.097.025-.14.037l.01.967c.003.366-.178.703-.483.898l-.26.188c-.285.237-.675.315-1.035.204v.002l-.924-.281-.156.253.693.664h.001c.267.257.384.62.306.97l.005-.018-.052.348.001-.016c-.032.364-.253.687-.585.857l-.875.45c.01.043.017.082.032.14.015.058.027.095.04.138l.992-.011h.003c.371 0 .713.176.91.472l.204.27-.013-.015c.242.28.323.66.21 1.01l-.29.905.26.153.681-.678c.21-.207.5-.318.804-.318.069 0 .12.001.195.02l-.025-.006.356.05h-.017c.372.031.703.246.877.57l.458.857c.044-.01.086-.017.146-.032.058-.014.096-.026.139-.038l-.01-.967c-.003-.366.178-.703.483-.898l-.014.008.289-.209-.016.013c.201-.167.461-.25.73-.25.106 0 .208.015.306.044h.001l.926.281.154-.252-.693-.666h-.001c-.266-.256-.384-.619-.306-.968l-.005.018.052-.348-.001.017c.032-.365.253-.688.585-.857l.875-.45c-.009-.043-.017-.083-.032-.141-.015-.058-.027-.095-.04-.137l-.992.01h-.002-.001c-.371 0-.713-.175-.91-.471l-.205-.272.012.015c-.242-.28-.32-.661-.209-1.01l.29-.905-.26-.151-.68.676v.001c-.21.209-.503.318-.806.318-.069 0-.12-.002-.193-.02l.025.006-.358-.051.017.001c-.372-.032-.701-.248-.875-.57l-.46-.858zm4.443 1.894c.006-.002-.01.017 0 0zm-3.422.56c1.183 0 2.15.946 2.15 2.103 0 1.157-.967 2.102-2.15 2.102-1.183 0-2.152-.945-2.152-2.102s.968-2.104 2.152-2.104zm12.423 0c.334 0 .538.02.538.02.01 0 .018 0 .027.002h-.001c.488.042.9.392 1.015.856l.389 1.58v.002c-.006-.026.009.015.036.043.028.03.068.051.064.05l.015.006h-.001l.524.212.017.008-.001-.001c-.038-.018.017 0 .061-.001.044-.003.09-.023.06-.005l1.417-.847h.001c.416-.247.973-.205 1.355.13l.012.01.735.719.01.012c.33.361.38.9.122 1.312l-.869 1.388c.012-.019-.005.017-.007.056-.001.04.011.082.01.08l.005.012v.002l.217.511.005.013v.002c-.008-.023.013.018.042.044.03.026.073.042.047.036h.001l1.617.381c.475.112.832.514.877.99l.001.017V21.303l.002.013.007.111c.005.096.01.233.01.397 0 .327-.02.527-.02.528 0 .008 0 .017-.002.026v-.001c-.043.477-.401.88-.876.992l-1.616.38h-.002l-.002.002c.016-.004-.015.007-.042.033-.03.027-.052.066-.05.061l-.007.016v-.002l-.217.513-.008.017v-.002c.012-.022-.004.021-.002.06.002.04.022.082.008.06l.868 1.384c.259.414.204.959-.134 1.328l-.012.01-.733.718-.012.01c-.37.322-.92.37-1.343.119h-.001l-1.418-.848c.02.012-.017-.006-.055-.008-.037-.002-.077.006-.085.01-.003 0-.007.003-.011.004l-.002.001-.524.213c-.004 0-.009.003-.014.004l-.002.001c.025-.008-.017.013-.043.041-.027.029-.043.07-.037.046l-.39 1.582c-.114.465-.527.811-1.013.856 0 0-.23.022-.566.022-.336 0-.538-.02-.539-.02l-.026-.002c-.486-.043-.899-.391-1.013-.856l-.39-1.581v-.002c.006.026-.01-.014-.037-.043-.027-.03-.068-.051-.063-.05l-.016-.006h.002l-.525-.212-.018-.008.001.001c.04.019-.015-.002-.06 0s-.096.028-.059.006l-1.418.849c-.172.102-.375.154-.582.154-.282 0-.559-.098-.774-.285l-.013-.011-.734-.718-.01-.011c-.33-.362-.38-.901-.121-1.314l.868-1.385v-.002c-.012.019.006-.017.007-.056.002-.04-.011-.083-.01-.08l-.005-.011v-.002l-.216-.512-.006-.013v-.002c.008.025-.012-.017-.042-.044-.03-.026-.074-.041-.048-.035h-.001l-1.618-.382c-.476-.112-.83-.515-.875-.99v-.001c0-.001-.023-.226-.023-.553 0-.328.021-.526.021-.526l.002-.026c.044-.476.4-.879.875-.992l1.618-.38h.001c-.026.006.015-.009.045-.036.03-.027.052-.066.05-.061l.007-.016v.002l.216-.513.008-.017v.002c-.011.022.004-.021.003-.06-.002-.039-.02-.077-.009-.058v-.001l-.867-1.385c-.258-.413-.204-.958.134-1.328l.01-.01.736-.718.012-.01c.37-.32.92-.37 1.343-.118l1.418.849c-.017-.01.018.006.054.008.038.002.077-.008.084-.011l.012-.005h.002l.525-.212.013-.005h.002c-.025.008.017-.013.044-.042.026-.029.042-.07.036-.046v-.001l.39-1.582c.115-.466.528-.812 1.014-.856l.015-.001h.015c.005 0 .01 0 .017-.002l.115-.007c.098-.005.237-.01.405-.01zm-.002 1.17c-.136 0-.25.003-.33.007l-.093.006h-.002l-.38 1.548c-.104.423-.426.775-.838.912l-.454.183c-.4.193-.891.167-1.268-.058l-1.375-.822-.607.593.842 1.345c.232.37.258.841.067 1.222l-.189.446c-.144.412-.508.732-.94.834l-1.581.372c-.004.044-.016.18-.016.416 0 .133.004.244.008.322l.006.092v.001l1.585.373c.432.102.792.417.933.818l.187.445c.194.39.172.87-.06 1.24l-.84 1.343.607.593 1.374-.821c.194-.116.416-.162.633-.172.217-.01.429.015.619.107l.455.183.003.001c.42.142.745.497.849.917l.382 1.548c.045.003.183.014.425.014.137 0 .25-.003.33-.007l.095-.005.381-1.55c.104-.422.426-.775.837-.912l.454-.184h.003c.174-.083.368-.12.568-.12.252 0 .495.058.698.18l1.373.822.608-.594-.84-1.343c-.232-.371-.26-.843-.068-1.223l.188-.446.001-.003c.145-.41.507-.73.938-.832l1.584-.372c.003-.044.014-.18.014-.416 0-.133-.003-.244-.007-.322l-.006-.092-1.585-.373c-.432-.102-.792-.416-.933-.817l-.188-.446c-.194-.39-.171-.87.06-1.24l.841-1.344-.606-.593-1.375.823c-.194.116-.416.161-.634.17-.217.01-.429-.014-.619-.106l.017.008-.471-.192c-.42-.141-.75-.496-.854-.919l-.38-1.546c-.046-.004-.185-.016-.426-.016v.001zm-12.421 0c-.53 0-.955.415-.955.933 0 .517.425.934.955.934s.955-.417.955-.934c0-.518-.426-.934-.955-.934zm12.421 3.384c2.04 0 3.703 1.627 3.703 3.621s-1.663 3.62-3.703 3.62-3.704-1.626-3.704-3.62c0-1.994 1.665-3.621 3.704-3.621zm-15.841.202s-.003.005-.003.008l.003-.008zm15.841.967c-1.385 0-2.508 1.098-2.508 2.452 0 1.354 1.123 2.452 2.508 2.452 1.386 0 2.508-1.098 2.508-2.452 0-1.354-1.122-2.452-2.508-2.452z"/>
</svg>
