<svg xmlns="http://www.w3.org/2000/svg" width="31" height="26" fill="none" viewBox="0 0 31 26">
    <path fill="#000" d="M30.095 10.445C30.095 4.962 24.481.5 17.581.5c-6.9 0-12.514 4.462-12.514 9.945.003.419.04.836.11 1.25-2.816 1.232-4.73 3.622-4.73 6.363.005 1.441.527 2.84 1.485 3.973l-.205 2.963c-.01.144.019.288.085.42.066.13.166.244.291.33.126.086.272.141.427.16.154.02.311.003.457-.048l3.079-1.095c1.11.363 2.28.547 3.457.543 3.992 0 7.382-2.07 8.594-4.934 1.496-.043 2.976-.305 4.384-.776l4.516 1.604c.146.052.303.069.457.05.154-.02.301-.076.427-.161.125-.086.225-.2.291-.33.066-.132.095-.276.085-.42l-.3-4.353c1.363-1.57 2.11-3.523 2.118-5.539zM9.523 23.578c-1.067.003-2.125-.18-3.118-.543-.217-.08-.458-.08-.675-.004l-2.055.73.136-1.954c.016-.223-.063-.444-.219-.614-.82-.868-1.276-1.98-1.286-3.135 0-3.046 3.238-5.525 7.217-5.525 3.98 0 7.217 2.479 7.217 5.525 0 3.044-3.237 5.52-7.217 5.52zm16.794-8.434c-.155.17-.233.39-.218.612l.23 3.349-3.495-1.241c-.216-.077-.457-.076-.673.003-1.151.418-2.364.673-3.597.756.018-.187.035-.374.035-.565 0-3.998-4.07-7.252-9.076-7.252-.862 0-1.72.1-2.556.298-.022-.217-.04-.436-.04-.659 0-4.531 4.779-8.218 10.654-8.218s10.654 3.687 10.654 8.218c-.013 1.73-.694 3.396-1.918 4.699z"/>
    <circle cx="13.875" cy="8.375" r="1.125" fill="#F36"/>
    <circle cx="18.375" cy="8.375" r="1.125" fill="#F36"/>
    <circle cx="22.875" cy="8.375" r="1.125" fill="#F36"/>
</svg>
