<svg xmlns="http://www.w3.org/2000/svg" width="37" height="37" fill="none" viewBox="0 0 37 37">
    <g clip-path="url(#clip0)">
        <path fill="#25282B" d="M31.546 23.28l-2.82-2.819v-4.803c-.002-2.593-.964-5.093-2.698-7.02-1.735-1.927-4.12-3.146-6.698-3.421V3.129h-2.088v2.088c-2.571.293-4.946 1.517-6.677 3.44-1.731 1.923-2.699 4.414-2.72 7.001v4.803l-2.82 2.82c-.102.091-.182.204-.236.33-.054.127-.08.263-.077.4v3.132c-.01.14.012.28.06.41.05.131.127.25.225.35.1.098.218.175.349.224.13.05.27.07.41.06h7.31c0 1.385.55 2.713 1.528 3.692.98.98 2.307 1.53 3.692 1.53 1.384 0 2.712-.55 3.691-1.53.98-.979 1.53-2.307 1.53-3.691h7.308c.14.009.28-.012.41-.061.131-.05.25-.126.349-.225.099-.099.175-.218.225-.348.049-.131.07-.271.06-.41V24.01c.004-.137-.022-.273-.076-.4-.054-.126-.135-.239-.237-.33zm-13.26 8.04c-.831 0-1.628-.33-2.215-.918-.588-.587-.918-1.384-.918-2.214h6.265c0 .83-.33 1.627-.917 2.215-.588.587-1.385.917-2.215.917zM29.77 26.1H6.801v-1.671l2.818-2.82c.102-.091.183-.204.237-.33.054-.127.08-.263.077-.4v-5.22c0-2.216.88-4.34 2.446-5.907 1.567-1.567 3.691-2.447 5.907-2.447 2.215 0 4.34.88 5.906 2.447 1.567 1.566 2.447 3.69 2.447 5.906v5.22c-.004.138.022.274.076.4.054.127.135.24.237.332l2.819 2.819v1.67z"/>
    </g>
    <defs>
        <clipPath id="clip0">
            <path fill="#fff" d="M0.168 0.101H36.503V36.436H0.168z"/>
        </clipPath>
    </defs>
</svg>
