<svg xmlns="http://www.w3.org/2000/svg" width="37" height="37" fill="none" viewBox="0 0 37 37">
    <path fill="#25282B" d="M29.756 7.887h-2.077V4.773c0-.276-.11-.54-.304-.734-.195-.195-.459-.304-.734-.304-.275 0-.54.109-.734.304-.195.194-.304.458-.304.734v3.114H11.069V4.773c0-.276-.11-.54-.304-.734-.195-.195-.459-.304-.734-.304-.276 0-.54.109-.734.304-.195.194-.304.458-.304.734v3.114H6.916c-.826 0-1.618.328-2.202.912-.584.585-.912 1.377-.912 2.203v18.687c0 .826.328 1.618.912 2.202.584.584 1.376.912 2.202.912h22.84c.826 0 1.618-.328 2.202-.912.584-.584.912-1.376.912-2.202V11.002c0-.826-.328-1.618-.912-2.203-.584-.584-1.376-.912-2.202-.912zm1.038 21.802c0 .275-.11.539-.304.734-.195.194-.459.304-.734.304H6.916c-.275 0-.54-.11-.734-.304-.195-.195-.304-.46-.304-.734V15.154h24.916V29.69zm0-16.611H5.878v-2.076c0-.276.11-.54.304-.734.195-.195.459-.304.734-.304h2.077v1.038c0 .275.109.54.304.734.194.194.458.304.734.304.275 0 .54-.11.734-.304.194-.195.304-.459.304-.734V9.964h14.534v1.038c0 .275.11.54.304.734.195.194.459.304.734.304.276 0 .54-.11.734-.304.195-.195.304-.459.304-.734V9.964h2.077c.275 0 .539.109.734.304.194.194.304.458.304.734v2.076z"/>
    <rect width="4.5" height="2.25" x="9.001" y="19" fill="#F36" rx="1.125"/>
    <rect width="4.5" height="2.25" x="9.001" y="23.5" fill="#F36" rx="1.125"/>
    <rect width="11.25" height="2.25" x="15.751" y="19" fill="#F36" rx="1.125"/>
    <rect width="11.25" height="2.25" x="15.751" y="23.5" fill="#F36" rx="1.125"/>
</svg>
