<svg width="24" height="24" viewBox="0 0 24 24" fill="none" xmlns="http://www.w3.org/2000/svg">
    <path d="M11.998 11.947a2.275 2.275 0 1 0 0-4.55 2.275 2.275 0 0 0 0 4.55zM16.713 16.35V14.54a.519.519 0 0 0-.19-.4.536.536 0 0 0-.442-.085l-.4.127c-.232-.927-1.011-1.622-1.96-1.812a3.195 3.195 0 0 1-3.454 0c-.948.19-1.727.885-1.959 1.812l-.4-.127a.482.482 0 0 0-.442.085c-.127.084-.19.231-.19.4v1.811a.865.865 0 0 0-.737.864v.4c0 .442.316.8.737.864v1.643c0 .21.148.4.337.463l4.234 1.285c.042.021.084.021.148.021.042 0 .105 0 .147-.021l4.234-1.285a.474.474 0 0 0 .337-.463v-1.643a.865.865 0 0 0 .737-.864v-.4c0-.442-.316-.8-.737-.864zm-5.203 4.402-3.265-.99v-4.57l3.265.99v4.57zm4.234-.99-3.265.99v-4.57l3.265-.99v4.57z" fill="#fff"/>
    <path d="m21.812 8.261-2.865-1.896V3.058a.445.445 0 0 0-.442-.442H17.03a.445.445 0 0 0-.442.442v1.77l-4.002-2.654a1.052 1.052 0 0 0-1.159 0L2.201 8.282c-.21.127-.252.4-.126.611l.632.948c.126.21.4.253.61.126l8.679-5.75 8.7 5.75c.21.127.484.085.61-.126l.632-.969c.127-.19.063-.463-.126-.61z" fill="#fff"/>
</svg>
