<svg width="24" height="24" viewBox="0 0 24 24" fill="none" xmlns="http://www.w3.org/2000/svg">
    <path d="M19.083 5.269a.903.903 0 0 0-1.285 0 .903.903 0 0 0 0 1.285C21 9.756 21 14.959 17.798 18.16a.903.903 0 0 0 0 1.285c.168.169.4.274.632.274a.831.831 0 0 0 .632-.274c3.918-3.918 3.918-10.28.021-14.177z" fill="#fff"/>
    <path d="M16.067 8.26a.903.903 0 0 0-1.285 0 .903.903 0 0 0 0 1.285c1.538 1.538 1.56 4.066 0 5.604a.903.903 0 0 0 0 1.285c.169.168.4.273.632.273a.832.832 0 0 0 .632-.273c2.297-2.255 2.275-5.92.021-8.174zM6.21 6.555a.903.903 0 0 0 0-1.285.903.903 0 0 0-1.285 0c-3.897 3.897-3.897 10.259 0 14.156.168.169.4.274.632.274a.831.831 0 0 0 .632-.274.903.903 0 0 0 0-1.285c-3.181-3.18-3.181-8.384.021-11.586z" fill="#fff"/>
    <path d="M9.2 9.545a.903.903 0 0 0 0-1.285.903.903 0 0 0-1.285 0 5.785 5.785 0 0 0 0 8.174c.169.168.4.273.632.273a.831.831 0 0 0 .632-.273.903.903 0 0 0 0-1.286c-1.517-1.537-1.517-4.065.021-5.603zM12.005 13.885a1.538 1.538 0 1 0 0-3.075 1.538 1.538 0 0 0 0 3.075z" fill="#fff"/>
</svg>
