<svg width="24" height="24" viewBox="0 0 24 24" fill="none" xmlns="http://www.w3.org/2000/svg">
    <path d="M10.26 2c-.33 0-.6.303-.645.55L9.25 4.921a7.57 7.57 0 0 0-.313.13l-1.93-1.42a.674.674 0 0 0-.848.067l-2.46 2.46a.674.674 0 0 0-.06.842l1.42 1.93a7.496 7.496 0 0 0-.137.319l-2.37.366a.674.674 0 0 0-.551.646v3.478c.003.306.249.591.55.639l2.371.367c.043.108.089.214.136.319l-1.42 1.93a.674.674 0 0 0 .061.842l2.46 2.459c.217.22.6.25.849.068l1.93-1.42c.102.046.206.088.312.129l.366 2.37a.674.674 0 0 0 .646.558h3.478c.31 0 .6-.25.645-.557l.367-2.371c.106-.041.21-.083.313-.13l1.93 1.42c.249.184.63.153.848-.067l2.46-2.46a.674.674 0 0 0 .06-.842l-1.42-1.93a7.42 7.42 0 0 0 .137-.318l2.37-.367a.674.674 0 0 0 .551-.639v-3.478a.675.675 0 0 0-.55-.646l-2.371-.366a7.408 7.408 0 0 0-.136-.32L20.363 7a.674.674 0 0 0-.061-.842l-2.46-2.46a.674.674 0 0 0-.849-.068l-1.93 1.42a7.545 7.545 0 0 0-.312-.129l-.367-2.37A.674.674 0 0 0 13.74 2h-3.478zm.558 1.304h2.364l.333 2.174a.667.667 0 0 0 .441.523c.309.1.606.226.897.374.215.11.492.089.686-.054l1.78-1.305 1.665 1.665-1.305 1.78a.667.667 0 0 0-.06.679c.148.291.28.588.38.897a.667.667 0 0 0 .516.441l2.18.34v2.357l-2.18.34a.667.667 0 0 0-.516.441 6.26 6.26 0 0 1-.38.897.667.667 0 0 0 .06.68l1.305 1.78-1.665 1.664-1.78-1.304a.667.667 0 0 0-.686-.055 6.213 6.213 0 0 1-.896.374.667.667 0 0 0-.442.523l-.34 2.18h-2.35l-.34-2.18a.667.667 0 0 0-.441-.523 6.209 6.209 0 0 1-.897-.374.667.667 0 0 0-.686.055l-1.78 1.304-1.665-1.665 1.305-1.78a.667.667 0 0 0 .06-.679 6.26 6.26 0 0 1-.38-.896.667.667 0 0 0-.516-.442l-2.18-.34v-2.357l2.18-.34a.667.667 0 0 0 .516-.441c.1-.309.232-.606.38-.897a.667.667 0 0 0-.06-.68L5.016 6.68l1.665-1.664 1.78 1.305a.667.667 0 0 0 .686.054c.291-.148.588-.273.896-.374a.667.667 0 0 0 .442-.523l.333-2.174zM12 7.217A4.793 4.793 0 0 0 7.217 12 4.793 4.793 0 0 0 12 16.783 4.793 4.793 0 0 0 16.783 12 4.792 4.792 0 0 0 12 7.217zm0 1.305A3.468 3.468 0 0 1 15.478 12 3.469 3.469 0 0 1 12 15.478 3.468 3.468 0 0 1 8.522 12 3.468 3.468 0 0 1 12 8.522z" fill="#fff"/>
    <path d="M12.001 7.218A4.793 4.793 0 0 0 7.22 12 4.793 4.793 0 0 0 12 16.783 4.793 4.793 0 0 0 16.784 12a4.793 4.793 0 0 0-4.783-4.782zm0 1.304A3.468 3.468 0 0 1 15.48 12 3.468 3.468 0 0 1 12 15.48 3.468 3.468 0 0 1 8.523 12a3.468 3.468 0 0 1 3.478-3.478z" fill="#fff"/>
</svg>
