<svg width="24" height="24" viewBox="0 0 24 24" fill="none" xmlns="http://www.w3.org/2000/svg">
    <path fill-rule="evenodd" clip-rule="evenodd" d="m16.03 20.956-.518-.895c-.514-.896-.977-1.716-1.315-2.326H4.432c-.789 0-1.43-.633-1.43-1.423V5.376c0-.788.641-1.43 1.43-1.43h15.136c.792 0 1.434.642 1.434 1.435v10.931c0 .79-.641 1.423-1.434 1.423h-1.719a428.587 428.587 0 0 1-1.347 2.38l-.471.84zM4.433 5.05a.33.33 0 0 0-.336.33v10.931c0 .18.148.328.336.328H14.84l.158.282c.307.54.696 1.224 1.023 1.805.304-.529.694-1.225 1.029-1.812l.16-.275h2.358a.34.34 0 0 0 .34-.328V5.376c0-.178-.158-.325-.34-.325H4.432z" fill="#25282B" stroke="#25282B" stroke-width=".295"/>
    <path fill-rule="evenodd" clip-rule="evenodd" d="M10.949 13.709c0-.629.43-1.06 1.03-1.06.631 0 1.043.431 1.054 1.06 0 .613-.411 1.068-1.054 1.068-.611-.001-1.03-.451-1.03-1.068zm.305-1.62-.011-.304c-.044-.593.158-1.2.682-1.812.37-.464.676-.843.676-1.23 0-.403-.262-.688-.853-.699-.38 0-.853.14-1.15.352L10.2 7.118c.433-.244 1.118-.473 1.948-.473 1.539 0 2.256.853 2.256 1.824 0 .88-.57 1.462-1.013 1.957-.419.476-.602.925-.588 1.453v.211h-1.548z" fill="#F36"/>
</svg>
