<svg width="20" height="20" viewBox="0 0 20 20" fill="none" xmlns="http://www.w3.org/2000/svg">
    <path d="M9.997 9.956a1.896 1.896 0 1 0 0-3.792 1.896 1.896 0 0 0 0 3.792zM13.924 13.624v-1.51a.432.432 0 0 0-.159-.333c-.105-.07-.228-.105-.368-.07l-.334.105c-.193-.772-.842-1.351-1.632-1.51a2.663 2.663 0 0 1-2.879 0c-.79.159-1.44.738-1.632 1.51l-.334-.105a.402.402 0 0 0-.368.07c-.106.07-.158.193-.158.334v1.51a.72.72 0 0 0-.615.719v.333a.72.72 0 0 0 .615.72v1.37c0 .175.123.333.28.385l3.529 1.071c.035.018.07.018.123.018.035 0 .087 0 .122-.018l3.529-1.07a.395.395 0 0 0 .28-.387v-1.369a.72.72 0 0 0 .615-.72v-.333a.72.72 0 0 0-.614-.72zm-4.336 3.669-2.72-.825v-3.81l2.72.826v3.809zm3.528-.825-2.72.825v-3.81l2.72-.824v3.809z" fill="#25282B"/>
    <path d="m18.174 6.884-2.387-1.58V2.548a.37.37 0 0 0-.368-.369H14.19a.37.37 0 0 0-.369.37v1.474L10.486 1.81a.877.877 0 0 0-.965 0L1.833 6.9c-.176.106-.211.334-.106.51l.527.79c.105.175.333.21.509.104l7.232-4.792 7.25 4.793c.175.105.403.07.508-.106l.527-.807c.105-.158.052-.386-.106-.51z" fill="#F36"/>
</svg>
