<svg width="89" height="26" viewBox="0 0 89 26" fill="none" xmlns="http://www.w3.org/2000/svg">
    <path d="M5.917 25.948c1.773 0 3.166-.592 4.18-1.776.536-.615.897-1.351 1.081-2.208a9.99 9.99 0 0 0 .144-1.08c.035-.41.052-.883.052-1.42V8.354h-2.59v1.285c-.937-1.067-2.11-1.601-3.523-1.601-1.612 0-2.909.615-3.891 1.846-.913 1.16-1.37 2.57-1.37 4.23 0 1.705.491 3.126 1.474 4.264.974 1.121 2.225 1.682 3.752 1.682 1.344 0 2.53-.534 3.558-1.6v1.588c0 2.36-.948 3.54-2.844 3.54-1.028 0-1.811-.354-2.348-1.063-.23-.304-.395-.736-.495-1.297H.495c.154 1.488.73 2.652 1.727 3.493.967.818 2.199 1.227 3.695 1.227zm-.172-8.236c-.99 0-1.766-.363-2.326-1.087-.514-.662-.771-1.511-.771-2.547 0-1.051.257-1.908.771-2.57.568-.74 1.343-1.11 2.326-1.11.92 0 1.676.339 2.267 1.016.584.662.875 1.546.875 2.652 0 1.036-.264 1.885-.794 2.547-.576.733-1.358 1.099-2.348 1.099zm13.918 2.348c.583 0 1.124-.063 1.623-.187a4.81 4.81 0 0 0 1.393-.59c.43-.269.833-.611 1.209-1.028a8.824 8.824 0 0 0 1.07-1.502l-2.187-1.238c-.53.841-1.002 1.418-1.416 1.73-.422.31-.956.466-1.6.466-.83 0-1.508-.272-2.038-.817-.53-.553-.829-1.297-.898-2.232h8.036l.011-.619c0-1.877-.476-3.345-1.427-4.404-.96-1.067-2.264-1.601-3.915-1.601-1.634 0-2.947.55-3.937 1.647-.982 1.114-1.473 2.57-1.473 4.37 0 1.815.506 3.271 1.52 4.37 1.012 1.09 2.356 1.635 4.029 1.635zm2.532-7.547h-5.203c.084-.328.207-.62.368-.877s.355-.477.582-.66c.226-.183.477-.323.754-.42.276-.098.571-.146.886-.146 1.381 0 2.253.7 2.613 2.103zm8.162 7.22v-8.926h2.015V8.353h-2.015v-4.17h-2.59v4.17h-1.105v2.454h1.105v8.926h2.59z" fill="#F36"/>
    <path d="M36.724 19.733v-5.9c0-2.166.706-3.248 2.118-3.248.468 0 .948.179 1.439.537l1.186-2.406c-.745-.452-1.459-.678-2.142-.678-.514 0-.959.097-1.335.292-.368.187-.79.534-1.266 1.04V8.353h-2.59v11.38h2.59zm11.051.327c1.228 0 2.376-.507 3.442-1.52v1.193h2.602V8.353h-2.602v1.32c-1.036-1.09-2.206-1.635-3.51-1.635-1.513 0-2.771.568-3.777 1.706-1.005 1.137-1.508 2.558-1.508 4.264 0 1.737.503 3.186 1.508 4.346 1.013 1.137 2.295 1.706 3.845 1.706zm.392-2.349c-.898 0-1.643-.346-2.234-1.04-.575-.685-.863-1.573-.863-2.663 0-1.02.295-1.877.886-2.57.599-.686 1.343-1.029 2.234-1.029.944 0 1.711.34 2.302 1.017.591.693.887 1.573.887 2.64 0 1.067-.296 1.947-.887 2.64-.59.67-1.366 1.005-2.325 1.005zm11.523 2.022v-5.491c0-1.418.177-2.411.53-2.98.36-.576.97-.864 1.83-.864.79 0 1.336.218 1.635.654.307.428.46 1.204.46 2.325v6.356h2.602v-6.975c0-1.605-.314-2.761-.944-3.47-.729-.833-1.746-1.25-3.05-1.25-1.136 0-2.157.456-3.063 1.367V8.353H57.09v11.38h2.601zm12.917 0V15.35l.414-.42 3.707 4.802h3.362l-5.227-6.601 4.87-4.779h-3.477l-3.65 3.68V0h-2.59v19.733h2.59zm12.387.327c1.097 0 2.034-.35 2.809-1.052C88.6 18.268 89 17.35 89 16.251c0-.857-.238-1.538-.714-2.045-.475-.506-1.4-1.059-2.774-1.659-.998-.428-1.497-.86-1.497-1.296 0-.25.085-.454.254-.614a.856.856 0 0 1 .61-.24c.499 0 .917.351 1.254 1.052l2.142-1.156c-.699-1.503-1.765-2.255-3.2-2.255-.975 0-1.804.323-2.487.97-.668.646-1.002 1.464-1.002 2.453 0 .748.196 1.36.587 1.834.307.374.837.748 1.59 1.122.268.132.532.26.793.385s.522.254.783.386c.676.405 1.013.841 1.013 1.308 0 .81-.437 1.215-1.312 1.215a1.59 1.59 0 0 1-1.128-.444c-.162-.148-.396-.494-.703-1.04L81 17.268c.783 1.862 2.115 2.793 3.995 2.793z" fill="#25282B"/>
</svg>
