<svg width="42" height="42" viewBox="0 0 42 42" fill="none" xmlns="http://www.w3.org/2000/svg">
    <path d="M33.137 9.46a1.548 1.548 0 0 0-2.203 0 1.548 1.548 0 0 0 0 2.203c5.49 5.49 5.49 14.41 0 19.9a1.548 1.548 0 0 0 0 2.202c.289.29.686.47 1.083.47.398 0 .795-.145 1.084-.47 6.717-6.717 6.717-17.623.036-24.305z" fill="#25282B"/>
    <path d="M27.972 14.588a1.548 1.548 0 0 0-2.203 0 1.548 1.548 0 0 0 0 2.203c2.636 2.637 2.673 6.97 0 9.607a1.548 1.548 0 0 0 0 2.203c.289.289.686.47 1.084.47.397 0 .794-.145 1.083-.47 3.936-3.865 3.9-10.148.036-14.013z" fill="#F36"/>
    <path d="M11.07 11.664a1.548 1.548 0 0 0 0-2.203 1.548 1.548 0 0 0-2.202 0c-6.681 6.681-6.681 17.587 0 24.269.289.288.686.469 1.083.469.397 0 .795-.145 1.084-.47a1.548 1.548 0 0 0 0-2.202c-5.454-5.454-5.454-14.374.036-19.863z" fill="#25282B"/>
    <path d="M16.199 16.791a1.548 1.548 0 0 0 0-2.203 1.548 1.548 0 0 0-2.203 0c-3.864 3.865-3.864 10.148 0 14.013.289.289.686.47 1.083.47.398 0 .795-.145 1.084-.47a1.548 1.548 0 0 0 0-2.203c-2.6-2.637-2.6-6.97.036-9.607zM21.003 24.231a2.636 2.636 0 1 0 0-5.272 2.636 2.636 0 0 0 0 5.272z" fill="#F36"/>
</svg>
