<svg width="24" height="24" viewBox="0 0 24 24" fill="none" xmlns="http://www.w3.org/2000/svg">
    <path d="M19.08 5.269a.903.903 0 0 0-1.285 0 .903.903 0 0 0 0 1.285c3.202 3.202 3.202 8.405 0 11.607a.903.903 0 0 0 0 1.285c.168.169.4.274.632.274a.832.832 0 0 0 .632-.274c3.918-3.918 3.918-10.28.02-14.177z" fill="#FFF3EB"/>
    <path d="M16.067 8.26a.903.903 0 0 0-1.285 0 .903.903 0 0 0 0 1.285c1.538 1.538 1.559 4.066 0 5.604a.903.903 0 0 0 0 1.285c.168.168.4.274.632.274a.832.832 0 0 0 .632-.274c2.296-2.254 2.275-5.92.021-8.174zM6.208 6.554a.903.903 0 0 0 0-1.285.903.903 0 0 0-1.285 0c-3.897 3.897-3.897 10.26 0 14.157.168.168.4.274.632.274a.831.831 0 0 0 .632-.274.903.903 0 0 0 0-1.285c-3.181-3.181-3.181-8.385.02-11.587z" fill="#FFF3EB"/>
    <path d="M9.2 9.545a.903.903 0 0 0 0-1.285.903.903 0 0 0-1.286 0 5.785 5.785 0 0 0 0 8.174c.169.168.4.274.632.274a.832.832 0 0 0 .632-.274.903.903 0 0 0 0-1.285c-1.517-1.538-1.517-4.066.021-5.604zM12.002 13.885a1.538 1.538 0 1 0 0-3.076 1.538 1.538 0 0 0 0 3.076z" fill="#FFF3EB"/>
</svg>
