<svg width="42" height="62" viewBox="0 0 42 62" fill="none" xmlns="http://www.w3.org/2000/svg">
    <g opacity=".6" fill="#25282B">
        <path d="m38.18 35.225.005.001c-1.093-4.907-5.254-8.657-10.37-9.124-.046 2.139-3.217 3.865-7.12 3.865-3.905 0-7.075-1.726-7.121-3.865-5.115.468-9.277 4.218-10.369 9.124h34.976z"/>
        <path d="m13.963 13.778-2.166-.937c-.049.401-.08.81-.08 1.224a10.527 10.527 0 0 0 .104 1.433c.006.086.013.17.021.253.566 6.405 4.313 11.354 8.853 11.354 4.539 0 8.286-4.95 8.852-11.354l.021-.253c.04-.277.067-.56.084-.844.011-.195.018-.39.018-.589 0-.415-.03-.823-.08-1.224l-2.166.938c.003 1.371-.209 2.628-.209 2.63a3.784 3.784 0 0 1 1.246-.584c-.516 5.594-3.796 9.909-7.768 9.909s-7.251-4.315-7.767-9.91c.35.087.779.257 1.246.583 0 0-.211-1.257-.21-2.629z"/>
        <path d="m8.267 6.213.838.363-.07.563a.68.68 0 0 0-.095 1.318l-.51 7.131c-.02.298.04.773.134 1.056l.412 1.24c.047.141.11.212.171.212.062 0 .124-.07.172-.212l.413-1.24c.094-.283.154-.758.133-1.056l-.508-7.13a.681.681 0 0 0-.095-1.319l-.066-.524 1.937.838.948.41v3.66l3.133 1.356 4.12 1.784c.375.162.868.243 1.361.243.494 0 .988-.081 1.362-.243l4.12-1.784 3.134-1.356v-3.66l.948-.41 2.864-1.241c.75-.325.75-.855 0-1.18L22.058.243C21.682.081 21.189 0 20.695 0c-.493 0-.987.081-1.361.244L8.267 5.034c-.75.324-.75.855 0 1.179zM36.547 59.964H4.845a.66.66 0 0 0 0 1.322h31.704a.661.661 0 0 0 0-1.322zM38.185 36.106H3.206A3.216 3.216 0 0 0 0 39.318v.075l.013.075L2.915 56.3a3.216 3.216 0 0 0 3.21 3.131h29.141a3.217 3.217 0 0 0 3.212-3.13l2.901-16.834.014-.075v-.075c0-1.77-1.44-3.21-3.208-3.212zm-2.919 22.445H6.126a2.33 2.33 0 0 1-2.331-2.33L.88 39.318a2.332 2.332 0 0 1 2.332-2.332h34.969a2.331 2.331 0 0 1 2.33 2.331l-2.914 16.903a2.33 2.33 0 0 1-2.33 2.33z"/>
        <path d="M20.697 46.096a1.381 1.381 0 1 0-.004 2.763 1.381 1.381 0 0 0 .003-2.763z"/>
    </g>
</svg>
